<?xml version="1.0" encoding="utf-8"?>
<!-- Generator: Adobe Illustrator 18.1.1, SVG Export Plug-In . SVG Version: 6.00 Build 0)  -->
<!DOCTYPE svg PUBLIC "-//W3C//DTD SVG 1.1//EN" "http://www.w3.org/Graphics/SVG/1.1/DTD/svg11.dtd">
<svg version="1.1" id="Layer_1" xmlns="http://www.w3.org/2000/svg" xmlns:xlink="http://www.w3.org/1999/xlink" x="0px" y="0px"
	 viewBox="0 0 1920 1080" enable-background="new 0 0 1920 1080" xml:space="preserve">
	 <style>
	 	.Wheels {
			animation: rotate 2.5s linear infinite;
			transform-origin: center;
			will-change: transform;
		}
		
		#ripple {
			animation: pulse 2s ease-in-out  infinite alternate;
			transform-origin: center;
			will-change: transform;
		}

		#Parallax-Back {
			animation: parallaxBack 9s linear infinite;
			will-change: transform;
		}

		#Parallax-Front {
			animation: parallaxFront 7s linear infinite;
			will-change: transform;
		}


		@keyframes rotate{
			0%   { transform: rotate(0) }
			100% { transform: rotate(360deg) }
		}
		
		@keyframes pulse{
			0%   { transform: scale(1) }
			100% { transform: scale(1.15) }
		}
		

		@keyframes parallaxFront {
			0%     { transform: translateX(0) }
			99.99% { transform: translateX(-820px) }
			100%   { transform: translateX(0) }
		}
		
		@keyframes parallaxBack {
			0% 	   { transform: translateX(0) }
			99.99% { transform: translateX(-680px) }
			100%   { transform: translateX(0) }
		}
	 </style>
<g id="bg-lines" opacity="0.3">
	
		<linearGradient id="SVGID_1_" gradientUnits="userSpaceOnUse" x1="1117.7" y1="469.0212" x2="1117.7" y2="469.181" gradientTransform="matrix(1 0 0 1 0 165.5)">
		<stop  offset="0" style="stop-color:#1A1A1A"/>
		<stop  offset="1" style="stop-color:#595959"/>
	</linearGradient>
	<path fill="url(#SVGID_1_)" d="M1117.6,634.5h-0.3l0.8,0.2L1117.6,634.5z"/>
	
		<linearGradient id="SVGID_2_" gradientUnits="userSpaceOnUse" x1="1115.6" y1="148.5999" x2="1115.6" y2="688.1" gradientTransform="matrix(1 0 0 1 0 165.5)">
		<stop  offset="0" style="stop-color:#1A1A1A"/>
		<stop  offset="1" style="stop-color:#595959"/>
	</linearGradient>
	<path fill="url(#SVGID_2_)" d="M2229.7,528.4l-732.9-1l-0.2-0.3l-10.5-17.5l34.8-0.3l-1.5-2.4l-34.8,0.3l-6.6-11l34.7-0.3l-1.5-2.4
		l-15.8,0.1l-7.7-12.3l10.5-0.5h13.9l-0.6-0.9h-13.9l-12.5,0.6l-16.2,0.6l-2.9-4.8l28.9-0.8l17.9-0.3l-1.5-2.4l-17.9,0.3l-28.8,0.8
		l-0.3-0.4l-13-23.8l15.8-0.2c0.7,1.6,1.8,3.4,3.2,4.4c0.5,0.3,1,0.8,1.6,1.3c1.8,1.6,4.6,4,10.3,6.5c7.4,3.3,19.7,7.3,20.3,7.5l1-2
		c-0.1,0-12.5-4.1-19.5-7.2c-4.8-2.2-7.1-4.1-8.9-5.7c-0.7-0.6-1.4-1.2-2-1.6c-1-0.7-2.4-3.6-3.1-5.9v-0.1l-44.3-93.6h-3.5
		l43.9,93.4c0.2,0.5,0.4,1.3,0.8,2.3L1451,449l-43.9-92.4h-2.9l43.5,92.5l-20.7,0.3l-42.7-93.9h-1.3l42.6,93.9l-124.4,1.8
		c-0.3-12.3-1.3-87.2-1.4-90.3h-1.7c0.1,3,1,77.9,1.2,90.3l-17,0.3l-0.6-16.8l-23.9,0.6l8.1-95.9h-1.7l-9.6,112.5l-7.7,0.1
		l9.6-116.5h-1.3l-9.8,116.4l-69.6,1l3.9-18.6l67-0.2l0.1-0.9l-156.5-0.2c29.2-65,53.3-118.2,53.9-118.8l-2.4-0.1
		c-0.1,0.1-24.3,53.6-53.8,118.9L0.9,432v0.9l1086.5,1.3c-5.5,12.3-11.2,24.9-17,37.7l-1069-1.2v1.8l1068.7,1.4
		c-16.5,36.7-33.5,74.5-47.9,106.8L1.4,537.4v0.9c125.1,7.9,859.3,33.8,1020.3,43.5c-22,49.2-38,85.5-37.7,86.2
		c1.1,1.9,3,3.7,9.6,3.7c3.3,0,11.9-0.2,19.4-0.5c6.1-0.2,11.8-0.4,13.5-0.3c2,0,5.8-0.4,10.3-0.8c2.2-0.2,4.6-0.5,6.7-0.7
		l-6.4,10.1c-8.2,0.8-15.6,1.5-17.9,1.8c-5.8,0.8-19.5,3.5-25.4,4.8c-3,0.7-8.9,2.6-15.2,4.5c-6.7,2.1-471.3,161.6-474.7,162.3
		l1.1,0.7c1.1-0.2,459.5-157.8,461.1-158.2l11.8,1.5l-5.5,16.2h0.2l-1,1.4c8.2-1,17.6-1.7,24-1.6c1.6,0,4,0.1,6.6,0.1
		c5.9,0.1,13,0.3,18.7,0.2l5-0.2c4.9-0.2,13.2-0.4,20.6-0.6c5.7-0.1,10.6-0.3,13.1-0.4c1.7-0.1,5.2-0.1,8.8,0c5.4,0,11.3,0.1,16-0.1
		l6-0.1l-0.3-0.4h0.3c1.6-0.3,3.8-0.6,6.2-1c7.3-1.2,16.4-2.7,21-3.9c1.2-0.3,2.8-0.7,4.6-1c6.4-1.4,15.1-3.3,19-6.2
		c2.3-1.8,6.1-3,10.3-4.5c3.3-1.1,7.1-2.4,10.5-4.1c7.6-3.8,16-9.1,16.3-9.3l11.5-6.7l0.2-0.2c2.8-2.8,6.5-6.1,7.5-6.6
		c1.5-0.5,6.6-1,17.5-1.7c5.1-0.3,11.1-0.6,16.7-0.8c1.7,7.4,6.4,12,10,15.3l1,0.9c3,2.8,3.9,6.2,4.2,7.7h0.2l-3.6,30.2l-6.5,10.6
		c0,0-3.9,7.7-7.6,13c-2,2.8-2.2,107.9-2.3,109.7h5.4c0-1.8,0.3-107,2.3-109.9c3.5-5.1,7.3-12.8,7.4-12.9l6.1-10.2l15.9-0.3
		c-0.1,1.1,4.5,5.5,5.9,6.8l45,47l4.2,79.4h5.3l-4-73.8l70.8,74l5.6-0.5l-76.8-80.2l-2.9-53.9l18.7-0.4l34.4-0.6l49.6-0.9h42.3
		l67.6,0.6h19c2.3,0,12.1-0.3,13.2-0.3c0.5,0,10.9-0.3,13.7-0.5c2.3-0.2,7.6-0.8,9.7-1.1l16.1,1.7l0.2,0.4l3.8,6.2
		c2.8,0.1,5.7,0.1,8.5,0.2l-3.6-5.7l-22.9-38.7l-7.4-12.2l23.8,0.5c0.7,0.1,1.2-0.7,0.8-1.3c-0.1-0.2-0.3-0.3-0.6-0.3l-25.1-0.7
		l-18.7-30.8c6.8-0.1-1.8-0.1,20.8,1.1c0.7,0,1.1-0.7,0.7-1.3l-0.5-0.7c-0.2-0.2-0.4-0.3-0.7-0.3c-18.4-0.6-14.3-1.2-21.8-1.1
		l-7.2-11.9l31.5-1.1h10l637-8V611l-647.7,7.3l-31.3,1.1l-10.7-17.7l-5.6-10.2L1514,553l25.9-1.4c0,0.6,0,1.2,0.2,1.9
		c0.4,2.4,4.6,8.3,4.8,8.5l9.4,12.8h2l-9.4-12.8c0,0-0.7-1-1.5-2.2l684.9-6.9V552l-685.5,6.8c-1.1-1.8-2.4-3.9-2.6-5.1
		c-0.2-1.1-0.2-1.9-0.2-2.7c0-1,0-1.8-0.3-3c-0.5-1.6-2.1-5.1-2.9-6.9h2.6l-1.5-2.4l-34.9,0.2l-6.1-9.2l731.3,1v-2.3L2229.7,528.4
		L2229.7,528.4z M1485.8,516.3l-39.4,0.6l-9.5,0.2l-3.4-7l48.4-0.4L1485.8,516.3L1485.8,516.3z M1480.5,507.2l-33.3,0.3l-5.2-10.8
		l31.9-0.4h0.1L1480.5,507.2z M1485.8,481.4h0.4l7.6,12.2l-17.3,0.1l-7-11.7L1485.8,481.4z M1472.7,493.8l-45.9,0.6h-2.5l-7-17.3
		l42.1-0.5l3.2-0.1L1472.7,493.8L1472.7,493.8z M1340.2,499.6l-37.7,0.7c-0.1-7.6-0.3-14.8-0.4-21.6h1.3l58.6-1.1l53.8-0.6l6.9,17.3
		l-60.9,0.5l-21.7,0.1L1340.2,499.6L1340.2,499.6z M1448.3,449.8l12.3,23.2l0.6,1.1l-3.1,0.1l-14.7,0.2l-12-24.3L1448.3,449.8
		L1448.3,449.8z M1430,450l11.9,24.3l-16.3,0.2l-10.3-24.3L1430,450L1430,450z M1413.9,450.2l10.2,24.3l-62.7,0.7l-58.2,1.1h-1.2
		c-0.2-9.2-0.4-17.4-0.6-24.5L1413.9,450.2L1413.9,450.2z M1301.5,576.4c0.5,4,1,5.7,1.7,6.4c-36,0.1-71.3,0.3-74.2,0.4
		c-1,0.1-2.1,0.1-3.3,0.2c0.5-0.4,3.1-2.8,5.5-4.8l39.7-1.1l20.1-0.9L1301.5,576.4L1301.5,576.4z M1302.7,511.7l29.7-0.2l1,10
		c-3.6,0.1-17.4,0.4-20.3,0.6c-2.3,0.2-7,1.7-10.1,2.7C1302.8,520.4,1302.8,516,1302.7,511.7L1302.7,511.7z M1305.3,585.2
		c0.4,1.4,0.9,2.6,1.2,3.5l0.1,0.2c0.2,0.4,0.3,0.7,0.3,0.9l0.1,0.2l1.6,3.6l-7,0.1l-11.1-0.5l-39.5,1.9l-11.6-0.1l-14.6-0.4
		l-0.1,0.3l-1-5.2l1.3-3.8c1.5-0.1,3-0.2,4.3-0.2C1231.9,585.5,1267.4,585.3,1305.3,585.2L1305.3,585.2z M1304.4,573.5l29.2-0.9
		l9.7-0.4h5.2l1.7,10.5c-12.5,0-27.4,0.1-42.5,0.1c-0.2-0.1-0.5-0.2-1-0.3l-0.7-0.1l-0.3-0.6
		C1305.2,580.5,1304.8,577.6,1304.4,573.5L1304.4,573.5z M1303.1,538l36-0.4l1.2,6.8h-0.2c-0.5,1.9-2,4.1-3.3,4.3
		c-1.3,0.1-3.5,0.2-6,0.2c-2.8,0-5.8,0.1-7.9,0.3c-3.7,0.4-10.8,0.5-13.7,0.5c-1.6,0-3.8,0.2-6,0.5
		C1303.2,546.4,1303.2,542.3,1303.1,538L1303.1,538z M1301.4,575.5l-10.5,0.1l-20.1,0.9l-38.5,1.1c1.2-1,2.2-1.9,2.7-2.3
		c0.6-0.5,1.6-1.3,2.7-2.3c0.5-0.4,0.9-0.8,1.4-1.2c0.3,0,5.1,0.1,9.6-0.2c2.1-0.1,4.9-0.5,7.6-0.8c3-0.4,6.2-0.7,8.1-0.8
		c4.1-0.2,12.4-2.7,14.5-3.6c2.8-1.1,3.4-4.5,3.4-6.2v-0.7c0-2.5-1.8-5.7-2.3-6.6c2-0.1,2.8-0.2,3.6-0.3c0.7-0.1,1.4-0.2,3.1-0.2
		c3.8-0.1,9-0.4,11.5-0.8c0.4-0.1,0.9-0.1,1.5-0.2c0.2,0,0.5-0.1,0.7-0.1C1300.6,563.3,1300.9,570.8,1301.4,575.5L1301.4,575.5z
		 M1280.4,559.6c0,3-1.1,5.4-2.8,6.1c-2.3,0.9-10.1,3.2-13.4,3.3c-2.1,0.1-5.2,0.4-8.4,0.8c-2.6,0.3-5.3,0.6-7.3,0.7
		c-3.3,0.2-6.8,0.2-8.4,0.2c1.1-0.9,2-1.7,2.5-2c1.7-1,6.4-5.6,8.4-7.8c2.1-2.5,6.3-8.5,7.2-10.5c0.2-0.4,0.3-0.8,0.5-1.2
		c0.6-1.5,1.1-2.8,2.3-3.3c0.4-0.1,0.9-0.3,1.4-0.6c1-0.4,2.1-1,3.2-0.9c0.6,0,1.2,0.2,1.9,0.6c2,1.2,3,2.8,3.7,4
		c0.5,0.8,0.7,1.2,1.1,1.4c0.1,0.1,0.3,0.2,0.4,0.4c0.7,0.7,2,2,5.6,2.2h-0.2C1278.1,553.1,1280.4,556.9,1280.4,559.6L1280.4,559.6z
		 M1299.1,550.7c-0.6,0.1-1.1,0.2-1.5,0.2c-2.3,0.3-7.3,0.6-11.1,0.7c-1.8,0.1-2.7,0.2-3.4,0.3c-0.8,0.1-1.7,0.2-4.2,0.3
		c-3,0-3.9-0.9-4.6-1.7c-0.3-0.3-0.4-0.5-0.7-0.6c-0.2-0.1-0.5-0.6-0.7-1c-0.7-1.2-1.8-3-4-4.3c-1-0.6-2.1-0.9-3.2-0.9
		c-1.9,0-3.4,0.6-4.6,1.2c-0.4,0.2-0.8,0.4-1.2,0.5c-1.9,0.6-2.4,2.1-3.1,3.8c-0.1,0.4-0.3,0.8-0.5,1.2c-0.9,2-5.1,7.9-7.2,10.4
		c-2,2.4-6.7,6.8-8.1,7.6c-1,0.6-2.8,2.1-5.2,4.3c-1.1,1-2.1,1.8-2.7,2.3c-0.6,0.4-1.8,1.5-3.3,2.8h-0.7v0.6
		c-2.5,2.2-5.3,4.6-5.5,4.8l-0.2,0.4h-0.1c-4.4,0.3-9.8,0.6-11.8,0.4c-1.2-0.1-6.2-0.4-12.3-0.7c-0.1-1.1-0.2-2.6,0-3.7
		c0.1-0.4,0.1-0.7,0.1-1c0.1-1.2,0.1-1.7,2.3-3.2c1.4-1,2.4-1.5,4-2.3s3.8-1.9,7.4-4c7.3-4.4,11.3-6.6,13.5-7.3
		c0.3-0.1,0.7-0.2,1.2-0.4c3.5-1.1,9.9-3.2,12.3-5.1c2.6-2,9.2-6.2,9.4-6.3l9.1-7.6l2.7-3.7l38.9-0.7c0,4.6,0,8.8,0.1,12.5
		C1300,550.6,1299.5,550.6,1299.1,550.7L1299.1,550.7z M1118.4,634.7c-0.1,0.2-0.2,0.5-0.3,0.8l-50.5,0.1l27-50.6h0.8
		c4.7-0.1,9.3-0.2,12.3-0.2h22.3l-0.5,2.5c-5,27.3-7.7,41.2-8.3,42.6C1120.3,632.1,1118.5,634.5,1118.4,634.7L1118.4,634.7z
		 M1180.2,472c1.3,0.4,2.9,1.3,3.3,2.2c0.1,0.3,0.3,0.6,0.4,1c0.5,1.5,1.1,3.3,3.5,4c1.8,0.6,5.6,0.9,11.2,0.9h1.3
		c2.1,0,8.1-0.2,30.6-0.4l-0.9,12.1l-32.8,0.1l-0.2,0.9l33-0.1l-0.7,8.9l-17.6,0.3l-36.8,0.3l-10.2,0.1l1.8-13l5.1-17h0.4
		C1175.1,472,1179.4,471.9,1180.2,472L1180.2,472z M1276,503.2l-1.3,13.3c-1.4,0-2.3-0.1-2.6-0.1c-1.2-0.3-5.5-0.4-6.5-0.4
		l-14.4,0.5c0.4-4.5,0.7-9.1,1-12.9L1276,503.2z M1252.3,501.2c0.1-1.7,0.2-3.3,0.3-4.5l1.6-17.3c8.3-0.1,15.9-0.2,22.5-0.3
		l-0.5,21.5v0.1L1252.3,501.2L1252.3,501.2z M1274.5,517.4l-0.8,7.6l-7.9,0.4l-0.7,10.9l-16.1,0.3v-0.5c0.6-4.5,1.3-11.6,1.9-18.7
		l14.4-0.5c2,0,5.2,0.2,5.9,0.3C1271.6,517.3,1272.7,517.3,1274.5,517.4L1274.5,517.4z M1250.2,496.9c-0.1,1.3-0.2,2.8-0.3,4.4
		l-19.3,0.3l1.5-21.9c2.1,0,4.4,0,6.9-0.1c4.5,0,8.9-0.1,13.1-0.1L1250.2,496.9L1250.2,496.9z M1249.7,503.7
		c-0.1,0.8-0.1,1.7-0.2,2.5c-0.3,3.3-0.5,6.8-0.8,10.3l-23,0.3l-9.6,0.2l2.6-12.8L1249.7,503.7z M1211.2,543.4l0.8-4.2l33.6-0.3h0.8
		c-0.2,1.1-0.3,2.2-0.5,3.2c-0.2,0.8-0.5,1.6-0.9,2.3l0.1-1.6L1211.2,543.4z M1161.5,544.2l-41,0.4l1.7-4.2l42.7-0.8l-1.8,4.5
		L1161.5,544.2L1161.5,544.2z M1162.4,546l-8,22.2l-17.5-0.2l6.3-11.9l1.6-9.9l16.2-0.2L1162.4,546L1162.4,546z M1123.2,538.1
		l13.6-33.4l36.9-0.2h2.2l-6,19.4l-18,0.2l-0.3,0.9l18.1-0.2l-3.8,12.5L1123.2,538.1L1123.2,538.1z M1166.7,539.7l15.7-0.3l27.6-0.2
		l-0.8,4.2l-23,0.4l-21.3,0.3L1166.7,539.7L1166.7,539.7z M1183,537.1l-15.4,0.3l9.9-32.8l33.2-0.2l6.3-0.1l-2.7,12.8l-24.7,0.6
		l-0.2,0.9l24.7-0.6l-1.4,6.6l-2.3,12.3L1183,537.1L1183,537.1z M1245.7,536.6l-33.3,0.3l2-10.8l33.5,0.3c-0.4,3.6-0.8,7-1.2,10.2
		H1245.7z M1214.5,525.2l0.1-0.6l1.3-6.7l9.7-0.2l23-0.3c-0.2,2.7-0.5,5.4-0.7,8L1214.5,525.2L1214.5,525.2z M1164.5,489.3
		l-1.9,12.9l-24.6,0.1c1.1-1.2,2.9-3.3,3.5-3.9c0.5-0.6,1.3-2.4,2.5-5.3c0.7-1.5,1.3-3,1.6-3.5c0.1-0.1,0.2-0.3,0.3-0.6
		c0.8-1.7,1.8-5.6,1.9-5.8c0.3-2.7,0.9-7.1,1.4-7.9c0.1-0.2,0.6-1.4,1.3-3.2c2-0.2,3.9-0.4,4.7-0.4c1.4,0,10.7-0.1,14.7-0.2
		L1164.5,489.3z M1147.7,475.2c-0.7,1.2-1.4,7.5-1.5,8.2c-0.5,1.8-1.5,5.3-2.1,6.2c-0.3,0.5-0.9,1.9-1.6,3.5c-0.8,1.9-1.9,4.5-2.4,5
		c-0.6,0.7-2.7,3-3.8,4.2h-6.2l-1.1,2.4h4.3l-3.5,8.5c-1,0.5-6.7,3.2-10.7,5.1l17.4-45.4c1.8,0,7.5,0.1,9-0.1c0.9-0.1,2-0.3,3.2-0.4
		C1148.2,474,1147.8,475.1,1147.7,475.2L1147.7,475.2z M1128.8,515.9l-10.1,24.2l-9.6,23.5l-4-0.4c-3.5-0.5-8.6-1.2-11.8-1.7h0.8
		l7-19.8l7.6-17.6c2.6-0.7,7.1-2,9.2-3C1119.6,520.3,1125.1,517.6,1128.8,515.9z M1099.2,541.7l-7.1,19.6c-1-0.2-1.7-0.3-2-0.4
		c-1.4-0.4-11.6-1.2-13.8-1.4l-12.9-0.5l10.8-20.1l2.8-4.9l29.5-9.5L1099.2,541.7L1099.2,541.7z M1075.7,560.4
		c5.8,0.4,12.4,1.1,13.1,1.3c1.4,0.4,13.9,2.2,15.3,2.3l4.5,0.5v0.1h1l2.5,0.3l0.3-0.3h0.2l0.1-0.3l0.3-0.3h-0.1l7-17.5l23.2-0.3
		l-1.7,9.9l-6.3,11.8h1l-13.5-0.1l-0.2,0.4l-7.3,15.7h-6.3c-4.8,0-19.2,0.3-23.3,0.8h-0.4c-3.3,0-19.2-1.3-32.7-2.3l-0.6-0.1h-0.6
		l12.1-22.5L1075.7,560.4z M1084,585.5c0.7,0,1.2,0,1.6-0.1c0.6-0.1,2.1-0.2,4.2-0.3l1.5-0.1l-33.4,61.2l-43.6-0.1l36.6-62.5
		C1071.6,584.8,1083.6,585.5,1084,585.5L1084,585.5z M1130.9,591c0.5-2.6,0.8-4.6,1-5.5l0.2-0.8l14.7-0.1l23.2-1.3l0.4-0.6
		l-22.8,1.2h-1.3c-14.4,0.1-23.5,0.1-29.2,0.1l7-15.3l30.1,0.3l-0.2,0.6l-5.4,13.8h2l5.3-13.8l8.4-23.7l21.6-0.3l9.8-0.2
		c-0.2,1.3-0.7,4.9-1.4,7.9c-0.5,2.4-1,6.6,1.7,8.4c2.1,1.4,8.6,3.2,8.8,3.3l1.1-0.8c-0.1,0-6.4-1.8-8.3-3c-1.8-1.2-2.3-4.1-1.4-7.9
		c0.7-3,1.2-6.6,1.4-7.9l47.3-0.8c-2.6,4.2-8.9,6.4-12.3,7.6l-1.9,0.7c-6,2.1-12.3,4.3-15.4,6.3c-2.5,1.6-7.6,4.5-10.6,6.3
		c-1.2,0.7-2.3,1.3-2.4,1.4l-21.9,15l2.5,0.3l22.4-15.5c0,0,0.4-0.2,0.9-0.5c2.2-1.3,9-5.2,12-7.1c3.3-2.1,9.7-4.6,16.4-6.5
		c13-3.7,14.1-12,14.1-12.1v-0.2l0.2-0.2c0-0.1,0.1-0.6,0.2-1.3l10.7-0.2l-2.4,3.3l-9,7.4c-0.3,0.2-6.7,4.3-9.4,6.3
		c-2.3,1.7-8.6,3.8-11.8,4.8c-0.5,0.2-0.9,0.3-1.2,0.4c-2.4,0.8-6.4,3-14,7.5c-3.5,2.1-5.7,3.2-7.3,4c-1.7,0.8-2.8,1.4-4.3,2.4
		c-2.5,1.7-2.5,2.4-2.6,3.7c0,0.3-0.1,0.6-0.1,1c-0.2,1.1-0.1,2.5,0,3.6c-11.1-0.5-24.7-1.2-25.5-1.3l-1.2,2.3
		c0.4,0,36.3,1.7,39.6,2c1.1,0.1,2.5,0.1,4.1,0.1l-9.1,36.5l-65.1,8.1l-5.5-5.3l-8.4-3.3l-1,0.4
		C1126.9,613.9,1129.5,598.8,1130.9,591L1130.9,591z M1300.3,526.1v9.5l-33.3,0.6l0.6-10l7.9-0.4l0.8-8.3c6.4,0.1,17.4,0.2,24,0.3
		c0,2.7,0,5.3,0.1,8c-0.1,0.1-0.3,0.1-0.3,0.1L1300.3,526.1L1300.3,526.1z M1300.2,516.8c-7.9-0.1-18.1-0.2-23.9-0.3l1.3-13.3
		l22.5-0.4C1300.1,507.3,1300.2,512,1300.2,516.8L1300.2,516.8z M1300.1,500.4l-22.2,0.4l0.4-21.6c9.9-0.1,17.5-0.3,21.6-0.4
		C1299.9,485.6,1300,492.8,1300.1,500.4z M1282.6,452.1l16.9-0.2c0.1,7.1,0.2,15.3,0.3,24.5c-3.6,0.1-9.9,0.2-18.1,0.4L1282.6,452.1
		L1282.6,452.1z M1258,436.1l22.6-0.5l0.5,15.9l-24.3,0.4L1258,436.1L1258,436.1z M1256.7,452.5h0.9l23.5-0.3l-0.4,11.5l-10.8,0.4
		l-14.3,0.8L1256.7,452.5L1256.7,452.5z M1255.5,465.7l14.4-0.8l10.7-0.4l-0.5,12.2c-7.3,0.1-16,0.3-25.7,0.3L1255.5,465.7
		L1255.5,465.7z M1225.3,453l29.4-0.4l-1.3,12.4v0.3l-1.2,11.8c-4.2,0.1-8.5,0.1-13,0.1h-1.9l3.8-24.4h-1.4l-3.9,24.4
		c-4.2,0-7.8,0.1-11.1,0.1c0.3-1.2,0.8-3.2,1.2-5c0.3-1.4,0.5-2.6,0.5-3.3v-0.4c0-1.9-0.1-5.5-0.9-7.7s0.6-8,0.6-8L1225.3,453
		L1225.3,453z M1224.7,453c-0.1,0.4-1.5,6.1-0.6,8.4c0.8,2,0.8,5.6,0.8,7.5v0.4c0,1.4-1.2,6.2-1.7,8.2c-16.2,0.2-21,0.3-22.8,0.4
		h-1.1c-6.9,0-8.9-0.5-9.4-0.6c-1.1-0.3-1.6-1.7-1.9-2.8c-0.2-0.5-0.3-0.9-0.5-1.2c-1-1.8-3.9-2.9-4.8-3.2
		c-1.6-0.5-6.8-0.3-10.1-0.1l3.4-16.2L1224.7,453L1224.7,453z M1177.4,434.4l-7.8,36.3c-4.2,0.1-12.7,0.2-14.1,0.2
		c-0.9,0-2.8,0.2-4.8,0.4c3.6-9.5,12.1-32.5,13.6-36.8L1177.4,434.4L1177.4,434.4z M1163.1,434.4c-2.4,6.5-10.5,28.1-13.9,37
		c-1.6,0.2-3,0.4-3.5,0.5c-1.1,0.2-5.7,0.1-8.7,0.1l14.4-37.5L1163.1,434.4z M1090.2,434.3l59.4,0.1l-14.8,37.7l-61.5-0.1
		C1079,459.3,1084.7,446.6,1090.2,434.3z M1072.4,473.9l61.6,0.1l-17.9,45.6l0.5-0.1c-0.4,0.2-0.7,0.3-0.9,0.4
		c-2,0.9-7.7,2.5-9.8,3.1l-27.4,8.8l6.3-10.8l14.9-11.8l2.8-4.4h-1.2l-3.1,4.8l-15.2,11.9l-6.4,10.8l-0.7,1.3l-3.4,5.8l-23.4,42.8
		l-24.5-1.5C1039,548.5,1055.9,510.7,1072.4,473.9L1072.4,473.9z M1036.5,669.2c-3.9,0.4-7.9,0.8-9.4,0.8c-1.8,0-7.3,0.1-13.7,0.3
		c-7.5,0.2-16,0.5-19.1,0.5c-4.9,0-6.6-1.3-7.6-3.2c-0.3-0.5,15.7-36.6,37.5-85.7c9.1,0.6,17.3,1,24.5,1.5l-37.3,63.6l46,0.1
		l-1.4,2.5l-11.9,18.8C1041.9,668.7,1039.2,669,1036.5,669.2L1036.5,669.2z M1047.9,669.2h0.2c2.4,0.1,6.9-0.3,11.3-0.6
		c2.6-0.2,5.3-0.4,6.3-0.4c2.9,0,16.3-0.7,17.2-0.8c1-0.1,23.5-3.1,27.5-3.8c2.6-0.4,6.9-0.5,8.8,0c0.3,0,0.7,0.2,0.7,0.3
		c0.1,1-0.8,4.2-0.8,4.2l4.3,5.1l2.5-0.3l-4.2-4.9c0.1-0.5,0.8-3.3,0.8-4.2c0-0.3-0.3-0.7-1.8-0.9c-2.6-0.5-7.6-0.5-11,0
		c-4,0.6-27.1,3.7-27.1,3.7c-3.8,0.2-14.2,0.8-16.4,0.7c-1.4,0-4,0.2-7,0.5c-3.7,0.3-8.3,0.7-10.2,0.6h-0.5l11.8-19l1.1-2l5.3-9.9
		l50.7-0.1c-1.1,2.8-2.7,6.7-3.5,8.3c-0.3,0.9-1.6,12.9-1.9,16.5l2.6-0.1c0.3-3.4,1.4-16.1,1.8-16.8c0.9-1.8,2.9-6.7,4.4-10.8
		l0.1-0.2c0.3-0.4,1.9-2.6,2.8-4.8c0.2-0.5,0.7-2.8,1.4-6.2l7.4,2.8l16.7,16.1l30,27.9l-2.7-0.1l-29.3,1.9l-27,1.9l-28.5,1.7
		l-27.9,1.6c-0.8,0.1-11.4,1-22.1,2.1L1047.9,669.2L1047.9,669.2z M1021.6,711.6c-5.3,0.1-12.5,0-18-0.2c-2.8-0.1-5.2-0.1-6.9-0.1
		c-6.5-0.1-13.5,0.3-21.4,1.2l5.4-16l-12.2-1.6c3.5-1,7.6-2.3,11.7-3.5c5.9-1.8,12-3.8,14.8-4.4c6.3-1.4,19.5-4,24.8-4.7
		c2.1-0.3,9-1,16.8-1.7L1021.6,711.6L1021.6,711.6z M1185.4,674.1l-11.5,6.6c-0.1,0.1-8.6,5.5-16.1,9.1c-3.2,1.5-6.6,2.7-9.9,3.9
		c-4.5,1.5-8.8,3-11.6,5.1c-3.2,2.3-10.7,4-16.8,5.3c-1.8,0.4-3.6,0.8-5,1.1c-4.1,1-13.2,2.6-19.9,3.7c-2.5,0.4-4.7,0.8-6.3,1.1
		c-3.2,0.6-12.6,0.5-18.9,0.4c-4,0-7.5-0.1-9.7,0s-7.3,0.2-12.7,0.4c-7.2,0.2-15.2,0.4-20.4,0.6l14.6-31.3
		c11.3-1.1,22.6-2.1,22.8-2.1l27.8-1.6l28.6-1.7l27.1-1.9l28.9-1.9l3.9,0.2l0.1,0.1l0.4-0.1l7.5,0.3
		C1187.3,672.2,1186.4,673.1,1185.4,674.1L1185.4,674.1z M1231.5,648.9l-0.1,0.8c-0.4,6-0.4,10.5-0.1,13.6c0,0.2,0.1,0.4,0.1,0.5
		c-5.6,0.2-11.8,0.5-16.9,0.8c-14.3,0.9-17.9,1.4-20.2,2.1c-1,0.3-2.8,1.6-5.2,3.7l-7-0.3l-30.7-28.4l-3.3-3.2l84.7-2.5
		C1232.4,639.2,1231.8,644,1231.5,648.9z M1233.2,632.7c-0.1,0.4-0.2,1.3-0.3,2.4l-85.7,2.6l-6.3-6l70.2-8.7l23.4-0.5L1233.2,632.7
		L1233.2,632.7z M1210.9,622.1l-3.5,0.4l8.8-36.2c2-0.1,4.2-0.2,6.5-0.3l-1.3,3.7l1.3,7l7.8,8.2l2-0.4l-7.7-8l-0.2-1l14.4,0.4
		l11.8,0.1l39.5-1.9l11.1,0.5l7.4-0.1l3.7,8.4v0.2l-0.2,14c-8.9-0.4-18.3-0.8-26.4-1.2c-5.9-0.3-11.1-0.5-15-0.7
		c-12.6-0.6-25.7-0.2-31.9,0l1.1-9.2h-3.5l-2,15.7L1210.9,622.1L1210.9,622.1z M1312.3,619.4l-0.1,8l-14.2,0.4l-8.9,1.6l-8.8,0.6
		l-43.2,0.9l1.6-13.4c5.6-0.2,19-0.7,31.4,0c3.9,0.2,9.2,0.4,15.2,0.7C1293.7,618.5,1303.3,618.9,1312.3,619.4L1312.3,619.4z
		 M1235.6,663.3c-0.4-3.2-0.4-8-0.1-14.4l0.1-0.8c0-0.5,0.1-1,0.1-1.6l75.4-1.3l-0.2-0.9l-75.2,1.3c0.5-6.3,1.1-11.8,1.3-13l0.1-0.8
		l43.5-0.9l9.1-0.6l8.7-1.6l13.8-0.4l-0.3,20.1v0.9l-0.1,4.6v7.6l-15.5,0.2c-1.8,0-17.2,0.5-21.2,0.9c-2.6,0.3-7.5,0.4-10.1,0.5
		c-0.1-0.1-0.1-0.2-0.2-0.3c-1.4-2.2-2.9-8.6-2.9-8.7l-4.9,0.2c0.1,0.3,1.5,6.4,2.9,8.8l-12.2,0.1c-0.1,0-5.3,0.2-12.1,0.4
		C1235.7,663.5,1235.7,663.4,1235.6,663.3L1235.6,663.3z M1266.1,664.9c2.9-0.1,7.6-0.2,10.3-0.5c3-0.3,15.8-0.7,20.3-0.8l15.1-0.2
		l0.1,11l-44.6,0.4c0.6-1.4,1-2.7,0.9-3.5C1268.1,669.7,1267.1,667.1,1266.1,664.9L1266.1,664.9z M1266.8,675.7l45.1-0.4l0.1,13.3
		l-50.6-1.3c0.5-2.4,1.7-5,2.9-6.9C1264.9,679.3,1266,677.5,1266.8,675.7L1266.8,675.7z M1264.6,718l-15.9,0.3l2.9-27.9
		c0-0.5-0.4-4.8-4.3-8.4l-1-0.9c-3.5-3.2-8.5-8-10.3-15.6c6.7-0.3,11.8-0.4,11.9-0.4l13.1-0.1c1.1,2.3,2.1,5,2.1,6.4
		c0.1,1.4-1.4,4.6-3.9,8.7c-1.6,2.5-3.3,6.3-3.3,9.3c0,2.9,2.9,8.4,3,8.5c0.2,0.6,4.9,15.8,5.7,17.6
		C1264.9,716.3,1264.8,717.2,1264.6,718L1264.6,718z M1264.2,697.6c0-0.1-3-5.6-3-8.3v-0.2l50.8,1.3v11.2l-24.5-0.5h-22.2
		C1264.6,699.1,1264.2,697.7,1264.2,697.6L1264.2,697.6z M1265.6,702h21.8l24.6,0.4l0.1,14.6l-13,0.3l-28.9,0.5
		c0.2-0.8,0.3-1.8-0.2-2.7C1269.5,714.1,1267.2,706.8,1265.6,702z M1275.5,726.1c-2.8-2.6-5.7-5.7-5.7-6.3v-0.2l29.8-0.5l12.6-0.3
		l2.5,48.1L1275.5,726.1L1275.5,726.1z M1312.3,594.5l31.3-0.4l2.7,25.7c-1-0.1-2.1-0.3-3.1-0.4c-5.4-0.8-15.7-1.5-27.1-2.1V603
		L1312.3,594.5L1312.3,594.5z M1497.5,635.6c6.1,0.5,12.2,0.8,19.5,0.6l14.4,28.3l-22.1-0.6L1497.5,635.6z M1513.5,686.4l-41,0.1
		l-9.1-22.2c5,0.2,24.8,0.9,27.8,1c2.4,0,9.8,0.2,13.7,0.3L1513.5,686.4L1513.5,686.4z M1504.3,663.8c-4-0.1-11.3-0.3-13.8-0.3
		c-2.6,0-20.3-0.7-27.7-1l-9.9-30.3c12.1,0.9,25.2,1.9,32.2,2.4c2.2,0.2,4.3,0.4,6.3,0.5c0.4,0,0.9,0.1,1.3,0.1L1504.3,663.8
		L1504.3,663.8z M1373.4,639.8l-2.3-14.9c2.2,0.2,4.4,0.5,6.5,0.8c4.6,0.6,6.4,1.1,8.1,1.6c2.6,0.7,4.7,1.2,9.7,1.6l10,34h-1.4
		c-0.7,0-5.1-0.2-8.9-0.4c-7.2-0.3-15.3-0.8-18.5-0.8l-15.1-0.1l-4.7-21.9L1373.4,639.8L1373.4,639.8z M1316,638.6v-19
		c10.8,0.6,20.4,1.2,25.3,2c7.3,1.1,14.2,1.8,20.9,2.5c2.3,0.2,4.4,0.4,6.6,0.7l2.1,14.2L1316,638.6L1316,638.6z M1401.7,629.3
		c5.2,0.3,9.7,0.4,14.1,0.6c5.4,0.2,10.5,0.4,16.3,0.8c3.9,0.3,9.6,0.7,16,1.1l3.4,10.7l-22.9,0.1l-4.1-8.6l-21.2,0.2L1401.7,629.3
		L1401.7,629.3z M1403.5,635.1l19.1-0.1l4.1,8.6l25.2-0.1l6.1,19.1c-6.5,0.1-19.2,0.3-22.2,0.4h-23.6L1403.5,635.1z M1485.2,632.2
		c-11.7-0.9-40.7-3.1-52.8-3.9c-6.1-0.4-11.3-0.6-16.8-0.8c-4.6-0.2-9.3-0.3-14.7-0.6l-10.1-33h10.9l70.5-0.6l7.4,21.5
		c0.1,0.1,9.2,14.9,9.7,16c0.1,0.2,0.4,1.2,0.6,1.8C1488.4,632.5,1486.9,632.3,1485.2,632.2z M1394.7,626.4
		c-3.1-0.3-4.4-0.6-5.9-1.1c-1.9-0.5-4.3-1.1-9.7-1.9c-2.8-0.4-5.6-0.7-8.4-1l-4.4-28.5l18.8-0.1L1394.7,626.4z M1368.4,622.2
		c-1.7-0.2-3.4-0.4-5.2-0.5c-4.8-0.5-9.7-1-14.7-1.6l-2.9-26l18.6-0.1L1368.4,622.2z M1316,654v-14.5l36.2,0.2l4.5,21.9h-40.5
		L1316,654z M1316.1,663.4h41l0.1,0.5l2.7,24.2c-1.8,0.1-3.4,0.2-4.7,0.3c-4.6,0.3-11,0.3-16,0.4c-3,0-5.5,0-7.4,0.1
		c-3.6,0.1-11.6,0-15.1-0.1L1316.1,663.4z M1335.3,716.6L1317,717l-0.4-26.5c3.8,0.1,11.8,0.2,15.8,0.1c1.6-0.1,4.1-0.1,6.9-0.1
		c5.3,0,12,0,17.2-0.4c1-0.1,2.2-0.1,3.5-0.2l2.7,26.3L1335.3,716.6L1335.3,716.6z M1362.1,663.9l-0.1-0.5l15,0.1
		c2.8,0,11.6,0.4,17.9,0.8c5.6,0.3,8.5,0.4,9.5,0.4c2.5,0,27.9,0.1,32.1,0c3-0.1,15.3-0.3,22-0.4l8.8,22.2l-52.8,0.3
		c-0.2,0-24.7,0.5-29.3,0.6c-4.4,0.1-12.8,0.2-20.2,0.5L1362.1,663.9L1362.1,663.9z M1365.2,689.7c7.8-0.3,17.2-0.4,20.7-0.5
		c4.7-0.1,28.5-0.6,29.4-0.6l52.8-0.3l2.9,7.3l-73.3,2.3l-1.6,4l-29.5,0.4L1365.2,689.7L1365.2,689.7z M1461.4,715.1H1419l-49.5,0.9
		h-1.3l-1.5-12.9l31.8-0.4l1.6-4l71.2-2.3l7.5,18.8L1461.4,715.1L1461.4,715.1z M1473.3,688.3l40.9-0.1l6.3,15.2l-41.1-0.1
		L1473.3,688.3L1473.3,688.3z M1484.4,715.3l-4.6-11.1l41.1,0.2l4.7,11.3L1484.4,715.3z M1573.2,715c-2.1,0.1-10.1,0.4-13.1,0.5
		c-4.1,0.1-11.1,0.3-12.5,0.3h-16.4l-6.9-16.3l43.2-0.7l10.4,15.7C1576,714.7,1574.2,714.9,1573.2,715z M1600.1,715.5l-16.3-1.7
		l-0.8,0.1c-0.6,0.1-1.5,0.2-2.6,0.3l-10.3-15.5l20.3-0.3L1600.1,715.5L1600.1,715.5z M1579.3,679l10.5,18.5l-65.9,1.1l-4.4-10.3
		h1.7c0.1,0,9.1,0.2,14.9,0.4c4.3,0.2,16.9,1,27,1.6c3.7,0.2,7.2,0.5,10.1,0.6l-0.2-1.8c-2.8-0.2-6.3-0.4-10-0.6
		c-10.7-0.7-22.8-1.5-27.3-1.7c-6-0.2-14.9-0.4-15.4-0.4h-1.6l-4.3-10.3l63.6,0.7L1579.3,679L1579.3,679z M1577.5,676l-63.5-0.7
		l-4-9.5l62.4,1.6L1577.5,676z M1571.4,665.5l-37.5-1l-14.6-28.4c2.5-0.1,5.1-0.2,7.9-0.3c8.5-0.3,17.9-0.6,26.3-0.9L1571.4,665.5
		L1571.4,665.5z M1552.1,632.5c-8.6,0.2-18.1,0.6-26.8,0.9c-3.2,0.1-6.2,0.2-9,0.3c-3.5,0.1-6.6,0.1-9.6,0c-0.6-2.5-1.6-6.2-1.2-7.1
		c0.2-0.4,0.9-1.1,1.7-1.9l1.3-1.3l39.3,1.8L1552.1,632.5L1552.1,632.5z M1536.3,541.2c0.8,1.8,2.3,5.3,2.8,6.8
		c0.3,1.1,0.3,1.9,0.3,2.8l-26.4,1.5l-0.8-1.4l-6.3-9.4L1536.3,541.2z M1507.1,550.2l0.1,0.2l-119.2,2.4l0.8,2.4l119.7-2.4l20,38.2
		l5.4,10.3l13.5,23l-38.1-1.8c1-1.2,1.6-2.4,1.2-3.3c-0.9-1.9-7.4-16.5-7.4-16.6h-2.2c0.1,0.2,6.4,14.7,7.3,16.7
		c0.6,1.2-1.6,3.4-3.2,5c-0.9,0.9-1.6,1.6-1.8,2c-0.6,1.2,0.7,5.5,1.1,7.3c-4-0.2-7.8-0.5-12.1-0.9c-0.2-0.7-0.6-1.8-0.7-2
		c-0.5-1.1-9.5-15.4-9.8-16l-13.7-39.4l12.1,0.2l-0.3-0.9l-13.2-0.2l-18.6-2.7l-28.7-3l-29.3-3.6l-0.3,0.9l29.4,3.6l28.7,3l18.3,2.7
		l5.8,17.1l-70.5,0.6l-56.2,0.2l-33.4,0.4l-1.6-3.6c0-0.2-0.2-0.6-0.4-1.2c-0.3-0.8-0.8-2.2-1.2-3.6c26.8-0.1,54.3-0.1,71.8-0.2
		c0.6,1,1.8,2.3,4.3,3.1c3.4,1,8.8,1.6,11.7,1.8l0.3-2.4c-3.1-0.2-7.2-0.7-9.2-1.3c-1.2-0.4-2-1.6-2.2-2.4l-0.3-1.2h-2.8
		c-1.7,0-13.6,0-30.1,0.1l-1.9-11.4h-7.3l-38.8,1.3c-0.4-5.2-0.8-12.4-1-21.5c2.2-0.3,4.5-0.5,6-0.5c2.7,0,10-0.1,14.1-0.5
		c1.9-0.2,4.8-0.2,7.6-0.3c2.5,0,4.9-0.1,6.3-0.2c1.9-0.2,3.1-1.6,3.8-2.9l37.9,0.3l-0.5-2.4l-33.3-0.3l-2.9-15.2h34.3l-0.5-2.4h-34
		l-0.8-10.6l26.8-0.5l-0.5-1.8l-29.9,0.6l0.8,12.4h-1.4l1.5,8.5l-35.6,0.4c-0.1-3.3-0.1-6.5-0.2-9.7c3.3-1.1,8.4-2.8,10.4-2.9
		c3.2-0.2,20.8-0.6,21-0.6h0.8l-1.1-10.9l32.3-0.3l-0.4-1.8l-63.3,0.5c0-2.4-0.1-4.8-0.1-7.1l42.1-0.8l-0.2-4.6l17.8-0.1l65.5-0.5
		l12.7-0.2l5.1,10.8l-79.1,0.6l0.6,2.4l64.8-0.5l3.4,7.1l-61.1,1l0.5,1.8l72.7-1.2l39.5-0.6l4.9,8.4L1507.1,550.2L1507.1,550.2z"/>
</g>
<g id="ripple">
	
		<circle fill="none" stroke="#AFDD48" stroke-width="2" stroke-linecap="round" stroke-miterlimit="10" cx="1254.4" cy="535.9" r="198.5"/>
	
		<circle fill="none" stroke="#AFDD48" stroke-width="2.5" stroke-linecap="round" stroke-miterlimit="10" cx="1254.4" cy="535.9" r="131.1"/>
	<circle fill="none" stroke="#AFDD48" stroke-linecap="round" stroke-miterlimit="10" cx="1254.4" cy="535.9" r="274.4"/>
	
		<circle fill="none" stroke="#AFDD48" stroke-width="0.5" stroke-linecap="round" stroke-miterlimit="10" cx="1254.4" cy="535.9" r="357.6"/>
</g>
<g id="phone">
	<g opacity="0.65">
		<path fill="#C4C4C3" d="M1259.5,515.1c0.3-0.2,0.3-0.6-0.1-0.8l-1.9-1c-0.3-0.2-0.9-0.2-1.2,0.1l-1.7,1.3
			c-0.3,0.2-0.3,0.6,0.1,0.8l1.9,1c0.3,0.2,0.9,0.2,1.2-0.1L1259.5,515.1z M1273,518.5l6.5-4.8c0.3-0.2,0.3-0.6-0.1-0.8l-7.1-3.9
			c-1.5-0.8-3.8-0.6-5.1,0.4l-6.5,4.8c-0.3,0.2-0.3,0.6,0.1,0.8l7.1,3.9C1269.3,519.7,1271.6,519.5,1273,518.5z"/>
	</g>
	<g>
		<path fill="#B2D935" d="M1257.7,512.5c-0.3-0.3-0.9-0.3-1.2,0l-1.8,1.8c-0.3,0.3-0.3,0.9,0,1.2l1.8,1.8c0.3,0.3,0.9,0.3,1.2,0
			l1.8-1.8c0.3-0.3,0.3-0.9,0-1.2L1257.7,512.5z M1264.5,499.3l-6.8-6.8c-0.3-0.3-0.9-0.3-1.2,0l-6.8,6.8c-1.4,1.4-1.4,3.7,0,5.1
			l6.8,6.8c0.3,0.3,0.9,0.3,1.2,0l6.8-6.8C1265.9,503,1265.9,500.7,1264.5,499.3z"/>
	</g>
	<path fill="#9CC34C" d="M1149.8,346.4h208v370.2h-208V346.4z"/>
	<path fill="#3E3E3D" d="M1340,789h-172.2c-20.2,0-36.6-16.4-36.6-36.6V309.8c0-20.2,16.4-36.6,36.6-36.6H1340
		c20.2,0,36.6,16.4,36.6,36.6v442.7C1376.6,772.7,1360.3,789,1340,789z"/>
	<g>
		<path fill="#FFFFFF" d="M1221.2,320.9c-1.8,0-3.3-1.5-3.3-3.3s1.5-3.3,3.3-3.3s3.3,1.5,3.3,3.3
			C1224.4,319.5,1223,320.9,1221.2,320.9z M1221.2,315.4c-1.3,0-2.3,1-2.3,2.3s1,2.3,2.3,2.3s2.3-1,2.3-2.3
			C1223.4,316.4,1222.4,315.4,1221.2,315.4z M1254.1,303c-2.8,0-5.1-2.3-5.1-5.1s2.3-5.1,5.1-5.1s5.1,2.3,5.1,5.1
			S1256.9,303,1254.1,303z M1254.1,293.8c-2.2,0-4.1,1.8-4.1,4.1c0,2.2,1.8,4.1,4.1,4.1c2.2,0,4.1-1.8,4.1-4.1
			C1258.2,295.7,1256.4,293.8,1254.1,293.8z M1273.1,320.2h-38.7c-1.4,0-2.5-1.2-2.5-2.7s1.1-2.7,2.5-2.7h38.7
			c1.4,0,2.5,1.2,2.5,2.7C1275.5,319,1274.4,320.2,1273.1,320.2z M1234.3,315.7c-0.8,0-1.5,0.8-1.5,1.7c0,1,0.7,1.7,1.5,1.7h38.7
			c0.8,0,1.5-0.8,1.5-1.7c0-1-0.7-1.7-1.5-1.7H1234.3z M1254.4,770.8c-10.4,0-18.9-8.5-18.9-18.9s8.5-18.9,18.9-18.9
			s18.9,8.5,18.9,18.9C1273.4,762.3,1264.9,770.8,1254.4,770.8z M1254.4,734c-9.9,0-17.9,8-17.9,17.9s8,17.9,17.9,17.9
			s17.9-8,17.9-17.9C1272.4,742,1264.3,734,1254.4,734z"/>
		<path fill="#FFFFFF" d="M1254.4,774.5c-12.5,0-22.6-10.2-22.6-22.6c0-12.5,10.2-22.6,22.6-22.6c12.5,0,22.6,10.2,22.6,22.6
			C1277.1,764.4,1266.9,774.5,1254.4,774.5z M1254.4,730.3c-11.9,0-21.6,9.7-21.6,21.6c0,11.9,9.7,21.6,21.6,21.6
			s21.6-9.7,21.6-21.6C1276.1,740,1266.4,730.3,1254.4,730.3z M1337.4,273.2h-41.9v-3.3h41.9V273.2z M1296.4,272.2h39.9v-1.3h-39.9
			V272.2z M1376.6,321.4h-6.1v-4.9h6.1V321.4z M1371.1,320.9h5.1v-3.8h-5.1V320.9z M1138,321.4h-6.8v-4.9h6.8V321.4z M1131.8,320.9
			h5.8v-3.8h-5.8V320.9z M1376.6,745.9h-6.1v-4.8h6.1V745.9z M1371.1,745.4h5.1v-3.9h-5.1V745.4z M1138.1,745.9h-6.8v-4.8h6.8V745.9
			z M1131.8,745.4h5.8v-3.9h-5.8V745.4z"/>
		<g>
			<path fill="#FFFFFF" d="M1132,367.8h-3.3v-24.3h3.3V367.8z M1129.7,366.8h1.3v-22.3h-1.3V366.8z M1132,411.9h-3.3v-19.7h3.3
				V411.9z M1129.7,410.9h1.3v-17.7h-1.3V410.9z M1132,454.6h-3.3v-20h3.3V454.6z M1129.7,453.6h1.3v-18h-1.3V453.6z"/>
		</g>
		<path fill="#FFFFFF" d="M1358.8,716.7h-209V345.4h209V716.7L1358.8,716.7z M1150.8,715.7h207V346.4h-207V715.7L1150.8,715.7z"/>
		<path fill="#FFFFFF" d="M1339.3,783.2h-170c-17.6,0-32-14.3-32-32V310c0-17.6,14.3-32,32-32h170c17.6,0,32,14.3,32,32v441.3
			C1371.3,768.9,1356.9,783.2,1339.3,783.2z M1169.3,279c-17.1,0-31,13.9-31,31v441.3c0,17.1,13.9,31,31,31h170
			c17.1,0,31-13.9,31-31V310c0-17.1-13.9-31-31-31H1169.3z"/>
		<path fill="#FFFFFF" d="M1338.6,790.7h-169.3c-21.4,0-38.8-17.4-38.8-38.8V455.1h-2.3v-21h2.3v-21.7h-2.3v-20.7h2.3v-23.5h-2.3
			v-25.3h2.3v-32.4c0-21.4,17.4-38.8,38.8-38.8H1295v-2.3h42.9v2.3h0.7c21.4,0,38.8,17.4,38.8,38.8V752
			C1377.4,773.3,1360,790.7,1338.6,790.7z M1130.2,453.1h2.3V752c0,20.3,16.5,36.8,36.8,36.8h169.3c20.3,0,36.8-16.5,36.8-36.8
			V310.5c0-20.3-16.5-36.8-36.8-36.8h-2.8v-2.3h-38.9v2.3h-127.7c-20.3,0-36.8,16.5-36.8,36.8V345h-2.3v21.3h2.3v27.5h-2.3v16.7h2.3
			v25.7h-2.3L1130.2,453.1L1130.2,453.1z"/>
	</g>
	<g>
		<defs>
			<path id="SVGID_3_" d="M1149.8,346.4H1358v370.3h-208.2V346.4z"/>
		</defs>
		<clipPath id="SVGID_4_">
			<use xlink:href="#SVGID_3_"  overflow="visible"/>
		</clipPath>
		<g clip-path="url(#SVGID_4_)">
			<rect x="1149.8" y="346.4" fill="none" width="208.2" height="370.3"/>
			<path fill="#F7F9FB" d="M1149.8,346.4H1358v370.3h-208.2V346.4z"/>
			<rect x="1149.8" y="346.4" fill="none" width="208.2" height="370.3"/>
			<path fill="#CCF139" d="M1149.6,378.9h865.8v175.9h-865.8L1149.6,378.9z"/>
			<rect x="1149.8" y="346.4" fill="none" width="208.2" height="370.3"/>
			<g id="Parallax-Back">
				<polygon fill="#AEDC48" points="1247.4,481.6 1247.4,554.6 1149.6,554.6 1149.6,521.7 1181,499 1236.3,499 1236.3,481.6 				"/>
				<rect x="1247.4" y="443.5" fill="#AEDC48" width="31.7" height="111"/>
				<rect x="1279" y="483.3" fill="#AEDC48" width="46.3" height="71.2"/>
				<rect x="1325.3" y="499" fill="#AEDC48" width="46.3" height="55.5"/>
				<polygon fill="#AEDC48" points="1922.9,481.6 1922.9,554.6 1825.1,554.6 1825.1,521.7 1856.5,499 1911.8,499 1911.8,481.6 				
					"/>
				<rect x="1922.9" y="443.5" fill="#AEDC48" width="31.7" height="111"/>
				<rect x="1954.5" y="483.3" fill="#AEDC48" width="46.3" height="71.2"/>
				<rect x="2000.8" y="499" fill="#AEDC48" width="46.3" height="55.5"/>
				<path fill="#AEDC48" d="M1359.3,472.8h46.3v81.8h-46.3V472.8z"/>
				<rect x="1388.6" y="458.7" fill="#AEDC48" width="9.7" height="71"/>
				<polygon fill="#AEDC48" points="1503.4,481.6 1503.4,554.6 1405.6,554.6 1405.6,521.7 1437,499 1492.4,499 1492.4,481.6 				"/>
				<rect x="1503.4" y="443.5" fill="#AEDC48" width="31.7" height="111"/>
				<rect x="1535" y="483.3" fill="#AEDC48" width="46.3" height="71.2"/>
				<rect x="1581.3" y="499" fill="#AEDC48" width="46.3" height="55.5"/>
				<path fill="#AEDC48" d="M1615.3,472.8h46.3v81.8h-46.3V472.8z"/>
				<rect x="1644.6" y="458.7" fill="#AEDC48" width="9.7" height="71"/>
				<polygon fill="#AEDC48" points="1759.4,481.6 1759.4,554.6 1661.6,554.6 1661.6,521.7 1693,499 1748.4,499 1748.4,481.6 				"/>
				<rect x="1759.4" y="443.5" fill="#AEDC48" width="31.7" height="111"/>
				<rect x="1791" y="483.3" fill="#AEDC48" width="46.3" height="71.2"/>
				<rect x="1837.3" y="499" fill="#AEDC48" width="46.3" height="55.5"/>
			</g>
			<rect x="1149.8" y="346.4" fill="none" width="208.2" height="370.3"/>
			<g id="Parallax-Front">
				<path fill="#CCF139" stroke="#FFFFFF" stroke-width="2" stroke-linecap="round" stroke-miterlimit="10" d="M1183.6,536.2
					c-7,0-12.6-5.6-12.6-12.6v-42.4c0-7,5.6-12.6,12.6-12.6s12.6,5.6,12.6,12.6v42.4C1196.2,530.5,1190.6,536.2,1183.6,536.2z"/>
				<path fill="none" stroke="#FFFFFF" stroke-width="2" stroke-linecap="round" stroke-miterlimit="10" d="M1183.6,554.6v-61.8
					 M1190,521.4c0,3.5-2.9,6.4-6.4,6.4s-6.4-2.9-6.4-6.4 M1190,509.7c0,3.5-2.9,6.4-6.4,6.4s-6.4-2.9-6.4-6.4 M1190,498
					c0,3.5-2.9,6.4-6.4,6.4s-6.4-2.9-6.4-6.4"/>
				<path fill="#CCF139" stroke="#FFFFFF" stroke-width="2" stroke-linecap="round" stroke-miterlimit="10" d="M1222.3,536.2
					c-7,0-12.6-5.6-12.6-12.6s5.6-12.6,12.6-12.6s12.6,5.6,12.6,12.6C1234.9,530.5,1229.2,536.2,1222.3,536.2z"/>
				<path fill="none" stroke="#FFFFFF" stroke-width="2" stroke-linecap="round" stroke-miterlimit="10" d="M1222.3,554.6V521
					 M1227.2,523.7c0,2.7-2.2,4.9-4.9,4.9s-4.9-2.2-4.9-4.9"/>
				<path fill="#CCF139" stroke="#FFFFFF" stroke-width="2" stroke-linecap="round" stroke-miterlimit="10" d="M1415.3,536.2h6.4
					c5.2,0,9.4-4.2,9.4-9.4V478c0-5.2-4.2-9.4-9.4-9.4h-6.4c-5.2,0-9.4,4.2-9.4,9.4v48.8C1405.9,532,1410.1,536.2,1415.3,536.2z"/>
				<path fill="none" stroke="#FFFFFF" stroke-width="2" stroke-linecap="round" stroke-miterlimit="10" d="M1418.5,554.6v-61.8
					 M1412.1,521.4c0,3.5,2.9,6.4,6.4,6.4s6.4-2.9,6.4-6.4 M1412.1,509.7c0,3.5,2.9,6.4,6.4,6.4s6.4-2.9,6.4-6.4 M1412.1,498
					c0,3.5,2.9,6.4,6.4,6.4s6.4-2.9,6.4-6.4"/>
				<path fill="#CCF139" stroke="#FFFFFF" stroke-width="2" stroke-linecap="round" stroke-miterlimit="10" d="M1376.6,536.2h6.4
					c5.2,0,9.4-4.2,9.4-9.4v-6.4c0-5.2-4.2-9.4-9.4-9.4h-6.4c-5.2,0-9.4,4.2-9.4,9.4v6.4C1367.2,532,1371.4,536.2,1376.6,536.2z"/>
				<path fill="none" stroke="#FFFFFF" stroke-width="2" stroke-linecap="round" stroke-miterlimit="10" d="M1379.8,554.6V521
					 M1374.9,523.7c0,2.7,2.2,4.9,4.9,4.9s4.9-2.2,4.9-4.9"/>
				<path fill="#AEDC48" d="M1265.5,504.5h85.3v6.4h-85.3V504.5z"/>
				<path fill="#CCF139" d="M1265.5,511h85.3v44.1h-85.3V511z"/>
				<path fill="none" stroke="#FFFFFF" stroke-width="2" stroke-linecap="round" stroke-miterlimit="10" d="M1265.5,504.5h85.3v50.6
					h-85.3V504.5z"/>
				<path fill="#CCF139" stroke="#FFFFFF" stroke-width="2" stroke-linecap="round" stroke-miterlimit="10" d="M1361.6,504.5h-106.8
					l14.3-22.3h78.2L1361.6,504.5z"/>
				<path fill="#AEDC48" stroke="#FFFFFF" stroke-width="2" stroke-linecap="round" stroke-miterlimit="10" d="M1318.6,524.9h17.9
					v30.2h-17.9V524.9z"/>
				<path fill="#CCF139" stroke="#FFFFFF" stroke-width="2" stroke-linecap="round" stroke-miterlimit="10" d="M1276.1,526.7h10.3
					v10.6h-10.3V526.7z"/>
				<path fill="#CCF139" stroke="#FFFFFF" stroke-width="2" stroke-linecap="round" stroke-miterlimit="10" d="M1286.3,526.7h10.3
					v10.6h-10.3V526.7z M1296.6,526.7h10.3v10.6h-10.3V526.7z"/>
				<path fill="#CCF139" stroke="#FFFFFF" stroke-width="2" stroke-linecap="round" stroke-miterlimit="10" d="M1276.1,516.1h10.3
					v10.6h-10.3V516.1z"/>
				<path fill="#CCF139" stroke="#FFFFFF" stroke-width="2" stroke-linecap="round" stroke-miterlimit="10" d="M1286.3,516.1h10.3
					v10.6h-10.3V516.1z M1296.6,516.1h10.3v10.6h-10.3V516.1z"/>
				<path fill="#AEDC48" stroke="#FFFFFF" stroke-width="2" stroke-linecap="round" stroke-miterlimit="10" d="M1325.2,476.1h12.6
					v6.1h-12.6V476.1z"/>
				<path fill="#CCF139" stroke="#FFFFFF" stroke-width="2" stroke-linecap="round" stroke-miterlimit="10" d="M1322.3,470.8h18.5
					v5.3h-18.5V470.8z"/>
				<circle fill="#FFFFFF" cx="1332.3" cy="541.5" r="1.2"/>
				<path fill="#CCF139" stroke="#FFFFFF" stroke-width="2" stroke-linecap="round" stroke-miterlimit="10" d="M2001.1,536.2
					c-7,0-12.6-5.6-12.6-12.6v-42.4c0-7,5.6-12.6,12.6-12.6s12.6,5.6,12.6,12.6v42.4C2013.7,530.5,2008.1,536.2,2001.1,536.2z"/>
				<path fill="none" stroke="#FFFFFF" stroke-width="2" stroke-linecap="round" stroke-miterlimit="10" d="M2001.1,554.6v-61.8
					 M2007.5,521.4c0,3.5-2.9,6.4-6.4,6.4s-6.4-2.9-6.4-6.4 M2007.5,509.7c0,3.5-2.9,6.4-6.4,6.4s-6.4-2.9-6.4-6.4 M2007.5,498
					c0,3.5-2.9,6.4-6.4,6.4s-6.4-2.9-6.4-6.4"/>
				<path fill="#CCF139" stroke="#FFFFFF" stroke-width="2" stroke-linecap="round" stroke-miterlimit="10" d="M2039.8,536.2
					c-7,0-12.6-5.6-12.6-12.6s5.6-12.6,12.6-12.6s12.6,5.6,12.6,12.6C2052.4,530.5,2046.7,536.2,2039.8,536.2z"/>
				<path fill="none" stroke="#FFFFFF" stroke-width="2" stroke-linecap="round" stroke-miterlimit="10" d="M2039.8,554.6V521
					 M2044.7,523.7c0,2.7-2.2,4.9-4.9,4.9s-4.9-2.2-4.9-4.9"/>
				<path fill="#AEDC48" d="M2083,504.5h85.3v6.4H2083V504.5z"/>
				<path fill="#CCF139" d="M2083,511h85.3v44.1H2083V511z"/>
				<path fill="none" stroke="#FFFFFF" stroke-width="2" stroke-linecap="round" stroke-miterlimit="10" d="M2083,504.5h85.3v50.6
					H2083V504.5z"/>
				<path fill="#CCF139" stroke="#FFFFFF" stroke-width="2" stroke-linecap="round" stroke-miterlimit="10" d="M2179.1,504.5h-106.8
					l14.3-22.3h78.2L2179.1,504.5z"/>
				<path fill="#AEDC48" stroke="#FFFFFF" stroke-width="2" stroke-linecap="round" stroke-miterlimit="10" d="M2136.1,524.9h17.9
					v30.2h-17.9V524.9z"/>
				<path fill="#CCF139" stroke="#FFFFFF" stroke-width="2" stroke-linecap="round" stroke-miterlimit="10" d="M2093.6,526.7h10.3
					v10.6h-10.3V526.7z"/>
				<path fill="#CCF139" stroke="#FFFFFF" stroke-width="2" stroke-linecap="round" stroke-miterlimit="10" d="M2103.8,526.7h10.3
					v10.6h-10.3V526.7z M2114.1,526.7h10.3v10.6h-10.3V526.7z"/>
				<path fill="#CCF139" stroke="#FFFFFF" stroke-width="2" stroke-linecap="round" stroke-miterlimit="10" d="M2093.6,516.1h10.3
					v10.6h-10.3V516.1z"/>
				<path fill="#CCF139" stroke="#FFFFFF" stroke-width="2" stroke-linecap="round" stroke-miterlimit="10" d="M2103.8,516.1h10.3
					v10.6h-10.3V516.1z M2114.1,516.1h10.3v10.6h-10.3V516.1z"/>
				<path fill="#AEDC48" stroke="#FFFFFF" stroke-width="2" stroke-linecap="round" stroke-miterlimit="10" d="M2142.7,476.1h12.6
					v6.1h-12.6V476.1z"/>
				<path fill="#CCF139" stroke="#FFFFFF" stroke-width="2" stroke-linecap="round" stroke-miterlimit="10" d="M2139.8,470.8h18.5
					v5.3h-18.5V470.8z"/>
				<circle fill="#FFFFFF" cx="2149.8" cy="541.5" r="1.2"/>
				<path fill="#CCF139" stroke="#FFFFFF" stroke-width="2" stroke-linecap="round" stroke-miterlimit="10" d="M1481,443.5h64.2
					v111.3H1481V443.5z M1454.2,492.8h26.7v62h-26.7V492.8z M1545.2,492.8h26.7v62h-26.7V492.8z"/>
				<path fill="#AEDC48" stroke="#FFFFFF" stroke-width="2" stroke-linecap="round" stroke-miterlimit="10" d="M1460.6,499.8h7v7h-7
					V499.8z M1467.6,499.8h7v7h-7V499.8z M1460.6,506.8h7v7h-7V506.8z M1467.6,506.8h7v7h-7V506.8z"/>
				<path fill="#AEDC48" stroke="#FFFFFF" stroke-width="2" stroke-linecap="round" stroke-miterlimit="10" d="M1460.6,521h7v7h-7
					V521z M1467.6,521h7v7h-7V521z M1460.6,528h7v7h-7V528z M1467.6,528h7v7h-7V528z"/>
				<path fill="#AEDC48" stroke="#FFFFFF" stroke-width="2" stroke-linecap="round" stroke-miterlimit="10" d="M1490.8,455.2h7v7h-7
					V455.2z"/>
				<path fill="#AEDC48" stroke="#FFFFFF" stroke-width="2" stroke-linecap="round" stroke-miterlimit="10" d="M1497.7,455.2h7v7h-7
					V455.2z"/>
				<path fill="#AEDC48" stroke="#FFFFFF" stroke-width="2" stroke-linecap="round" stroke-miterlimit="10" d="M1490.8,462.1h7v7h-7
					V462.1z"/>
				<path fill="#AEDC48" stroke="#FFFFFF" stroke-width="2" stroke-linecap="round" stroke-miterlimit="10" d="M1497.7,462.1h7v7h-7
					V462.1z"/>
				<path fill="#AEDC48" stroke="#FFFFFF" stroke-width="2" stroke-linecap="round" stroke-miterlimit="10" d="M1490.8,476.4h7v7h-7
					V476.4z"/>
				<path fill="#AEDC48" stroke="#FFFFFF" stroke-width="2" stroke-linecap="round" stroke-miterlimit="10" d="M1497.7,476.4h7v7h-7
					V476.4z M1490.8,483.4h7v7h-7V483.4z"/>
				<path fill="#AEDC48" stroke="#FFFFFF" stroke-width="2" stroke-linecap="round" stroke-miterlimit="10" d="M1497.7,483.4h7v7h-7
					V483.4z"/>
				<path fill="#AEDC48" stroke="#FFFFFF" stroke-width="2" stroke-linecap="round" stroke-miterlimit="10" d="M1521.5,455.2h7v7h-7
					V455.2z M1528.5,455.2h7v7h-7V455.2z"/>
				<path fill="#AEDC48" stroke="#FFFFFF" stroke-width="2" stroke-linecap="round" stroke-miterlimit="10" d="M1521.5,462.1h7v7h-7
					V462.1z M1528.5,462.1h7v7h-7V462.1z"/>
				<path fill="#AEDC48" stroke="#FFFFFF" stroke-width="2" stroke-linecap="round" stroke-miterlimit="10" d="M1521.5,476.4h7v7h-7
					V476.4z M1528.5,476.4h7v7h-7V476.4z M1521.5,483.4h7v7h-7V483.4z M1528.5,483.4h7v7h-7V483.4z"/>
				<path fill="#AEDC48" stroke="#FFFFFF" stroke-width="2" stroke-linecap="round" stroke-miterlimit="10" d="M1490.8,497.9h7v7h-7
					V497.9z"/>
				<path fill="#AEDC48" stroke="#FFFFFF" stroke-width="2" stroke-linecap="round" stroke-miterlimit="10" d="M1497.7,497.9h7v7h-7
					V497.9z"/>
				<path fill="#AEDC48" stroke="#FFFFFF" stroke-width="2" stroke-linecap="round" stroke-miterlimit="10" d="M1490.8,504.8h7v7h-7
					V504.8z"/>
				<path fill="#AEDC48" stroke="#FFFFFF" stroke-width="2" stroke-linecap="round" stroke-miterlimit="10" d="M1497.7,504.8h7v7h-7
					V504.8z"/>
				<path fill="#AEDC48" stroke="#FFFFFF" stroke-width="2" stroke-linecap="round" stroke-miterlimit="10" d="M1521.5,497.9h7v7h-7
					V497.9z M1528.5,497.9h7v7h-7V497.9z"/>
				<path fill="#AEDC48" stroke="#FFFFFF" stroke-width="2" stroke-linecap="round" stroke-miterlimit="10" d="M1521.5,504.8h7v7h-7
					V504.8z M1528.5,504.8h7v7h-7V504.8z"/>
				<path fill="#AEDC48" stroke="#FFFFFF" stroke-width="2" stroke-linecap="round" stroke-miterlimit="10" d="M1551.6,499.8h7v7h-7
					V499.8z M1558.6,499.8h7v7h-7V499.8z M1551.6,506.8h7v7h-7V506.8z M1558.6,506.8h7v7h-7V506.8z"/>
				<path fill="#AEDC48" stroke="#FFFFFF" stroke-width="2" stroke-linecap="round" stroke-miterlimit="10" d="M1551.6,521h7v7h-7
					V521z M1558.6,521h7v7h-7V521z M1551.6,528h7v7h-7V528z M1558.6,528h7v7h-7V528z"/>
				<path fill="#CCF139" stroke="#FFFFFF" stroke-width="2" stroke-linecap="round" stroke-miterlimit="10" d="M1608.7,536.2h-6.4
					c-5.2,0-9.4-4.2-9.4-9.4V478c0-5.2,4.2-9.4,9.4-9.4h6.4c5.2,0,9.4,4.2,9.4,9.4v48.8C1618.2,532,1614,536.2,1608.7,536.2z"/>
				<path fill="none" stroke="#FFFFFF" stroke-width="2" stroke-linecap="round" stroke-miterlimit="10" d="M1605.6,554.6v-61.8
					 M1612,521.4c0,3.5-2.9,6.4-6.4,6.4s-6.4-2.9-6.4-6.4 M1612,509.7c0,3.5-2.9,6.4-6.4,6.4s-6.4-2.9-6.4-6.4 M1612,498
					c0,3.5-2.9,6.4-6.4,6.4s-6.4-2.9-6.4-6.4"/>
				<path fill="#CCF139" stroke="#FFFFFF" stroke-width="2" stroke-linecap="round" stroke-miterlimit="10" d="M1647.4,536.2h-6.4
					c-5.2,0-9.4-4.2-9.4-9.4v-6.4c0-5.2,4.2-9.4,9.4-9.4h6.4c5.2,0,9.4,4.2,9.4,9.4v6.4C1656.8,532,1652.6,536.2,1647.4,536.2z"/>
				<path fill="none" stroke="#FFFFFF" stroke-width="2" stroke-linecap="round" stroke-miterlimit="10" d="M1644.2,554.6V521
					 M1649.1,523.7c0,2.7-2.2,4.9-4.9,4.9s-4.9-2.2-4.9-4.9"/>
				<path fill="#CCF139" stroke="#FFFFFF" stroke-width="2" stroke-linecap="round" stroke-miterlimit="10" d="M1837.2,536.2h6.4
					c5.2,0,9.4-4.2,9.4-9.4V478c0-5.2-4.2-9.4-9.4-9.4h-6.4c-5.2,0-9.4,4.2-9.4,9.4v48.8C1827.8,532,1832,536.2,1837.2,536.2z"/>
				<path fill="none" stroke="#FFFFFF" stroke-width="2" stroke-linecap="round" stroke-miterlimit="10" d="M1840.4,554.6v-61.8
					 M1834,521.4c0,3.5,2.9,6.4,6.4,6.4s6.4-2.9,6.4-6.4 M1834,509.7c0,3.5,2.9,6.4,6.4,6.4s6.4-2.9,6.4-6.4 M1834,498
					c0,3.5,2.9,6.4,6.4,6.4s6.4-2.9,6.4-6.4"/>
				<path fill="#CCF139" stroke="#FFFFFF" stroke-width="2" stroke-linecap="round" stroke-miterlimit="10" d="M1798.6,536.2h6.4
					c5.2,0,9.4-4.2,9.4-9.4v-6.4c0-5.2-4.2-9.4-9.4-9.4h-6.4c-5.2,0-9.4,4.2-9.4,9.4v6.4C1789.1,532,1793.4,536.2,1798.6,536.2z"/>
				<path fill="none" stroke="#FFFFFF" stroke-width="2" stroke-linecap="round" stroke-miterlimit="10" d="M1801.8,554.6V521
					 M1796.8,523.7c0,2.7,2.2,4.9,4.9,4.9s4.9-2.2,4.9-4.9"/>
				<path fill="#AEDC48" d="M1687.5,504.5h85.3v6.4h-85.3V504.5z"/>
				<path fill="#CCF139" d="M1687.5,511h85.3v44.1h-85.3V511z"/>
				<path fill="none" stroke="#FFFFFF" stroke-width="2" stroke-linecap="round" stroke-miterlimit="10" d="M1687.5,504.5h85.3v50.6
					h-85.3V504.5z"/>
				<path fill="#CCF139" stroke="#FFFFFF" stroke-width="2" stroke-linecap="round" stroke-miterlimit="10" d="M1783.5,504.5h-106.8
					l14.4-22.3h78.1L1783.5,504.5z"/>
				<path fill="#AEDC48" stroke="#FFFFFF" stroke-width="2" stroke-linecap="round" stroke-miterlimit="10" d="M1740.5,524.9h17.9
					v30.2h-17.9V524.9z"/>
				<path fill="#CCF139" stroke="#FFFFFF" stroke-width="2" stroke-linecap="round" stroke-miterlimit="10" d="M1698,526.7h10.3
					v10.6H1698V526.7z M1708.3,526.7h10.3v10.6h-10.3V526.7z"/>
				<path fill="#CCF139" stroke="#FFFFFF" stroke-width="2" stroke-linecap="round" stroke-miterlimit="10" d="M1718.5,526.7h10.3
					v10.6h-10.3V526.7z"/>
				<path fill="#CCF139" stroke="#FFFFFF" stroke-width="2" stroke-linecap="round" stroke-miterlimit="10" d="M1698,516.1h10.3
					v10.6H1698V516.1z M1708.3,516.1h10.3v10.6h-10.3V516.1z"/>
				<path fill="#CCF139" stroke="#FFFFFF" stroke-width="2" stroke-linecap="round" stroke-miterlimit="10" d="M1718.5,516.1h10.3
					v10.6h-10.3V516.1z"/>
				<path fill="#AEDC48" stroke="#FFFFFF" stroke-width="2" stroke-linecap="round" stroke-miterlimit="10" d="M1747.2,476.1h12.6
					v6.1h-12.6V476.1z"/>
				<path fill="#CCF139" stroke="#FFFFFF" stroke-width="2" stroke-linecap="round" stroke-miterlimit="10" d="M1744.2,470.8h18.5
					v5.3h-18.5V470.8z"/>
				<circle fill="#FFFFFF" cx="1754.3" cy="541.5" r="1.2"/>
				<path fill="#CCF139" stroke="#FFFFFF" stroke-width="2" stroke-linecap="round" stroke-miterlimit="10" d="M1902.9,443.5h64.2
					v111.3h-64.2V443.5z M1876.2,492.8h26.7v62h-26.7V492.8z"/>
				<path fill="#AEDC48" stroke="#FFFFFF" stroke-width="2" stroke-linecap="round" stroke-miterlimit="10" d="M1882.5,499.8h7v7h-7
					V499.8z M1889.5,499.8h7v7h-7V499.8z M1882.5,506.8h7v7h-7V506.8z M1889.5,506.8h7v7h-7V506.8z"/>
				<path fill="#AEDC48" stroke="#FFFFFF" stroke-width="2" stroke-linecap="round" stroke-miterlimit="10" d="M1882.5,521h7v7h-7
					V521z M1889.5,521h7v7h-7V521z M1882.5,528h7v7h-7V528z M1889.5,528h7v7h-7V528z"/>
				<path fill="#AEDC48" stroke="#FFFFFF" stroke-width="2" stroke-linecap="round" stroke-miterlimit="10" d="M1912.7,455.2h7v7h-7
					V455.2z M1919.7,455.2h7v7h-7V455.2z"/>
				<path fill="#AEDC48" stroke="#FFFFFF" stroke-width="2" stroke-linecap="round" stroke-miterlimit="10" d="M1912.7,462.1h7v7h-7
					V462.1z M1919.7,462.1h7v7h-7V462.1z"/>
				<path fill="#AEDC48" stroke="#FFFFFF" stroke-width="2" stroke-linecap="round" stroke-miterlimit="10" d="M1912.7,476.4h7v7h-7
					V476.4z M1919.7,476.4h7v7h-7V476.4z M1912.7,483.4h7v7h-7V483.4z M1919.7,483.4h7v7h-7V483.4z"/>
				<path fill="#AEDC48" stroke="#FFFFFF" stroke-width="2" stroke-linecap="round" stroke-miterlimit="10" d="M1912.7,497.9h7v7h-7
					V497.9z M1919.7,497.9h7v7h-7V497.9z"/>
				<path fill="#AEDC48" stroke="#FFFFFF" stroke-width="2" stroke-linecap="round" stroke-miterlimit="10" d="M1912.7,504.8h7v7h-7
					V504.8z M1919.7,504.8h7v7h-7V504.8z"/>
			</g>
			<g>
				<defs>
					<rect id="SVGID_5_" x="1149.8" y="346.4" width="208.2" height="370.3"/>
				</defs>
				<clipPath id="SVGID_6_">
					<use xlink:href="#SVGID_5_"  overflow="visible"/>
				</clipPath>
				
					<path clip-path="url(#SVGID_6_)" fill="#AEDC48" stroke="#FFFFFF" stroke-width="2" stroke-linecap="round" stroke-miterlimit="10" d="
					M1513.1,527.9h13.5v25.4h-13.5V527.9z M1499.6,527.9h13.5v25.4h-13.5V527.9z"/>
			</g>
			<g>
				<defs>
					<rect id="SVGID_7_" x="1149.8" y="346.4" width="208.2" height="370.3"/>
				</defs>
				<clipPath id="SVGID_8_">
					<use xlink:href="#SVGID_7_"  overflow="visible"/>
				</clipPath>
				<circle clip-path="url(#SVGID_8_)" fill="#FFFFFF" cx="1509.4" cy="541.5" r="1.2"/>
			</g>
			<g>
				<defs>
					<rect id="SVGID_9_" x="1149.8" y="346.4" width="208.2" height="370.3"/>
				</defs>
				<clipPath id="SVGID_10_">
					<use xlink:href="#SVGID_9_"  overflow="visible"/>
				</clipPath>
				<circle clip-path="url(#SVGID_10_)" fill="#FFFFFF" cx="1517" cy="541.5" r="1.2"/>
			</g>
			<rect x="1149.8" y="346.4" fill="none" width="208.2" height="370.3"/>
			<path fill="#FFFFFF" d="M1149.8,346.4H1358v33h-208.2V346.4z"/>
			<rect x="1149.8" y="346.4" fill="none" width="208.2" height="370.3"/>
			<g>
				<path fill="#E9EDF1" stroke="#5D5D5D" stroke-linecap="round" stroke-linejoin="round" stroke-miterlimit="10" d="M1161.4,366.6
					h9 M1161.4,362.9h9 M1161.4,359.2h9"/>
			</g>
			<rect x="1149.8" y="346.4" fill="none" width="208.2" height="370.3"/>
			<g>
				<path fill="#5D5D5D" d="M1195.3,364.7h2.1v0.8h-3.1v-4.9h1V364.7L1195.3,364.7z M1199.2,365.5h-1v-4.9h1V365.5z M1200.3,365.5
					v-4.9h1.7c0.6,0,1,0.1,1.3,0.3c0.3,0.2,0.5,0.6,0.5,1c0,0.2-0.1,0.4-0.2,0.6s-0.3,0.3-0.5,0.4c0.2,0.1,0.4,0.2,0.6,0.4
					c0.1,0.2,0.2,0.4,0.2,0.7c0,0.5-0.1,0.8-0.4,1.1c-0.3,0.2-0.7,0.4-1.3,0.4H1200.3L1200.3,365.5z M1201.3,362.7h0.7
					c0.5,0,0.8-0.2,0.8-0.6c0-0.2-0.1-0.4-0.2-0.5s-0.3-0.1-0.6-0.1h-0.7L1201.3,362.7L1201.3,362.7z M1201.3,363.4v1.3h0.9
					c0.2,0,0.4-0.1,0.6-0.2c0.1-0.1,0.2-0.3,0.2-0.5c0-0.4-0.2-0.7-0.7-0.7h-1V363.4z M1207.8,363.4h-1.9v1.3h2.3v0.8h-3.3v-4.9h3.2
					v0.8h-2.2v1.2h1.9V363.4L1207.8,363.4z M1210.8,363.7h-0.8v1.8h-1v-4.9h1.8c0.6,0,1,0.1,1.3,0.4s0.5,0.6,0.5,1.1
					c0,0.3-0.1,0.6-0.2,0.8c-0.1,0.2-0.4,0.4-0.7,0.5l1,2h-1.1L1210.8,363.7L1210.8,363.7z M1210,362.9h0.8c0.3,0,0.4-0.1,0.6-0.2
					s0.2-0.3,0.2-0.5s-0.1-0.4-0.2-0.5s-0.3-0.2-0.6-0.2h-0.8V362.9z M1216.4,364.5h-1.8l-0.3,1h-1.1l1.8-4.9h0.9l1.8,4.9h-1.1
					L1216.4,364.5L1216.4,364.5z M1214.9,363.7h1.2l-0.6-1.8L1214.9,363.7z M1220.3,363.7h-0.8v1.8h-1v-4.9h1.8c0.6,0,1,0.1,1.3,0.4
					s0.5,0.6,0.5,1.1c0,0.3-0.1,0.6-0.2,0.8c-0.1,0.2-0.4,0.4-0.7,0.5l1,2h-1.1L1220.3,363.7L1220.3,363.7z M1219.5,362.9h0.8
					c0.3,0,0.4-0.1,0.6-0.2s0.2-0.3,0.2-0.5s-0.1-0.4-0.2-0.5s-0.3-0.2-0.6-0.2h-0.8V362.9z M1226.3,364.3l1.1-3.6h1.1l-1.7,4.9h-1
					l-1.7-4.9h1.1L1226.3,364.3z M1232.1,363.4h-1.9v1.3h2.3v0.8h-3.3v-4.9h3.2v0.8h-2.2v1.2h1.9V363.4L1232.1,363.4z M1234.3,365.5
					h-1v-4.9h1V365.5z M1234,359.3h1l-0.9,1h-0.8L1234,359.3L1234,359.3z M1239.2,363.9c0,0.5-0.2,0.9-0.6,1.2
					c-0.4,0.3-0.8,0.4-1.4,0.4s-1.1-0.2-1.5-0.6s-0.5-1-0.5-1.7v-0.3c0-0.5,0.1-0.9,0.2-1.2c0.2-0.4,0.4-0.6,0.7-0.8
					c0.3-0.2,0.7-0.3,1.1-0.3c0.6,0,1,0.2,1.4,0.5s0.5,0.7,0.6,1.3h-1c0-0.3-0.1-0.5-0.3-0.7c-0.1-0.1-0.4-0.2-0.7-0.2
					c-0.3,0-0.6,0.1-0.7,0.4c-0.2,0.2-0.3,0.6-0.3,1.1v0.4c0,0.5,0.1,0.9,0.2,1.1c0.2,0.2,0.4,0.4,0.8,0.4c0.3,0,0.5-0.1,0.7-0.2
					s0.2-0.4,0.3-0.7L1239.2,363.9L1239.2,363.9z M1243.7,360.6v3.2c0,0.5-0.2,1-0.5,1.3s-0.8,0.5-1.4,0.5s-1-0.1-1.3-0.4
					s-0.5-0.7-0.5-1.2v-3.2h1v3.2c0,0.3,0.1,0.5,0.2,0.7c0.2,0.1,0.4,0.2,0.6,0.2c0.6,0,0.8-0.3,0.9-0.9v-3.2h1L1243.7,360.6z
					 M1245.8,364.7h2.1v0.8h-3.1v-4.9h1V364.7L1245.8,364.7z M1252.5,363.2c0,0.5-0.1,0.9-0.3,1.3c-0.2,0.4-0.4,0.6-0.7,0.8
					c-0.3,0.2-0.7,0.3-1.1,0.3s-0.8-0.1-1.1-0.3c-0.3-0.2-0.6-0.5-0.7-0.8c-0.2-0.4-0.3-0.8-0.3-1.2v-0.2c0-0.5,0.1-0.9,0.3-1.3
					c0.2-0.4,0.4-0.6,0.7-0.8s0.7-0.3,1.1-0.3s0.8,0.1,1.1,0.3s0.6,0.5,0.7,0.8s0.3,0.8,0.3,1.3V363.2L1252.5,363.2z M1251.5,363
					c0-0.5-0.1-0.9-0.3-1.2c-0.2-0.3-0.4-0.4-0.8-0.4c-0.3,0-0.6,0.1-0.8,0.4c-0.2,0.3-0.3,0.6-0.3,1.1v0.2c0,0.5,0.1,0.9,0.3,1.2
					c0.2,0.3,0.4,0.4,0.8,0.4c0.3,0,0.6-0.1,0.8-0.4c0.2-0.3,0.3-0.6,0.3-1.2V363z"/>
			</g>
			<rect x="1149.8" y="346.4" fill="none" width="208.2" height="370.3"/>
			<g>
				<path fill="#5D5D5D" d="M1292.8,365.5h-1v-2.1h-1.9v2.1h-1v-4.9h1v2h1.9v-2h1V365.5z M1294.9,365.5h-1v-4.9h1V365.5z
					 M1298.5,364.2c0-0.2-0.1-0.3-0.2-0.4s-0.4-0.2-0.7-0.3c-0.3-0.1-0.6-0.2-0.8-0.3c-0.6-0.3-0.8-0.7-0.8-1.2
					c0-0.3,0.1-0.5,0.2-0.7s0.4-0.4,0.6-0.5c0.3-0.1,0.6-0.2,0.9-0.2s0.7,0.1,0.9,0.2c0.3,0.1,0.5,0.3,0.6,0.5
					c0.2,0.2,0.2,0.5,0.2,0.8h-1c0-0.2-0.1-0.4-0.2-0.5s-0.3-0.2-0.6-0.2c-0.2,0-0.4,0.1-0.6,0.2c-0.1,0.1-0.2,0.2-0.2,0.4
					s0.1,0.3,0.2,0.4c0.2,0.1,0.4,0.2,0.7,0.3c0.6,0.2,1,0.4,1.2,0.6c0.3,0.3,0.4,0.6,0.4,0.9c0,0.4-0.2,0.7-0.5,1
					c-0.3,0.2-0.7,0.4-1.3,0.4c-0.4,0-0.7-0.1-1-0.2s-0.5-0.3-0.7-0.6c-0.2-0.2-0.2-0.5-0.2-0.8h1c0,0.5,0.3,0.8,1,0.8
					c0.2,0,0.4,0,0.6-0.1C1298.5,364.5,1298.5,364.4,1298.5,364.2L1298.5,364.2z M1304.1,361.5h-1.5v4h-1v-4h-1.5v-0.8h4V361.5z
					 M1308.7,363.2c0,0.5-0.1,0.9-0.3,1.3c-0.2,0.4-0.4,0.6-0.7,0.8c-0.3,0.2-0.7,0.3-1.1,0.3s-0.8-0.1-1.1-0.3
					c-0.3-0.2-0.6-0.5-0.7-0.8c-0.2-0.4-0.3-0.8-0.3-1.2v-0.2c0-0.5,0.1-0.9,0.3-1.3c0.2-0.4,0.4-0.6,0.7-0.8s0.7-0.3,1.1-0.3
					s0.8,0.1,1.1,0.3s0.6,0.5,0.7,0.8s0.3,0.8,0.3,1.3V363.2L1308.7,363.2z M1307.7,363c0-0.5-0.1-0.9-0.3-1.2
					c-0.2-0.3-0.4-0.4-0.8-0.4c-0.3,0-0.6,0.1-0.8,0.4c-0.2,0.3-0.3,0.6-0.3,1.1v0.2c0,0.5,0.1,0.9,0.3,1.2c0.2,0.3,0.4,0.4,0.8,0.4
					c0.3,0,0.6-0.1,0.8-0.4c0.2-0.3,0.3-0.6,0.3-1.2V363z M1306.8,359.3h1l-0.9,1h-0.8L1306.8,359.3L1306.8,359.3z M1311.4,363.7
					h-0.8v1.8h-1v-4.9h1.8c0.6,0,1,0.1,1.3,0.4s0.5,0.6,0.5,1.1c0,0.3-0.1,0.6-0.2,0.8c-0.1,0.2-0.4,0.4-0.7,0.5l1,2h-1.1
					L1311.4,363.7L1311.4,363.7z M1310.6,362.9h0.8c0.3,0,0.4-0.1,0.6-0.2s0.2-0.3,0.2-0.5s-0.1-0.4-0.2-0.5s-0.3-0.2-0.6-0.2h-0.8
					V362.9z M1315.2,365.5h-1v-4.9h1V365.5z M1320.1,363.9c0,0.5-0.2,0.9-0.6,1.2c-0.4,0.3-0.8,0.4-1.4,0.4s-1.1-0.2-1.5-0.6
					s-0.5-1-0.5-1.7v-0.3c0-0.5,0.1-0.9,0.2-1.2c0.2-0.4,0.4-0.6,0.7-0.8c0.3-0.2,0.7-0.3,1.1-0.3c0.6,0,1,0.2,1.4,0.5
					s0.5,0.7,0.6,1.3h-1c0-0.3-0.1-0.5-0.3-0.7c-0.1-0.1-0.4-0.2-0.7-0.2c-0.3,0-0.6,0.1-0.7,0.4c-0.2,0.2-0.3,0.6-0.3,1.1v0.4
					c0,0.5,0.1,0.9,0.2,1.1c0.2,0.2,0.4,0.4,0.8,0.4c0.3,0,0.5-0.1,0.7-0.2s0.2-0.4,0.3-0.7L1320.1,363.9L1320.1,363.9z
					 M1324.9,363.2c0,0.5-0.1,0.9-0.3,1.3c-0.2,0.4-0.4,0.6-0.7,0.8c-0.3,0.2-0.7,0.3-1.1,0.3s-0.8-0.1-1.1-0.3
					c-0.3-0.2-0.6-0.5-0.7-0.8c-0.2-0.4-0.3-0.8-0.3-1.2v-0.2c0-0.5,0.1-0.9,0.3-1.3c0.2-0.4,0.4-0.6,0.7-0.8s0.7-0.3,1.1-0.3
					s0.8,0.1,1.1,0.3s0.6,0.5,0.7,0.8s0.3,0.8,0.3,1.3V363.2L1324.9,363.2z M1323.9,363c0-0.5-0.1-0.9-0.3-1.2
					c-0.2-0.3-0.4-0.4-0.8-0.4c-0.3,0-0.6,0.1-0.8,0.4c-0.2,0.3-0.3,0.6-0.3,1.1v0.2c0,0.5,0.1,0.9,0.3,1.2c0.2,0.3,0.4,0.4,0.8,0.4
					c0.3,0,0.6-0.1,0.8-0.4c0.2-0.3,0.3-0.6,0.3-1.2V363z"/>
			</g>
			<g>
				<defs>
					<rect id="SVGID_11_" x="1149.8" y="346.4" width="208.2" height="370.3"/>
				</defs>
				<clipPath id="SVGID_12_">
					<use xlink:href="#SVGID_11_"  overflow="visible"/>
				</clipPath>
				<path clip-path="url(#SVGID_12_)" fill="#AEDC48" d="M1183.6,377.6h79.6v1.7h-79.6V377.6z"/>
			</g>
			<g>
				<defs>
					<rect id="SVGID_13_" x="1149.8" y="346.4" width="208.2" height="370.3"/>
				</defs>
				<clipPath id="SVGID_14_">
					<use xlink:href="#SVGID_13_"  overflow="visible"/>
				</clipPath>
				
					<radialGradient id="SVGID_15_" cx="1253.8949" cy="434.81" r="10.2383" gradientTransform="matrix(0 0.8153 -26.3903 0 12728.667 -647.735)" gradientUnits="userSpaceOnUse">
					<stop  offset="0" style="stop-color:#000000"/>
					<stop  offset="1" style="stop-color:#FFFFFF"/>
				</radialGradient>
				<path opacity="0.2" clip-path="url(#SVGID_14_)" fill="url(#SVGID_15_)" enable-background="new    " d="M1149.8,379.4H1358
					v16.7h-208.2V379.4z"/>
			</g>
			<rect x="1149.8" y="346.4" fill="none" width="208.2" height="370.3"/>
			<g id="Car">
				<path fill="#4B4B4B" d="M1216.2,542.9l4.6-20l1,12.6L1216.2,542.9z"/>
				<path fill="#FFFFFF" d="M1299.2,546.9c-1-3.1-8.7-23.8-38.6-44.2c-7.6-5.2-19.4-4.7-24.8-4.7c-4.9,0-17.1,0.9-19.2,1
					c-0.2,0-0.4,0.1-0.6,0.2l-1.6,1c-0.3,0.2-0.5,0.5-0.6,0.8l-0.3,1.4c-0.1,0.5,0.1,1,0.5,1.3c1.7,1.3,6.2,6,6.2,17.2
					c0,8.1,0.3,16,0.3,16s4.5,8.3,18.3,16.3c1.2,0.7,11.2,1.6,20.5,2.8c6.2,0.8,11,1.6,13.4,2c3.4,0.5,3.1-1.9,3.5-3.4
					c0.7-2.8,3.5-5,5.1-5.6c3.3-1.4,15.3-0.7,17.4-0.2c0.6,0.1,0.7-0.4,0.8-0.9C1299.4,547.7,1299.3,547.3,1299.2,546.9
					L1299.2,546.9z M1278.4,534.6l-8.5,9.4c-0.7,0.7-1.6,1.1-2.6,1l-15.1-1.9c-1.8-0.2-3.6-0.9-5.1-2l-4.3-3c-1.6-1.1-2.7-2.9-3-4.8
					l-3.4-20.6c-0.1-0.7,0.4-1.4,1.2-1.4l11.3,0.1c2.1,0,4.2,0.4,6.1,1.1c2,0.7,3.8,1.7,5.4,3c4.7,3.8,9.2,7.9,13.4,12.3l4.5,4.7
					C1278.9,533.2,1278.9,534,1278.4,534.6L1278.4,534.6z"/>
				<path fill="#DADEE0" d="M1285.6,530.9l-5.8-6.1c-5.7-6-11.9-11.4-18.6-16.2l-1.5-1.1c-5.4-3.9-11.9-5.9-18.6-5.9h-15.5
					c-1.4,0-2.4,1.2-2.3,2.6l3,26.8c0.6,5,3.4,9.5,7.6,12.2l4.9,3.1c2,1.3,4.2,2.1,6.5,2.4l22.6,3c1.7,0.2,3.5-0.4,4.6-1.7l13.1-14
					C1286.9,534.5,1286.9,532.3,1285.6,530.9L1285.6,530.9z M1278.4,534.6l-8.5,9.4c-0.7,0.7-1.6,1.1-2.6,1l-15.1-1.9
					c-1.8-0.2-3.6-0.9-5.1-2l-4.3-3c-1.6-1.1-2.7-2.9-3-4.8l-3.4-20.6c-0.1-0.7,0.4-1.4,1.2-1.4l11.3,0.1c2.1,0,4.2,0.4,6.1,1.1
					c2,0.7,3.8,1.7,5.4,3c4.7,3.8,9.2,7.9,13.4,12.3l4.5,4.7C1278.9,533.2,1278.9,534,1278.4,534.6L1278.4,534.6z"/>
				<path fill="#4C5256" d="M1282.9,532.5l-6.2-6.5c-5.7-6-11.9-11.6-18.3-16.8c-2.2-1.8-4.8-3.2-7.4-4.1c-2.7-1-5.5-1.5-8.4-1.5
					l-15.5-0.2c-1,0-1.8,0.9-1.6,1.9l4.7,28.2c0.4,2.7,1.9,5,4.1,6.6l5.9,4.1c2.1,1.4,4.5,2.4,7,2.7l20.6,2.6
					c1.3,0.2,2.7-0.3,3.6-1.3l11.6-12.8C1283.6,534.5,1283.6,533.3,1282.9,532.5L1282.9,532.5z M1278.4,534.6l-8.5,9.4
					c-0.7,0.7-1.6,1.1-2.6,1l-15.1-1.9c-1.8-0.2-3.6-0.9-5.1-2l-4.3-3c-1.6-1.1-2.7-2.9-3-4.8l-3.4-20.6c-0.1-0.7,0.4-1.4,1.2-1.4
					l11.3,0.1c2.1,0,4.2,0.4,6.1,1.1c2,0.7,3.8,1.7,5.4,3c4.7,3.8,9.2,7.9,13.4,12.3l4.5,4.7C1278.9,533.2,1278.9,534,1278.4,534.6
					L1278.4,534.6z"/>
				
					<radialGradient id="SVGID_16_" cx="1275.9865" cy="389.0041" r="98.3352" gradientTransform="matrix(1 0 0 1 0 165.5)" gradientUnits="userSpaceOnUse">
					<stop  offset="0" style="stop-color:#30383D"/>
					<stop  offset="1" style="stop-color:#FFFFFF"/>
				</radialGradient>
				<path opacity="0.6" fill="url(#SVGID_16_)" enable-background="new    " d="M1225.4,505.3l4.7,28.2c0.4,2.7,1.9,5,4.2,6.6
					l5.9,4.1c2.1,1.4,4.5,2.4,7,2.7l20.6,2.6c1.3,0.2,2.7-0.3,3.6-1.3l11.6-12.8c0.7-0.8,0.7-2-0.1-2.7l-6.2-6.5
					c-5.7-6-11.9-11.6-18.3-16.8c-4.5-3.6-10.1-5.6-15.8-5.6l-15.5-0.2C1226,503.4,1225.2,504.3,1225.4,505.3L1225.4,505.3z"/>
				<path fill="#353534" d="M1282.4,535.8l-8.9,9.8c-1,0.6-2.2,0.6-3.2,0l-8.5-4.6c-4.4-2.4-9-4.6-13.6-6.7l-8.1-3.6
					c-2-0.9-3.5-2.6-4-4.7l-1.3-5.2c-0.3-1,0.9-2.5,1.9-2.4l25.5,1.6c5,0.2,9.7,2.3,13.1,5.9c0.3,0.3,0.5,0.6,0.8,0.8l6.2,6.5
					C1283.1,533.8,1283.1,535,1282.4,535.8L1282.4,535.8z"/>
				<path fill="#414141" d="M1282.9,535.3l-8.9,9.8c-1,0.6-2.2,0.6-3.2,0l-8.5-4.6c-4.4-2.4-9-4.6-13.6-6.7l-8.1-3.6
					c-2-0.9-3.5-2.6-4-4.7l-1.3-5.2c-0.3-1,0.5-2,1.6-1.9l25.8,1.1c5,0.2,9.7,2.3,13.1,5.9c0.3,0.3,0.5,0.6,0.8,0.8l6.2,6.5
					C1283.6,533.3,1283.6,534.5,1282.9,535.3L1282.9,535.3z"/>
				<path fill="#414141" d="M1306.7,556.4V568c0,0.6-0.2,1.2-0.7,1.6c-0.2,0.2-0.5,0.4-0.9,0.4s-0.6-0.1-0.8-0.2
					c0.9-1.8,1.5-3.8,1.5-5.9c0-6.9-5.6-12.6-12.6-12.6c-6.9,0-12.6,5.6-12.6,12.6c0,1,0.1,1.9,0.3,2.8l-0.2,0.2l-0.8,3.2h-7
					l-23.9-3c-2-0.2-4.1,0-6,0.6l-5.1,1.6l-0.7-4.8l-0.1-0.1v-0.6c0-6.9-5.6-12.6-12.6-12.6s-12.6,5.6-12.6,12.6
					c0,0.7,0.1,1.4,0.2,2.1h-0.1c-0.5-0.3-1-0.8-1.3-1.3l-1.2-2.2c-0.2-0.5-0.4-1-0.4-1.5l-0.4-6.3c-0.1-1.3,0.3-2.7,1.1-3.7
					l10.6-13.9c0.7,1.2,5.5,8.8,18.2,16.2c1.2,0.7,11.2,1.6,20.5,2.8c6.2,0.8,11,1.6,13.4,2c3.4,0.5,3.1-1.9,3.5-3.4
					c0.7-2.8,3.5-5,5.1-5.6c3.3-1.4,15.3-0.7,17.4-0.2h0.4c0.2-0.1,0.4-0.1,0.6-0.1h2.4c1.1,0,2.8,2.1,3.6,2.9
					C1306.4,552.7,1306.7,556.4,1306.7,556.4z"/>
				<circle fill="#343434" cx="1224.5" cy="563.3" r="12.6"/>
				<path fill="#4B4B4B" d="M1247.7,524.6l21.4,10.8c0.2,0.1,0.5-0.1,0.5-0.3l-0.2-9.3c0-0.2-0.2-0.4-0.4-0.4l-21.3-1.1
					C1247.6,524.3,1247.5,524.6,1247.7,524.6z"/>
				<path fill="#303030" d="M1269.9,525.6l0.5,0.1c1,0.2,1.7,1,1.7,2l0.1,8.3c0,0.3-0.3,0.6-0.7,0.4l-1.7-0.8
					c-0.2-0.1-0.3-0.2-0.3-0.4l-0.2-9.1C1269.3,525.8,1269.6,525.5,1269.9,525.6z"/>
				<path fill="#4B4B4B" d="M1220.9,537.8v0.8c0,0.6-0.2,1.1-0.5,1.6l-4.3,6.8c-0.7,1.1-1.5,2.1-2.5,2.9l-3.9,3.3
					c-0.2,0.2-0.6,0-0.6-0.3v-0.5c0.2-0.5,0.4-0.9,0.7-1.3l10.6-13.9C1220.6,537.3,1220.7,537.5,1220.9,537.8L1220.9,537.8z
					 M1278.4,561.5l-4.8,0.5c-6.4,0.7-12.6-0.5-18.9-1.8l-12.2-2.4c-6.8-1.2-15.7-7.2-18.1-15.7c2.8,3.1,7.4,7.2,14.3,11.2
					c1.2,0.7,11.2,1.6,20.5,2.8c6.2,0.8,11,1.6,13.4,2c1.5,0.2,2.3-0.1,2.8-0.7l3.3,3.3C1278.9,561,1278.8,561.4,1278.4,561.5
					L1278.4,561.5z"/>
				<path fill="#3A3A3A" d="M1227.6,507.5C1227.6,507.4,1227.6,507.4,1227.6,507.5l-0.3-2l1.4,1.6v0.1l0.3,2L1227.6,507.5z"/>
				<path fill="#414141" d="M1228.9,509.2l-1.7,0.5c-0.1,0-0.2,0-0.2-0.1l-1.6-1.7l2.1-0.4L1228.9,509.2L1228.9,509.2z"/>
				<path fill="#969A9A" d="M1225.4,530.2c0-0.2,0.1-0.3,0.2-0.4c0.1-0.1,0.3-0.2,0.5-0.3c0.3-0.2,1.1-0.2,1.7,0s1.8,0.4,1.8,0.4
					l0.5,3.1c0,0-3.3,0-3.5-0.1s-0.8-0.1-0.9-0.9C1225.5,531.4,1225.4,530.6,1225.4,530.2L1225.4,530.2z"/>
				<path fill="#808587" d="M1230,533l-0.4-2.6c0,0-1.2-0.3-1.8-0.4s-1.4-0.2-1.7,0c-0.2,0.1-0.3,0.2-0.5,0.3
					c-0.1,0.1-0.2,0.2-0.2,0.3v-0.4c0-0.2,0.1-0.3,0.2-0.4s0.3-0.2,0.5-0.3c0.3-0.2,1.1-0.2,1.7,0s1.8,0.4,1.8,0.4L1230,533z"/>
				<path fill="#969A9A" d="M1222.6,506.3c0-0.2,0.1-0.3,0.2-0.4s0.3-0.2,0.5-0.3c0.3-0.2,2.3,0.7,2.3,0.7l0.5,2.8
					c0,0-1.9-0.2-2.1-0.2s-0.9-0.1-1-0.9C1222.8,507.4,1222.7,506.7,1222.6,506.3z"/>
				<path fill="#808587" d="M1226,509.1l-0.5-2.3c0,0-2-0.9-2.3-0.7c-0.2,0.1-0.3,0.2-0.5,0.3c-0.1,0-0.1,0.1-0.2,0.2v-0.3
					c0-0.2,0.1-0.3,0.2-0.4s0.3-0.2,0.5-0.3c0.3-0.2,2.3,0.7,2.3,0.7L1226,509.1L1226,509.1z"/>
				<circle fill="#343434" cx="1293.2" cy="563.4" r="12.6"/>
				<g id="WheelFront" class="Wheels">
					<circle fill="#4B4B4B" cx="1293.2" cy="563.9" r="12.6"/>
					<path fill="#F7F9FB" d="M1293.2,572.7c4.8,0,8.8-3.9,8.8-8.8c0-4.8-3.9-8.8-8.8-8.8s-8.8,3.9-8.8,8.8
						S1288.3,572.7,1293.2,572.7z M1293.2,556.6c4.1,0,7.4,3.3,7.4,7.4s-3.3,7.4-7.4,7.4s-7.4-3.3-7.4-7.4
						S1289.1,556.6,1293.2,556.6z"/>
					<path fill="#CCF139" d="M1291,564.5v-8.8v-0.3c0.4-0.1,0.8-0.2,1.2-0.2v9.2c0,0.5,0.4,0.9,0.9,0.9c0.2,0,0.5-0.1,0.6-0.3
						c0.2-0.2,0.3-0.4,0.3-0.6v-9.2c0.4,0,0.8,0.1,1.2,0.2v9.1c0,1.2-1,2.2-2.2,2.2c-0.6,0-1.1-0.2-1.5-0.6
						C1291.3,565.6,1291,565.1,1291,564.5z"/>
				</g>
				<path fill="#4B4B4B" d="M1231.3,531.4C1231.4,531.5,1231.3,531.5,1231.3,531.4L1231.3,531.4l-2.1,0.5l-1.6,0.3
					c-0.1,0-0.1,0-0.1-0.1l-0.2-1.8c0-0.1,0-0.1,0.1-0.1l3.6-0.9h0.1L1231.3,531.4z"/>
				<path fill="#3A3A3A" d="M1231.3,531.5C1231.3,531.5,1231.4,531.5,1231.3,531.5l-0.3-2l1.4,1.6v0.1l0.2,1.7L1231.3,531.5
					L1231.3,531.5z"/>
				<path fill="#414141" d="M1232.6,533l-2.1,0.3c-0.1,0-0.2,0-0.2-0.1l-1.1-1.2l2.1-0.4L1232.6,533L1232.6,533z"/>
				<path fill="#4B4B4B" d="M1227.6,507.4v0.1l-2.1,0.4l-1.6,0.3c-0.1,0-0.1,0-0.1-0.1l-0.2-1.8c0-0.1,0-0.1,0.1-0.1l3.6-0.9h0.1
					L1227.6,507.4z"/>
				<path fill="#FFFFFF" d="M1266.4,516.2h4.1c0.4,0,0.8,0.4,0.8,0.8v5.6c0,0.3-0.2,0.5-0.5,0.5h-4.9L1266.4,516.2z"/>
				<path fill="#CCF139" d="M1271.3,517v2.8c-1-1-3.3-1.5-4.8-1.5h-0.3l0.1-2.1h4.1C1271,516.2,1271.3,516.5,1271.3,517L1271.3,517z
					"/>
				<path fill="#DADEE0" d="M1265.9,523.1l-0.1-5.8c0-0.2,0-0.3,0.1-0.5l0.3-0.6c0-0.1,0.1,0,0.1,0l0.1,2.1v0.7L1265.9,523.1
					L1265.9,523.1z"/>
				<path fill="#222222" d="M1272.1,528.1v0.4v-0.9c0-1-0.7-1.8-1.7-2l-0.5-0.1c-0.3,0-0.5,0.2-0.5,0.5v0.4c0-0.2,0.3-0.4,0.5-0.4
					l0.5,0.1C1271.4,526.3,1272.1,527.2,1272.1,528.1z"/>
				<path fill="#353534" d="M1269.6,535.1c0,0.2-0.3,0.4-0.5,0.3l-21.4-10.8c-0.2-0.1-0.1-0.3,0.1-0.3h0.1l21.2,10.7
					c0.2,0.1,0.4,0,0.5-0.2L1269.6,535.1L1269.6,535.1z"/>
				<g id="WheelBack" class="Wheels">
					<circle fill="#4B4B4B" cx="1224.5" cy="563.9" r="12.6"/>
					<path fill="#F7F9FB" d="M1224.5,555.2c-4.8,0-8.8,3.9-8.8,8.8c0,4.8,3.9,8.8,8.8,8.8s8.8-3.9,8.8-8.8
						S1229.4,555.2,1224.5,555.2z M1224.5,571.3c-4.1,0-7.4-3.3-7.4-7.4s3.3-7.4,7.4-7.4s7.4,3.3,7.4,7.4S1228.6,571.3,1224.5,571.3
						z"/>
					<path fill="#CCF139" d="M1226.7,563.4v9.1c-0.4,0.1-0.8,0.2-1.2,0.2v-9.2c0-0.5-0.4-0.9-0.9-0.9c-0.2,0-0.5,0.1-0.6,0.3
						c-0.2,0.2-0.3,0.4-0.3,0.6v9.2c-0.4,0-0.8-0.1-1.2-0.2v-9.1c0-1.2,1-2.2,2.2-2.2c0.6,0,1.1,0.2,1.5,0.6
						C1226.4,562.3,1226.7,562.8,1226.7,563.4z"/>
				</g>
			</g>
			<rect x="1149.8" y="346.4" fill="none" width="208.2" height="370.3"/>
			<g>
				<path fill="#3F676A" d="M1312.3,644.2h-116.9c-10.6,0-19.1,8.6-19.1,19.1c0,10.6,8.6,19.1,19.1,19.1h116.9
					c10.6,0,19.1-8.6,19.1-19.1C1331.5,652.7,1322.9,644.2,1312.3,644.2z"/>
				<g>
					<path fill="#BDCE55" d="M1217,661h-2.1v5.7h-1.4V661h-2.1v-1.1h5.6V661z M1220.3,664.3h-1.1v2.5h-1.4v-6.9h2.6
						c0.8,0,1.4,0.2,1.9,0.5c0.4,0.4,0.7,0.9,0.7,1.5c0,0.5-0.1,0.9-0.3,1.2c-0.2,0.3-0.5,0.6-0.9,0.7l1.5,2.8v0.1h-1.5
						L1220.3,664.3L1220.3,664.3z M1219.2,663.1h1.1c0.4,0,0.6-0.1,0.8-0.3s0.3-0.4,0.3-0.7s-0.1-0.6-0.3-0.8
						c-0.2-0.2-0.5-0.3-0.8-0.3h-1.1V663.1L1219.2,663.1z M1227.8,665.4h-2.5l-0.5,1.4h-1.5l2.6-6.9h1.3l2.6,6.9h-1.5L1227.8,665.4z
						 M1225.7,664.2h1.7l-0.9-2.6L1225.7,664.2L1225.7,664.2z M1236,666.8h-1.4l-2.8-4.5v4.5h-1.4v-6.9h1.4l2.8,4.5v-4.5h1.4V666.8z
						 M1242.6,664.5c-0.1,0.7-0.3,1.3-0.8,1.7s-1.1,0.6-1.9,0.6c-0.9,0-1.6-0.3-2.1-0.9s-0.8-1.4-0.8-2.4v-0.4
						c0-0.7,0.1-1.2,0.3-1.7c0.2-0.5,0.6-0.9,1-1.2s0.9-0.4,1.5-0.4c0.8,0,1.4,0.2,1.9,0.6s0.8,1,0.8,1.8h-1.4c0-0.4-0.2-0.8-0.4-1
						c-0.2-0.2-0.5-0.3-1-0.3s-0.8,0.2-1.1,0.5c-0.2,0.3-0.4,0.9-0.4,1.6v0.5c0,0.7,0.1,1.3,0.3,1.6c0.2,0.3,0.6,0.5,1.1,0.5
						c0.4,0,0.8-0.1,1-0.3s0.3-0.5,0.4-0.9L1242.6,664.5L1242.6,664.5z M1247.4,665.4h-2.5l-0.5,1.4h-1.5l2.6-6.9h1.3l2.6,6.9h-1.5
						L1247.4,665.4z M1245.3,664.2h1.7l-0.9-2.6L1245.3,664.2L1245.3,664.2z M1252.5,664.3h-1.1v2.5h-1.4v-6.9h2.6
						c0.8,0,1.4,0.2,1.9,0.5c0.4,0.4,0.7,0.9,0.7,1.5c0,0.5-0.1,0.9-0.3,1.2c-0.2,0.3-0.5,0.6-0.9,0.7l1.5,2.8v0.1h-1.5
						L1252.5,664.3L1252.5,664.3z M1251.4,663.1h1.1c0.4,0,0.6-0.1,0.8-0.3s0.3-0.4,0.3-0.7s-0.1-0.6-0.3-0.8
						c-0.2-0.2-0.5-0.3-0.8-0.3h-1.1V663.1L1251.4,663.1z M1261,665.1l1.6-5.2h1.6l-2.4,6.9h-1.5l-2.4-6.9h1.6L1261,665.1
						L1261,665.1z M1268.9,663.8h-2.7v1.8h3.2v1.1h-4.6v-6.9h4.6v1.1h-3.2v1.6h2.7V663.8z M1271.7,666.8h-1.4v-6.9h1.4V666.8z
						 M1271.3,658h1.5l-1.3,1.5h-1.1L1271.3,658z M1278.4,664.5c-0.1,0.7-0.3,1.3-0.8,1.7s-1.1,0.6-1.9,0.6c-0.9,0-1.6-0.3-2.1-0.9
						s-0.8-1.4-0.8-2.4v-0.4c0-0.7,0.1-1.2,0.3-1.7c0.2-0.5,0.6-0.9,1-1.2s0.9-0.4,1.5-0.4c0.8,0,1.4,0.2,1.9,0.6s0.8,1,0.8,1.8
						h-1.4c0-0.4-0.2-0.8-0.4-1c-0.2-0.2-0.5-0.3-1-0.3s-0.8,0.2-1.1,0.5c-0.2,0.3-0.4,0.9-0.4,1.6v0.5c0,0.7,0.1,1.3,0.3,1.6
						c0.2,0.3,0.6,0.5,1.1,0.5c0.4,0,0.8-0.1,1-0.3s0.3-0.5,0.4-0.9L1278.4,664.5L1278.4,664.5z M1284.5,659.9v4.5
						c0,0.8-0.2,1.3-0.7,1.8c-0.5,0.4-1.1,0.7-1.9,0.7s-1.4-0.2-1.9-0.6s-0.7-1-0.7-1.8v-4.6h1.4v4.5c0,0.5,0.1,0.8,0.3,1
						c0.2,0.2,0.5,0.3,0.9,0.3c0.8,0,1.2-0.4,1.2-1.3v-4.6L1284.5,659.9L1284.5,659.9z M1287,665.6h3v1.1h-4.4v-6.9h1.4V665.6z
						 M1296.2,663.5c0,0.7-0.1,1.3-0.4,1.8s-0.6,0.9-1,1.2s-1,0.4-1.5,0.4c-0.6,0-1.1-0.1-1.5-0.4s-0.8-0.7-1-1.2s-0.4-1.1-0.4-1.8
						v-0.3c0-0.7,0.1-1.3,0.4-1.8s0.6-0.9,1-1.2s1-0.4,1.5-0.4c0.6,0,1.1,0.1,1.5,0.4s0.8,0.7,1,1.2s0.4,1.1,0.4,1.8V663.5z
						 M1294.7,663.2c0-0.7-0.1-1.3-0.4-1.6c-0.3-0.4-0.6-0.6-1.1-0.6s-0.8,0.2-1.1,0.6c-0.3,0.4-0.4,0.9-0.4,1.6v0.3
						c0,0.7,0.1,1.2,0.4,1.6c0.3,0.4,0.6,0.6,1.1,0.6s0.8-0.2,1.1-0.6c0.3-0.4,0.4-0.9,0.4-1.6V663.2z"/>
				</g>
			</g>
			<rect x="1149.8" y="346.4" fill="none" width="208.2" height="370.3"/>
			<g>
				<path fill="#5D5D5D" d="M1228.2,617.5c0,3.9-0.6,6.8-1.8,8.7c-1.2,1.9-3,2.8-5.4,2.8c-2.3,0-4.1-1-5.3-2.9
					c-1.2-1.9-1.8-4.8-1.8-8.6c0-3.9,0.6-6.8,1.8-8.6c1.2-1.8,3-2.8,5.4-2.8s4.1,1,5.4,2.9C1227.6,610.9,1228.2,613.8,1228.2,617.5
					L1228.2,617.5z M1215.5,617.5c0,3.5,0.5,6,1.4,7.7s2.3,2.5,4.1,2.5c1.9,0,3.3-0.9,4.2-2.6c0.9-1.7,1.3-4.2,1.3-7.6
					c0-3.3-0.4-5.8-1.3-7.5s-2.3-2.6-4.2-2.6s-3.3,0.9-4.2,2.6C1215.9,611.7,1215.5,614.2,1215.5,617.5z M1246.4,617.5
					c0,3.9-0.6,6.8-1.8,8.7c-1.2,1.9-3,2.8-5.4,2.8c-2.3,0-4.1-1-5.3-2.9c-1.2-1.9-1.8-4.8-1.8-8.6c0-3.9,0.6-6.8,1.8-8.6
					c1.2-1.8,3-2.8,5.4-2.8s4.1,1,5.4,2.9C1245.8,610.9,1246.4,613.8,1246.4,617.5L1246.4,617.5z M1233.7,617.5c0,3.5,0.5,6,1.4,7.7
					s2.3,2.5,4.1,2.5c1.9,0,3.3-0.9,4.2-2.6c0.9-1.7,1.3-4.2,1.3-7.6c0-3.3-0.4-5.8-1.3-7.5s-2.3-2.6-4.2-2.6s-3.3,0.9-4.2,2.6
					C1234.1,611.7,1233.7,614.2,1233.7,617.5z M1250.2,613.9c0-1,0.4-1.5,1.2-1.5c0.8,0,1.3,0.5,1.3,1.5c0,0.5-0.1,0.9-0.4,1.2
					s-0.5,0.4-0.9,0.4c-0.3,0-0.6-0.1-0.9-0.4C1250.3,614.9,1250.2,614.5,1250.2,613.9L1250.2,613.9z M1250.2,627.6
					c0-1,0.4-1.5,1.2-1.5c0.8,0,1.3,0.5,1.3,1.5s-0.4,1.5-1.3,1.5C1250.6,629.1,1250.2,628.6,1250.2,627.6z M1263.7,628.8h-1.5
					v-16.3c0-1.5,0.1-3,0.2-4.6c-0.2,0.2-0.3,0.3-0.5,0.4s-1.7,1.4-4.7,3.7l-0.9-1.1l6.1-4.5h1.3V628.8z M1285,617.5
					c0,3.9-0.6,6.8-1.8,8.7c-1.2,1.9-3,2.8-5.4,2.8c-2.3,0-4.1-1-5.3-2.9c-1.2-1.9-1.8-4.8-1.8-8.6c0-3.9,0.6-6.8,1.8-8.6
					c1.2-1.8,3-2.8,5.4-2.8s4.1,1,5.4,2.9C1284.4,610.9,1285,613.8,1285,617.5L1285,617.5z M1272.3,617.5c0,3.5,0.5,6,1.4,7.7
					s2.3,2.5,4.1,2.5c1.9,0,3.3-0.9,4.2-2.6c0.9-1.7,1.3-4.2,1.3-7.6c0-3.3-0.4-5.8-1.3-7.5s-2.3-2.6-4.2-2.6s-3.3,0.9-4.2,2.6
					C1272.7,611.7,1272.3,614.2,1272.3,617.5z M1294.5,628.8h-0.6v-4h-4.7v4h-0.6v-8.1h0.6v3.6h4.7v-3.6h0.6V628.8z"/>
			</g>
			<rect x="1149.8" y="346.4" fill="none" width="208.2" height="370.3"/>
			<g>
				<g>
					<path fill="#3F676A" d="M1183.2,418.9h-1v-10.7l-3.2,1.2v-0.9l4-1.5h0.2V418.9z M1194.1,418.9h-7.4v-0.8l4.1-4.6
						c0.7-0.8,1.1-1.4,1.4-1.9s0.4-1,0.4-1.5c0-0.8-0.2-1.3-0.7-1.8s-1-0.7-1.8-0.7s-1.4,0.3-1.9,0.8s-0.7,1.2-0.7,2h-1
						c0-0.7,0.2-1.3,0.5-1.8s0.7-1,1.3-1.3c0.6-0.3,1.2-0.5,1.9-0.5c1.1,0,1.9,0.3,2.5,0.9s0.9,1.3,0.9,2.3c0,0.6-0.2,1.2-0.5,1.8
						c-0.3,0.7-1,1.5-1.8,2.5l-3.3,3.7h6.2L1194.1,418.9L1194.1,418.9z M1196,418.3c0-0.2,0.1-0.4,0.2-0.5s0.3-0.2,0.5-0.2
						s0.4,0.1,0.5,0.2s0.2,0.3,0.2,0.5s-0.1,0.3-0.2,0.5s-0.3,0.2-0.5,0.2s-0.4-0.1-0.5-0.2C1196.1,418.7,1196,418.5,1196,418.3z
						 M1196,410.8c0-0.2,0.1-0.4,0.2-0.5s0.3-0.2,0.5-0.2s0.4,0.1,0.5,0.2s0.2,0.3,0.2,0.5s-0.1,0.3-0.2,0.5s-0.3,0.2-0.5,0.2
						s-0.4-0.1-0.5-0.2C1196,411.2,1196,411,1196,410.8z M1206.7,414c0,1.7-0.3,2.9-0.9,3.8s-1.5,1.3-2.7,1.3s-2.1-0.4-2.7-1.3
						s-0.9-2.1-1-3.7V412c0-1.7,0.3-2.9,0.9-3.8s1.5-1.3,2.7-1.3s2.1,0.4,2.7,1.2c0.6,0.8,0.9,2.1,1,3.7V414L1206.7,414z
						 M1205.7,411.8c0-1.4-0.2-2.4-0.7-3.1s-1.1-1-2-1s-1.5,0.3-2,1s-0.7,1.7-0.7,3v2.3c0,1.4,0.2,2.4,0.7,3.1s1.1,1.1,2,1.1
						s1.5-0.4,2-1.1c0.4-0.7,0.7-1.7,0.7-3.1V411.8z M1216.1,414c0,1.7-0.3,2.9-0.9,3.8s-1.5,1.3-2.7,1.3s-2.1-0.4-2.7-1.3
						s-0.9-2.1-1-3.7V412c0-1.7,0.3-2.9,0.9-3.8s1.5-1.3,2.7-1.3s2.1,0.4,2.7,1.2c0.6,0.8,0.9,2.1,1,3.7V414L1216.1,414z
						 M1215.1,411.8c0-1.4-0.2-2.4-0.7-3.1s-1.1-1-2-1s-1.5,0.3-2,1s-0.7,1.7-0.7,3v2.3c0,1.4,0.2,2.4,0.7,3.1s1.1,1.1,2,1.1
						s1.5-0.4,2-1.1c0.4-0.7,0.7-1.7,0.7-3.1V411.8z M1231.5,418.9h-1v-5.7h-6.8v5.7h-1V407h1v5.3h6.8V407h1V418.9z"/>
				</g>
				<path fill="#5D5D5D" d="M1167.8,401.1v2.3h-0.5v-5.7h1.9c0.6,0,1.1,0.1,1.4,0.5c0.3,0.3,0.5,0.7,0.5,1.2s-0.2,0.9-0.5,1.2
					s-0.8,0.4-1.4,0.4h-1.4V401.1z M1167.8,400.7h1.4c0.5,0,0.8-0.1,1.1-0.3c0.2-0.2,0.4-0.5,0.4-0.9s-0.1-0.7-0.4-0.9
					c-0.2-0.2-0.6-0.4-1-0.4h-1.5V400.7L1167.8,400.7z M1175.5,400.7h-2.6v2.3h3v0.4h-3.5v-5.7h3.5v0.4h-3v2.1h2.6V400.7z
					 M1181,402.8c-0.2,0.2-0.4,0.4-0.8,0.6c-0.4,0.1-0.7,0.2-1.2,0.2c-0.4,0-0.8-0.1-1.2-0.3c-0.3-0.2-0.6-0.5-0.8-0.9
					c-0.2-0.4-0.3-0.8-0.3-1.3v-0.7c0-0.8,0.2-1.4,0.6-1.9s0.9-0.7,1.6-0.7c0.6,0,1,0.1,1.4,0.4s0.6,0.7,0.6,1.2h-0.5
					c-0.1-0.4-0.2-0.7-0.5-0.9c-0.3-0.2-0.6-0.3-1-0.3c-0.5,0-0.9,0.2-1.3,0.6c-0.3,0.4-0.5,0.9-0.5,1.6v0.7c0,0.4,0.1,0.8,0.2,1.1
					c0.1,0.3,0.4,0.6,0.6,0.8c0.3,0.2,0.6,0.3,0.9,0.3c0.4,0,0.8-0.1,1.1-0.2c0.2-0.1,0.3-0.2,0.4-0.3v-1.5h-1.5v-0.4h2v1.9
					L1181,402.8z M1186.7,400.9c0,0.5-0.1,1-0.3,1.4c-0.2,0.4-0.4,0.7-0.8,0.9c-0.3,0.2-0.7,0.3-1.2,0.3c-0.7,0-1.2-0.2-1.6-0.7
					s-0.6-1.1-0.6-1.9v-0.6c0-0.5,0.1-1,0.3-1.4s0.4-0.7,0.8-0.9s0.7-0.3,1.2-0.3s0.8,0.1,1.2,0.3c0.3,0.2,0.6,0.5,0.8,0.9
					c0.2,0.4,0.3,0.8,0.3,1.3v0.7L1186.7,400.9L1186.7,400.9z M1186.2,400.3c0-0.7-0.2-1.2-0.5-1.6s-0.7-0.6-1.3-0.6
					c-0.5,0-0.9,0.2-1.3,0.6c-0.3,0.4-0.5,0.9-0.5,1.6v0.6c0,0.7,0.2,1.2,0.5,1.6s0.7,0.6,1.3,0.6c0.5,0,1-0.2,1.3-0.6
					s0.5-0.9,0.5-1.6V400.3z M1194,403.4h-0.5l-3.2-4.8v4.8h-0.5v-5.7h0.5l3.3,4.8v-4.8h0.5v5.7H1194z M1199.8,400.9
					c0,0.5-0.1,1-0.3,1.4c-0.2,0.4-0.4,0.7-0.8,0.9c-0.3,0.2-0.7,0.3-1.2,0.3c-0.7,0-1.2-0.2-1.6-0.7s-0.6-1.1-0.6-1.9v-0.6
					c0-0.5,0.1-1,0.3-1.4s0.4-0.7,0.8-0.9s0.7-0.3,1.2-0.3s0.8,0.1,1.2,0.3c0.3,0.2,0.6,0.5,0.8,0.9c0.2,0.4,0.3,0.8,0.3,1.3v0.7
					L1199.8,400.9L1199.8,400.9z M1199.3,400.3c0-0.7-0.2-1.2-0.5-1.6s-0.7-0.6-1.3-0.6c-0.5,0-0.9,0.2-1.3,0.6
					c-0.3,0.4-0.5,0.9-0.5,1.6v0.6c0,0.7,0.2,1.2,0.5,1.6s0.7,0.6,1.3,0.6c0.5,0,1-0.2,1.3-0.6s0.5-0.9,0.5-1.6V400.3z
					 M1202.9,403.4v-5.7h1.6c0.5,0,0.9,0.1,1.2,0.3c0.4,0.2,0.7,0.5,0.9,0.9c0.2,0.4,0.3,0.8,0.3,1.3v0.5c0,0.5-0.1,1-0.3,1.3
					c-0.2,0.4-0.5,0.7-0.9,0.9s-0.8,0.3-1.3,0.3h-1.5L1202.9,403.4z M1203.4,398.2v4.8h1.1c0.6,0,1.1-0.2,1.4-0.6
					c0.4-0.4,0.5-0.9,0.5-1.6v-0.5c0-0.6-0.2-1.2-0.5-1.6c-0.4-0.4-0.8-0.6-1.4-0.6h-1.1V398.2z M1208.8,403.4h-0.5v-5.7h0.5V403.4z
					 M1213.5,401.8h-2.6l-0.6,1.6h-0.5l2.1-5.7h0.5l2.1,5.7h-0.5L1213.5,401.8z M1211.1,401.4h2.3l-1.1-3.1L1211.1,401.4
					L1211.1,401.4z"/>
				<path fill="#3F676A" d="M1219.8,403.4h-1.3v-4.1l-1.3,0.4v-1l2.4-0.8h0.1v5.5H1219.8z M1225.1,403.4h-3.9v-0.8l1.8-1.9
					c0.4-0.5,0.7-0.9,0.7-1.2c0-0.2-0.1-0.4-0.2-0.5s-0.3-0.2-0.5-0.2s-0.4,0.1-0.5,0.3s-0.2,0.4-0.2,0.6h-1.3
					c0-0.3,0.1-0.7,0.3-0.9c0.2-0.3,0.4-0.5,0.7-0.7c0.3-0.2,0.6-0.2,1-0.2c0.6,0,1.1,0.1,1.4,0.4s0.5,0.7,0.5,1.2
					c0,0.2,0,0.4-0.1,0.6s-0.2,0.4-0.4,0.7c-0.2,0.2-0.4,0.5-0.8,0.9l-0.7,0.8h2.2V403.4L1225.1,403.4z M1230.9,402.4h-1.8l-0.3,1
					h-1.4l2-5.5h1.3l2,5.5h-1.4L1230.9,402.4L1230.9,402.4z M1229.4,401.4h1.2l-0.6-1.9L1229.4,401.4z M1237.6,402.7
					c-0.2,0.2-0.5,0.4-0.9,0.6s-0.8,0.2-1.3,0.2c-0.7,0-1.3-0.2-1.7-0.7c-0.4-0.4-0.7-1.1-0.7-1.9v-0.5c0-0.5,0.1-1,0.3-1.4
					c0.2-0.4,0.5-0.7,0.8-0.9c0.3-0.2,0.8-0.3,1.2-0.3c0.7,0,1.2,0.2,1.6,0.5s0.6,0.8,0.7,1.4h-1.3c0-0.3-0.1-0.5-0.3-0.7
					c-0.2-0.2-0.4-0.2-0.6-0.2c-0.3,0-0.6,0.1-0.8,0.4c-0.2,0.3-0.3,0.7-0.3,1.2v0.3c0,0.6,0.1,1,0.3,1.2c0.2,0.3,0.5,0.4,0.9,0.4
					c0.3,0,0.6-0.1,0.8-0.2v-0.9h-0.9v-0.7h2.3L1237.6,402.7L1237.6,402.7z M1243.2,400.8c0,0.5-0.1,1-0.3,1.4
					c-0.2,0.4-0.5,0.7-0.9,1c-0.4,0.2-0.8,0.3-1.3,0.3s-0.9-0.1-1.3-0.3c-0.4-0.2-0.7-0.5-0.9-0.9c-0.2-0.4-0.3-0.9-0.3-1.4v-0.4
					c0-0.5,0.1-1,0.3-1.4c0.2-0.4,0.5-0.7,0.9-1c0.4-0.2,0.8-0.3,1.3-0.3s0.9,0.1,1.3,0.3c0.4,0.2,0.7,0.5,0.9,1
					c0.2,0.4,0.3,0.9,0.3,1.4V400.8L1243.2,400.8z M1241.8,400.5c0-0.6-0.1-1-0.3-1.3c-0.2-0.3-0.4-0.4-0.8-0.4
					c-0.7,0-1,0.5-1.1,1.5v0.4c0,0.5,0.1,1,0.3,1.3c0.2,0.3,0.4,0.4,0.8,0.4c0.3,0,0.6-0.1,0.8-0.4s0.3-0.7,0.3-1.2L1241.8,400.5
					L1241.8,400.5z M1246.9,401.9c0-0.2-0.1-0.3-0.2-0.5c-0.1-0.1-0.4-0.2-0.7-0.3l-0.9-0.3c-0.7-0.4-1.1-0.8-1.1-1.5
					c0-0.3,0.1-0.6,0.3-0.8c0.2-0.2,0.4-0.4,0.8-0.5c0.3-0.1,0.7-0.2,1.1-0.2s0.8,0.1,1.1,0.2c0.3,0.1,0.6,0.3,0.7,0.6
					c0.2,0.3,0.3,0.6,0.3,0.9h-1.3c0-0.2-0.1-0.4-0.2-0.5s-0.3-0.2-0.6-0.2c-0.2,0-0.4,0.1-0.6,0.2c-0.1,0.1-0.2,0.2-0.2,0.4
					c0,0.1,0.1,0.3,0.2,0.4s0.4,0.2,0.8,0.4c0.4,0.2,0.7,0.3,0.9,0.4c0.6,0.3,0.9,0.8,0.9,1.4c0,0.5-0.2,0.9-0.5,1.1
					c-0.4,0.3-0.9,0.4-1.5,0.4c-0.5,0-0.9-0.1-1.2-0.2s-0.6-0.4-0.8-0.7c-0.2-0.3-0.3-0.6-0.3-1h1.3c0,0.3,0.1,0.5,0.2,0.7
					c0.2,0.1,0.4,0.2,0.7,0.2c0.2,0,0.4,0,0.5-0.1C1246.8,402.3,1246.9,402.1,1246.9,401.9L1246.9,401.9z M1253.4,398.9h-1.7v4.5
					h-1.3v-4.5h-1.6v-1h4.6V398.9z M1258.7,400.8c0,0.5-0.1,1-0.3,1.4c-0.2,0.4-0.5,0.7-0.9,1c-0.4,0.2-0.8,0.3-1.3,0.3
					s-0.9-0.1-1.3-0.3c-0.4-0.2-0.7-0.5-0.9-0.9c-0.2-0.4-0.3-0.9-0.3-1.4v-0.4c0-0.5,0.1-1,0.3-1.4c0.2-0.4,0.5-0.7,0.9-1
					c0.4-0.2,0.8-0.3,1.3-0.3s0.9,0.1,1.3,0.3c0.4,0.2,0.7,0.5,0.9,1c0.2,0.4,0.3,0.9,0.3,1.4V400.8L1258.7,400.8z M1257.4,400.5
					c0-0.6-0.1-1-0.3-1.3c-0.2-0.3-0.4-0.4-0.8-0.4c-0.7,0-1,0.5-1.1,1.5v0.4c0,0.5,0.1,1,0.3,1.3c0.2,0.3,0.4,0.4,0.8,0.4
					c0.3,0,0.6-0.1,0.8-0.4s0.3-0.7,0.3-1.2L1257.4,400.5L1257.4,400.5z M1170.2,411.8h-1.8l-0.3,1h-1.4l2-5.5h1.3l2,5.5h-1.4
					L1170.2,411.8L1170.2,411.8z M1168.7,410.7h1.2l-0.6-1.9L1168.7,410.7z M1175.3,411.3c0-0.2-0.1-0.3-0.2-0.5
					c-0.1-0.1-0.4-0.2-0.7-0.3l-0.9-0.3c-0.7-0.4-1.1-0.8-1.1-1.5c0-0.3,0.1-0.6,0.3-0.8c0.2-0.2,0.4-0.4,0.8-0.5
					c0.3-0.1,0.7-0.2,1.1-0.2s0.8,0.1,1.1,0.2c0.3,0.1,0.6,0.3,0.7,0.6c0.2,0.3,0.3,0.6,0.3,0.9h-1.3c0-0.2-0.1-0.4-0.2-0.5
					s-0.3-0.2-0.6-0.2c-0.2,0-0.4,0.1-0.6,0.2c-0.1,0.1-0.2,0.2-0.2,0.4c0,0.1,0.1,0.3,0.2,0.4s0.4,0.2,0.8,0.4s0.7,0.3,0.9,0.4
					c0.6,0.3,0.9,0.8,0.9,1.4c0,0.5-0.2,0.9-0.5,1.1c-0.4,0.3-0.9,0.4-1.5,0.4c-0.5,0-0.9-0.1-1.2-0.2c-0.3-0.1-0.6-0.4-0.8-0.7
					c-0.2-0.3-0.3-0.6-0.3-1h1.3c0,0.3,0.1,0.5,0.2,0.7c0.2,0.1,0.4,0.2,0.7,0.2c0.2,0,0.4,0,0.5-0.1
					C1175.2,411.6,1175.3,411.5,1175.3,411.3L1175.3,411.3z"/>
			</g>
		</g>
	</g>
</g>
</svg>
