<?xml version="1.0" encoding="utf-8"?>
<!-- Generator: Adobe Illustrator 18.1.1, SVG Export Plug-In . SVG Version: 6.00 Build 0)  -->
<svg version="1.1" baseProfile="basic" id="Layer_1"
	 xmlns="http://www.w3.org/2000/svg" xmlns:xlink="http://www.w3.org/1999/xlink" x="0px" y="0px" viewBox="0 0 1920 749"
	 xml:space="preserve">
	 <style>

		#ripple {
			transform-origin: center center;
			animation: ripple 1s alternate infinite;
		}

	 	@keyframes ripple {
		 	0% {
		 		transform: scale(1.05)
		 	}

		 	100% {
		 		transform: scale(1.1)
		 	}
	 	}
	 </style>
<g id="bg-lines" opacity="0.3">
	<linearGradient id="SVGID_1_" gradientUnits="userSpaceOnUse" x1="1117.6792" y1="469.0212" x2="1117.6792" y2="469.181">
		<stop  offset="0" style="stop-color:#1A1A1A"/>
		<stop  offset="1" style="stop-color:#595959"/>
	</linearGradient>
	<polygon fill="url(#SVGID_1_)" points="1117.6,469 1117.3,469 1118.1,469.2 	"/>
	<linearGradient id="SVGID_2_" gradientUnits="userSpaceOnUse" x1="1115.5604" y1="148.6893" x2="1115.5604" y2="688.2593">
		<stop  offset="0" style="stop-color:#1A1A1A"/>
		<stop  offset="1" style="stop-color:#595959"/>
	</linearGradient>
	<path fill="url(#SVGID_2_)" d="M2229.7,362.9l-732.9-1l-0.2-0.3l-10.5-17.5l34.8-0.3l-1.5-2.4l-34.8,0.3l-6.6-11l34.7-0.3l-1.5-2.4
		l-15.8,0.1l-7.7-12.3l10.5-0.5l13.9,0l-0.6-0.9l-13.9,0l-12.5,0.6l-16.2,0.6l-2.9-4.8l28.9-0.8l17.9-0.3l-1.5-2.4l-17.9,0.3
		l-28.8,0.8l-0.3-0.4l-13-23.8l15.8-0.2c0.7,1.6,1.8,3.4,3.2,4.4c0.5,0.3,1,0.8,1.6,1.3c1.8,1.6,4.6,4,10.3,6.5
		c7.4,3.3,19.7,7.3,20.3,7.5l1-2c-0.1,0-12.5-4.1-19.5-7.2c-4.8-2.2-7.1-4.1-8.9-5.7c-0.7-0.6-1.4-1.2-2-1.6c-1-0.7-2.4-3.6-3.1-5.9
		l0-0.1l-44.3-93.6l-3.5,0l43.9,93.4c0.2,0.5,0.4,1.3,0.8,2.3l-15.9,0.2l-43.9-92.4l-2.9,0l43.5,92.5l-20.7,0.3l-42.7-93.9l-1.3,0
		l42.6,93.9l-124.4,1.8c-0.3-12.3-1.3-87.2-1.4-90.3h-1.7c0.1,3,1,77.9,1.2,90.3l-17,0.3l-0.6-16.8l-23.9,0.6l8.1-95.9l-1.7,0
		l-9.6,112.5l-7.7,0.1l9.6-116.5l-1.3,0l-9.8,116.4l-69.6,1l3.9-18.6l67-0.2l0.1-0.9l-156.5-0.2c29.2-65,53.3-118.2,53.9-118.8
		l-2.4-0.1c-0.1,0.1-24.3,53.6-53.8,118.9l-1087.1-1v0.9l1086.5,1.3c-5.5,12.3-11.2,24.9-17,37.7L1.4,305.2v1.8l1068.7,1.4
		c-16.5,36.7-33.5,74.5-47.9,106.8L1.4,371.9v0.9c125.1,7.9,859.3,33.8,1020.3,43.5c-22,49.2-38,85.5-37.7,86.2
		c1.1,1.9,3,3.7,9.6,3.7c3.3,0,11.9-0.2,19.4-0.5c6.1-0.2,11.8-0.4,13.5-0.3c2,0,5.8-0.4,10.3-0.8c2.2-0.2,4.6-0.5,6.7-0.7
		l-6.4,10.1c-8.2,0.8-15.6,1.5-17.9,1.8c-5.8,0.8-19.5,3.5-25.4,4.8c-3,0.7-8.9,2.6-15.2,4.5c-6.7,2.1-471.3,161.6-474.7,162.3
		l1.1,0.7c1.1-0.2,459.5-157.8,461.1-158.2l11.8,1.5l-5.5,16.2h0.2l-1,1.4c8.2-1,17.6-1.7,24-1.6c1.6,0,4,0.1,6.6,0.1
		c5.9,0.1,13,0.3,18.7,0.2l5-0.2c4.9-0.2,13.2-0.4,20.6-0.6c5.7-0.1,10.6-0.3,13.1-0.4c1.7-0.1,5.2-0.1,8.8,0c5.4,0,11.3,0.1,16-0.1
		l6-0.1l-0.3-0.4c0.1,0,0.2,0,0.3,0c1.6-0.3,3.8-0.6,6.2-1c7.3-1.2,16.4-2.7,21-3.9c1.2-0.3,2.8-0.7,4.6-1c6.4-1.4,15.1-3.3,19-6.2
		c2.3-1.8,6.1-3,10.3-4.5c3.3-1.1,7.1-2.4,10.5-4.1c7.6-3.8,16-9.1,16.3-9.3l11.5-6.7l0.2-0.2c2.8-2.8,6.5-6.1,7.5-6.6
		c1.5-0.5,6.6-1,17.5-1.7c5.1-0.3,11.1-0.6,16.7-0.8c1.7,7.4,6.4,12,10,15.3l1,0.9c3,2.8,3.9,6.2,4.2,7.7h0.2l-3.6,30.2l-6.5,10.6
		c0,0-3.9,7.7-7.6,13c-2,2.8-2.2,107.9-2.3,109.7l5.4,0c0-1.8,0.3-107,2.3-109.9c3.5-5.1,7.3-12.8,7.4-12.9l6.1-10.2l15.9-0.3
		c0,0,0,0,0,0c-0.1,1.1,4.5,5.5,5.9,6.8l45,47l4.2,79.4l5.3,0l-4-73.8l70.8,74l5.6-0.5l-76.8-80.2l-2.9-53.9l18.7-0.4l34.4-0.6
		l49.6-0.9l42.3,0l67.6,0.6c0,0,16.8,0,19,0c2.3,0,12.1-0.3,13.2-0.3c0.5,0,10.9-0.3,13.7-0.5c2.3-0.2,7.6-0.8,9.7-1.1l16.1,1.7
		l0.2,0.4l3.8,6.2c2.8,0.1,5.7,0.1,8.5,0.2l-3.6-5.7l-22.9-38.7l-7.4-12.2l23.8,0.5c0.7,0.1,1.2-0.7,0.8-1.3
		c-0.1-0.2-0.3-0.3-0.6-0.3l-25.1-0.7l-18.7-30.8c6.8-0.1-1.8-0.1,20.8,1.1c0.7,0,1.1-0.7,0.7-1.3l-0.5-0.7
		c-0.2-0.2-0.4-0.3-0.7-0.3c-18.4-0.6-14.3-1.2-21.8-1.1l-7.2-11.9l31.5-1.1l10,0l637-8v-0.1l-647.7,7.3l-31.3,1.1l-10.7-17.7
		l-5.6-10.2l-20.9-38.5l25.9-1.4c0,0.6,0,1.2,0.2,1.9c0.4,2.4,4.6,8.3,4.8,8.5l9.4,12.8l2,0l-9.4-12.8c0,0-0.7-1-1.5-2.2l684.9-6.9
		v-0.9l-685.5,6.8c-1.1-1.8-2.4-3.9-2.6-5.1c-0.2-1.1-0.2-1.9-0.2-2.7c0-1,0-1.8-0.3-3c-0.5-1.6-2.1-5.1-2.9-6.9l2.6,0l-1.5-2.4
		l-34.9,0.2l-6.1-9.2l731.3,1V362.9z M1485.8,350.8l-39.4,0.6l-9.5,0.2l-3.4-7l48.4-0.4L1485.8,350.8z M1480.5,341.7l-33.3,0.3
		l-5.2-10.8l31.9-0.4h0.1L1480.5,341.7z M1485.8,315.9l0.4,0l7.6,12.2l-17.3,0.1l-7-11.7L1485.8,315.9z M1472.7,328.3L1472.7,328.3
		l-45.9,0.6l-2.5,0l-7-17.3l42.1-0.5l3.2-0.1L1472.7,328.3z M1340.2,334.1l-37.7,0.7c-0.1-7.6-0.3-14.8-0.4-21.6c0.8,0,1.3,0,1.3,0
		l58.6-1.1l53.8-0.6l6.9,17.3l-60.9,0.5l-21.7,0.1L1340.2,334.1z M1448.3,284.3l12.3,23.2l0.6,1.1l-3.1,0.1l-14.7,0.2l-12-24.3
		L1448.3,284.3z M1430,284.5l11.9,24.3l-16.3,0.2l-10.3-24.3L1430,284.5z M1413.9,284.7l10.2,24.3l-62.7,0.7l-58.2,1.1
		c0,0-0.4,0-1.2,0c-0.2-9.2-0.4-17.4-0.6-24.5L1413.9,284.7z M1301.5,410.9c0.5,4,1,5.7,1.7,6.4c-36,0.1-71.3,0.3-74.2,0.4
		c-1,0.1-2.1,0.1-3.3,0.2l0,0c0.5-0.4,3.1-2.8,5.5-4.8l39.7-1.1l20.1-0.9L1301.5,410.9z M1302.7,346.2l29.7-0.2l1,10
		c-3.6,0.1-17.4,0.4-20.3,0.6c-2.3,0.2-7,1.7-10.1,2.7C1302.8,354.9,1302.8,350.5,1302.7,346.2z M1305.3,419.7
		c0.4,1.4,0.9,2.6,1.2,3.5l0.1,0.2c0.2,0.4,0.3,0.7,0.3,0.9l0.1,0.2v0l1.6,3.6l-7,0.1l-11.1-0.5l-39.5,1.9l-11.6-0.1l-14.6-0.4
		l-0.1,0.3l-1-5.2l1.3-3.8c1.5-0.1,3-0.2,4.3-0.2C1231.9,420,1267.4,419.8,1305.3,419.7z M1304.4,408l29.2-0.9l9.7-0.4l5.2,0
		l1.7,10.5c-12.5,0-27.4,0.1-42.5,0.1c-0.2-0.1-0.5-0.2-1-0.3l-0.7-0.1l-0.3-0.6C1305.2,415,1304.8,412.1,1304.4,408z M1303.1,372.5
		l36-0.4l1.2,6.8l-0.2,0c-0.5,1.9-2,4.1-3.3,4.3c-1.3,0.1-3.5,0.2-6,0.2c-2.8,0-5.8,0.1-7.9,0.3c-3.7,0.4-10.8,0.5-13.7,0.5
		c-1.6,0-3.8,0.2-6,0.5C1303.2,380.9,1303.2,376.8,1303.1,372.5z M1301.4,410l-10.5,0.1l-20.1,0.9l-38.5,1.1c1.2-1,2.2-1.9,2.7-2.3
		c0.6-0.5,1.6-1.3,2.7-2.3c0.5-0.4,0.9-0.8,1.4-1.2c0.3,0,5.1,0.1,9.6-0.2c2.1-0.1,4.9-0.5,7.6-0.8c3-0.4,6.2-0.7,8.1-0.8
		c4.1-0.2,12.4-2.7,14.5-3.6c2.8-1.1,3.4-4.5,3.4-6.2c0-0.3,0-0.5,0-0.7c0-2.5-1.8-5.7-2.3-6.6c2-0.1,2.8-0.2,3.6-0.3
		c0.7-0.1,1.4-0.2,3.1-0.2c3.8-0.1,9-0.4,11.5-0.8c0.4-0.1,0.9-0.1,1.5-0.2c0.2,0,0.5-0.1,0.7-0.1
		C1300.6,397.8,1300.9,405.3,1301.4,410z M1280.4,394.1c0,3-1.1,5.4-2.8,6.1c-2.3,0.9-10.1,3.2-13.4,3.3c-2.1,0.1-5.2,0.4-8.4,0.8
		c-2.6,0.3-5.3,0.6-7.3,0.7c-3.3,0.2-6.8,0.2-8.4,0.2c1.1-0.9,2-1.7,2.5-2c1.7-1,6.4-5.6,8.4-7.8c2.1-2.5,6.3-8.5,7.2-10.5
		c0.2-0.4,0.3-0.8,0.5-1.2c0.6-1.5,1.1-2.8,2.3-3.3c0.4-0.1,0.9-0.3,1.4-0.6c1-0.4,2.1-1,3.2-0.9c0.6,0,1.2,0.2,1.9,0.6
		c2,1.2,3,2.8,3.7,4c0.5,0.8,0.7,1.2,1.1,1.4c0.1,0.1,0.3,0.2,0.4,0.4c0.7,0.7,2,2,5.6,2.2l-0.2,0
		C1278.1,387.6,1280.4,391.4,1280.4,394.1z M1299.1,385.2c-0.6,0.1-1.1,0.2-1.5,0.2c-2.3,0.3-7.3,0.6-11.1,0.7
		c-1.8,0.1-2.7,0.2-3.4,0.3c-0.8,0.1-1.7,0.2-4.2,0.3c-3,0-3.9-0.9-4.6-1.7c-0.3-0.3-0.4-0.5-0.7-0.6c-0.2-0.1-0.5-0.6-0.7-1
		c-0.7-1.2-1.8-3-4-4.3c-1-0.6-2.1-0.9-3.2-0.9c-1.9,0-3.4,0.6-4.6,1.2c-0.4,0.2-0.8,0.4-1.2,0.5c-1.9,0.6-2.4,2.1-3.1,3.8
		c-0.1,0.4-0.3,0.8-0.5,1.2c-0.9,2-5.1,7.9-7.2,10.4c-2,2.4-6.7,6.8-8.1,7.6c-1,0.6-2.8,2.1-5.2,4.3c-1.1,1-2.1,1.8-2.7,2.3
		c-0.6,0.4-1.8,1.5-3.3,2.8l-0.7,0l0,0.6c-2.5,2.2-5.3,4.6-5.5,4.8l-0.2,0.4c0,0-0.1,0-0.1,0c-4.4,0.3-9.8,0.6-11.8,0.4
		c-1.2-0.1-6.2-0.4-12.3-0.7c-0.1-1.1-0.2-2.6,0-3.7c0.1-0.4,0.1-0.7,0.1-1c0.1-1.2,0.1-1.7,2.3-3.2c1.4-1,2.4-1.5,4-2.3
		c1.6-0.8,3.8-1.9,7.4-4c7.3-4.4,11.3-6.6,13.5-7.3c0.3-0.1,0.7-0.2,1.2-0.4c3.5-1.1,9.9-3.2,12.3-5.1c2.6-2,9.2-6.2,9.4-6.3
		l9.1-7.6l2.7-3.7l38.9-0.7c0,4.6,0,8.8,0.1,12.5C1300,385.1,1299.5,385.1,1299.1,385.2z M1118.4,469.2c-0.1,0.2-0.2,0.5-0.3,0.8
		l-50.5,0.1l27-50.6l0.8,0c4.7-0.1,9.3-0.2,12.3-0.2c2.4,0,9.7,0,21.2,0h1.1l-0.5,2.5c-5,27.3-7.7,41.2-8.3,42.6
		C1120.3,466.6,1118.5,469,1118.4,469.2L1118.4,469.2z M1180.2,306.5c1.3,0.4,2.9,1.3,3.3,2.2c0.1,0.3,0.3,0.6,0.4,1
		c0.5,1.5,1.1,3.3,3.5,4c1.8,0.6,5.6,0.9,11.2,0.9c0.3,0,0.7,0,1.3,0c2.1,0,8.1-0.2,30.6-0.4l-0.9,12.1l-32.8,0.1l-0.2,0.9l33-0.1
		l-0.7,8.9l-17.6,0.3l-36.8,0.3l-10.2,0.1l1.8-13l5.1-17l0.4,0l0,0C1175.1,306.5,1179.4,306.4,1180.2,306.5z M1276,337.7l-1.3,13.3
		c-1.4,0-2.3-0.1-2.6-0.1c-1.2-0.3-5.5-0.4-6.5-0.4l-14.4,0.5c0.4-4.5,0.7-9.1,1-12.9L1276,337.7z M1252.3,335.7
		c0.1-1.7,0.2-3.3,0.3-4.5l1.6-17.3c8.3-0.1,15.9-0.2,22.5-0.3l-0.5,21.5l0,0.1L1252.3,335.7z M1274.5,351.9l-0.8,7.6l-7.9,0.4
		l-0.7,10.9l-16.1,0.3c0-0.2,0-0.3,0-0.5c0.6-4.5,1.3-11.6,1.9-18.7l14.4-0.5c2,0,5.2,0.2,5.9,0.3
		C1271.6,351.8,1272.7,351.8,1274.5,351.9z M1250.2,331.4c-0.1,1.3-0.2,2.8-0.3,4.4l-19.3,0.3l1.5-21.9c2.1,0,4.4,0,6.9-0.1
		c4.5,0,8.9-0.1,13.1-0.1L1250.2,331.4z M1249.7,338.2c-0.1,0.8-0.1,1.7-0.2,2.5c-0.3,3.3-0.5,6.8-0.8,10.3l-23,0.3l-9.6,0.2
		l2.6-12.8L1249.7,338.2z M1211.2,377.9l0.8-4.2l33.6-0.3l0.8,0c-0.2,1.1-0.3,2.2-0.5,3.2c-0.2,0.8-0.5,1.6-0.9,2.3l0.1-1.6
		L1211.2,377.9z M1161.5,378.7l-41,0.4l1.7-4.2l42.7-0.8l-1.8,4.5L1161.5,378.7z M1162.4,380.5l-8,22.2l-17.5-0.2l6.3-11.9l1.6-9.9
		l16.2-0.2L1162.4,380.5z M1123.2,372.6l13.6-33.4l36.9-0.2l2.2,0l-6,19.4l-18,0.2l-0.3,0.9l18.1-0.2l-3.8,12.5L1123.2,372.6z
		 M1166.7,374.2l15.7-0.3l27.6-0.2l-0.8,4.2l-23,0.4l-21.3,0.3L1166.7,374.2z M1183,371.6l-15.4,0.3l9.9-32.8l33.2-0.2l6.3-0.1
		l-2.7,12.8l-24.7,0.6l-0.2,0.9l24.7-0.6l-1.4,6.6l-2.3,12.3L1183,371.6z M1245.7,371.1l-33.3,0.3l2-10.8l33.5,0.3
		c-0.4,3.6-0.8,7-1.2,10.2L1245.7,371.1z M1214.5,359.7l0.1-0.6l1.3-6.7l9.7-0.2l23-0.3c-0.2,2.7-0.5,5.4-0.7,8L1214.5,359.7z
		 M1164.5,323.8l-1.9,12.9l-24.6,0.1c1.1-1.2,2.9-3.3,3.5-3.9c0.5-0.6,1.3-2.4,2.5-5.3c0.7-1.5,1.3-3,1.6-3.5
		c0.1-0.1,0.2-0.3,0.3-0.6c0.8-1.7,1.8-5.6,1.9-5.8c0.3-2.7,0.9-7.1,1.4-7.9c0.1-0.2,0.6-1.4,1.3-3.2c2-0.2,3.9-0.4,4.7-0.4
		c1.4,0,10.7-0.1,14.7-0.2L1164.5,323.8z M1147.7,309.7c-0.7,1.2-1.4,7.5-1.5,8.2c-0.5,1.8-1.5,5.3-2.1,6.2
		c-0.3,0.5-0.9,1.9-1.6,3.5c-0.8,1.9-1.9,4.5-2.4,5c-0.6,0.7-2.7,3-3.8,4.2l-6.2,0l-1.1,2.4l4.3,0l-3.5,8.5c-1,0.5-6.7,3.2-10.7,5.1
		l17.4-45.4c1.8,0,7.5,0.1,9-0.1c0.9-0.1,2-0.3,3.2-0.4C1148.2,308.5,1147.8,309.6,1147.7,309.7z M1128.8,350.4l-10.1,24.2
		l-9.6,23.5l-4-0.4c-3.5-0.5-8.6-1.2-11.8-1.7l0.8,0l7-19.8l7.6-17.6c2.6-0.7,7.1-2,9.2-3C1119.6,354.8,1125.1,352.1,1128.8,350.4z
		 M1099.2,376.2l-7.1,19.6c-1-0.2-1.7-0.3-2-0.4c-1.4-0.4-11.6-1.2-13.8-1.4l-12.9-0.5l10.8-20.1l2.8-4.9l29.5-9.5L1099.2,376.2z
		 M1075.7,394.9c5.8,0.4,12.4,1.1,13.1,1.3c1.4,0.4,13.9,2.2,15.3,2.3l4.5,0.5l0,0.1l1,0l2.5,0.3l0.3-0.3h0.2l0.1-0.3l0.3-0.3
		l-0.1,0l7-17.5l23.2-0.3l-1.7,9.9l-6.3,11.8l1,0l-13.5-0.1l-0.2,0.4l-7.3,15.7c-3.6,0-5.4,0-6.3,0c-4.8,0-19.2,0.3-23.3,0.8l-0.4,0
		c-3.3,0-19.2-1.3-32.7-2.3l-0.6-0.1l-0.1,0l-0.5,0l12.1-22.5L1075.7,394.9z M1084,420c0.7,0,1.2,0,1.6-0.1c0.6-0.1,2.1-0.2,4.2-0.3
		l1.5-0.1l-33.4,61.2l-43.6-0.1l36.6-62.5C1071.6,419.3,1083.6,420,1084,420z M1130.9,425.5c0.5-2.6,0.8-4.6,1-5.5l0.2-0.8l14.7-0.1
		l23.2-1.3l0.4-0.6l-22.8,1.2h-1.3c-14.4,0.1-23.5,0.1-29.2,0.1l7-15.3l30.1,0.3l-0.2,0.6l-5.4,13.8l2,0l5.3-13.8l8.4-23.7l21.6-0.3
		l9.8-0.2c-0.2,1.3-0.7,4.9-1.4,7.9c-0.5,2.4-1,6.6,1.7,8.4c2.1,1.4,8.6,3.2,8.8,3.3l1.1-0.8c-0.1,0-6.4-1.8-8.3-3
		c-1.8-1.2-2.3-4.1-1.4-7.9c0.7-3,1.2-6.6,1.4-7.9l47.3-0.8c-2.6,4.2-8.9,6.4-12.3,7.6l-1.9,0.7c-6,2.1-12.3,4.3-15.4,6.3
		c-2.5,1.6-7.6,4.5-10.6,6.3c-1.2,0.7-2.3,1.3-2.4,1.4l-21.9,15l2.5,0.3l22.4-15.5c0,0,0.4-0.2,0.9-0.5c2.2-1.3,9-5.2,12-7.1
		c3.3-2.1,9.7-4.6,16.4-6.5c13-3.7,14.1-12,14.1-12.1l0-0.2l0.2-0.2c0-0.1,0.1-0.6,0.2-1.3l10.7-0.2l-2.4,3.3l-9,7.4
		c-0.3,0.2-6.7,4.3-9.4,6.3c-2.3,1.7-8.6,3.8-11.8,4.8c-0.5,0.2-0.9,0.3-1.2,0.4c-2.4,0.8-6.4,3-14,7.5c-3.5,2.1-5.7,3.2-7.3,4
		c-1.7,0.8-2.8,1.4-4.3,2.4c-2.5,1.7-2.5,2.4-2.6,3.7c0,0.3-0.1,0.6-0.1,1c-0.2,1.1-0.1,2.5,0,3.6c-11.1-0.5-24.7-1.2-25.5-1.3
		l-1.2,2.3c0.4,0,36.3,1.7,39.6,2c1.1,0.1,2.5,0.1,4.1,0.1l-9.1,36.5l-65.1,8.1l-5.5-5.3l-8.4-3.3l-1,0.4
		C1126.9,448.4,1129.5,433.3,1130.9,425.5z M1300.3,360.6c0,3.1,0,6.3,0,9.5l-33.3,0.6l0.6-10l7.9-0.4l0.8-8.3
		c6.4,0.1,17.4,0.2,24,0.3c0,2.7,0,5.3,0.1,8c-0.1,0.1-0.3,0.1-0.3,0.1L1300.3,360.6z M1300.2,351.3c-7.9-0.1-18.1-0.2-23.9-0.3
		l1.3-13.3l22.5-0.4C1300.1,341.8,1300.2,346.5,1300.2,351.3z M1300.1,334.9l-22.2,0.4v0l0.4-21.6c9.9-0.1,17.5-0.3,21.6-0.4
		C1299.9,320.1,1300,327.3,1300.1,334.9z M1282.6,286.6l16.9-0.2c0.1,7.1,0.2,15.3,0.3,24.5c-3.6,0.1-9.9,0.2-18.1,0.4L1282.6,286.6
		z M1258,270.6l22.6-0.5l0.5,15.9l-24.3,0.4L1258,270.6z M1256.7,287l0.9,0l23.5-0.3l-0.4,11.5l-10.8,0.4l-14.3,0.8L1256.7,287z
		 M1255.5,300.2l14.4-0.8l10.7-0.4l-0.5,12.2c-7.3,0.1-16,0.3-25.7,0.3L1255.5,300.2z M1225.3,287.5l29.4-0.4l-1.3,12.4l0,0l0,0.3
		l-1.2,11.8c-4.2,0.1-8.5,0.1-13,0.1c-0.6,0-1.3,0-1.9,0l3.8-24.4l-1.4,0l-3.9,24.4c-4.2,0-7.8,0.1-11.1,0.1c0.3-1.2,0.8-3.2,1.2-5
		c0.3-1.4,0.5-2.6,0.5-3.3l0-0.4c0-1.9-0.1-5.5-0.9-7.7c-0.8-2.2,0.6-8,0.6-8L1225.3,287.5z M1224.7,287.5c-0.1,0.4-1.5,6.1-0.6,8.4
		c0.8,2,0.8,5.6,0.8,7.5l0,0.4c0,1.4-1.2,6.2-1.7,8.2c-16.2,0.2-21,0.3-22.8,0.4c-0.5,0-0.8,0-1.1,0c-6.9,0-8.9-0.5-9.4-0.6
		c-1.1-0.3-1.6-1.7-1.9-2.8c-0.2-0.5-0.3-0.9-0.5-1.2c-1-1.8-3.9-2.9-4.8-3.2c-1.6-0.5-6.8-0.3-10.1-0.1l3.4-16.2L1224.7,287.5z
		 M1177.4,268.9l-7.8,36.3c-4.2,0.1-12.7,0.2-14.1,0.2c-0.9,0-2.8,0.2-4.8,0.4c3.6-9.5,12.1-32.5,13.6-36.8L1177.4,268.9z
		 M1163.1,268.9c-2.4,6.5-10.5,28.1-13.9,37c-1.6,0.2-3,0.4-3.5,0.5c-1.1,0.2-5.7,0.1-8.7,0.1l14.4-37.5L1163.1,268.9z
		 M1090.2,268.8l59.4,0.1l-14.8,37.7l-61.5-0.1C1079,293.8,1084.7,281.1,1090.2,268.8z M1072.4,308.4l61.6,0.1l-17.9,45.6l0.5-0.1
		c-0.4,0.2-0.7,0.3-0.9,0.4c-2,0.9-7.7,2.5-9.8,3.1l-27.4,8.8l6.3-10.8l14.9-11.8l2.8-4.4l-1.2,0l-3.1,4.8l-15.2,11.9l-6.4,10.8
		l-0.7,1.3l-3.4,5.8l-23.4,42.8l-24.5-1.5C1039,383,1055.9,345.2,1072.4,308.4z M1036.5,503.7c-3.9,0.4-7.9,0.8-9.4,0.8
		c-1.8,0-7.3,0.1-13.7,0.3c-7.5,0.2-16,0.5-19.1,0.5c-4.9,0-6.6-1.3-7.6-3.2c-0.3-0.5,15.7-36.6,37.5-85.7c9.1,0.6,17.3,1,24.5,1.5
		l-37.3,63.6l46,0.1l-1.4,2.5l-11.9,18.8C1041.9,503.2,1039.2,503.5,1036.5,503.7z M1047.9,503.7h0.2c2.4,0.1,6.9-0.3,11.3-0.6
		c2.6-0.2,5.3-0.4,6.3-0.4c2.9,0,16.3-0.7,17.2-0.8c1-0.1,23.5-3.1,27.5-3.8c2.6-0.4,6.9-0.5,8.8,0c0.3,0,0.7,0.2,0.7,0.3
		c0.1,1-0.8,4.2-0.8,4.2l4.3,5.1l2.5-0.3l-4.2-4.9c0.1-0.5,0.8-3.3,0.8-4.2c0-0.3-0.3-0.7-1.8-0.9c-2.6-0.5-7.6-0.5-11,0
		c-4,0.6-27.1,3.7-27.1,3.7c-3.8,0.2-14.2,0.8-16.4,0.7c-1.4,0-4,0.2-7,0.5c-3.7,0.3-8.3,0.7-10.2,0.6c-0.1,0-0.3,0-0.5,0l11.8-19
		l1.1-2l5.3-9.9l50.7-0.1c-1.1,2.8-2.7,6.7-3.5,8.3c-0.3,0.9-1.6,12.9-1.9,16.5l2.6-0.1c0.3-3.4,1.4-16.1,1.8-16.8
		c0.9-1.8,2.9-6.7,4.4-10.8l0.1-0.2c0.3-0.4,1.9-2.6,2.8-4.8c0.2-0.5,0.7-2.8,1.4-6.2l7.4,2.8l16.7,16.1l30,27.9l-2.7-0.1l-29.3,1.9
		l-27,1.9l-28.5,1.7l-27.9,1.6c-0.8,0.1-11.4,1-22.1,2.1L1047.9,503.7z M1021.6,546.1c-5.3,0.1-12.5,0-18-0.2
		c-2.8-0.1-5.2-0.1-6.9-0.1c-6.5-0.1-13.5,0.3-21.4,1.2l5.4-16l-12.2-1.6c3.5-1,7.6-2.3,11.7-3.5c5.9-1.8,12-3.8,14.8-4.4
		c6.3-1.4,19.5-4,24.8-4.7c2.1-0.3,9-1,16.8-1.7L1021.6,546.1z M1185.4,508.6l-11.5,6.6c-0.1,0.1-8.6,5.5-16.1,9.1
		c-3.2,1.5-6.6,2.7-9.9,3.9c-4.5,1.5-8.8,3-11.6,5.1c-3.2,2.3-10.7,4-16.8,5.3c-1.8,0.4-3.6,0.8-5,1.1c-4.1,1-13.2,2.6-19.9,3.7
		c-2.5,0.4-4.7,0.8-6.3,1.1c-3.2,0.6-12.6,0.5-18.9,0.4c-4,0-7.5-0.1-9.7,0c-2.2,0.1-7.3,0.2-12.7,0.4c-7.2,0.2-15.2,0.4-20.4,0.6
		l14.6-31.3c11.3-1.1,22.6-2.1,22.8-2.1l27.8-1.6l28.6-1.7l27.1-1.9l28.9-1.9l3.9,0.2l0.1,0.1l0.4-0.1l7.5,0.3
		C1187.3,506.7,1186.4,507.6,1185.4,508.6z M1231.5,483.4l-0.1,0.8c-0.4,6-0.4,10.5-0.1,13.6c0,0.2,0.1,0.4,0.1,0.5
		c-5.6,0.2-11.8,0.5-16.9,0.8c-14.3,0.9-17.9,1.4-20.2,2.1c-1,0.3-2.8,1.6-5.2,3.7l-7-0.3l-30.7-28.4l-3.3-3.2l84.7-2.5
		C1232.4,473.7,1231.8,478.5,1231.5,483.4z M1233.2,467.2c-0.1,0.4-0.2,1.3-0.3,2.4l-85.7,2.6l-6.3-6l70.2-8.7l23.4-0.5
		L1233.2,467.2z M1210.9,456.6l-3.5,0.4l8.8-36.2c2-0.1,4.2-0.2,6.5-0.3l-1.3,3.7l1.3,7l7.8,8.2l2-0.4l-7.7-8l-0.2-1l14.4,0.4
		l11.8,0.1l39.5-1.9l11.1,0.5l7.4-0.1l3.7,8.4v0.2l-0.2,14c-8.9-0.4-18.3-0.8-26.4-1.2c-5.9-0.3-11.1-0.5-15-0.7
		c-12.6-0.6-25.7-0.2-31.9,0l1.1-9.2h-3.5l-2,15.7L1210.9,456.6z M1312.3,453.9l-0.1,8l-14.2,0.4l-8.9,1.6l-8.8,0.6l-43.2,0.9
		l1.6-13.4c5.6-0.2,19-0.7,31.4,0c3.9,0.2,9.2,0.4,15.2,0.7C1293.7,453,1303.3,453.4,1312.3,453.9z M1235.6,497.8
		c-0.4-3.2-0.4-8-0.1-14.4l0.1-0.8c0-0.5,0.1-1,0.1-1.6l75.4-1.3l-0.2-0.9l-75.2,1.3c0.5-6.3,1.1-11.8,1.3-13l0.1-0.8l43.5-0.9
		l9.1-0.6l8.7-1.6l13.8-0.4l-0.3,20.1l0,0.9l-0.1,4.6l0,7.6l-15.5,0.2c-1.8,0-17.2,0.5-21.2,0.9c-2.6,0.3-7.5,0.4-10.1,0.5
		c-0.1-0.1-0.1-0.2-0.2-0.3c-1.4-2.2-2.9-8.6-2.9-8.7l-4.9,0.2c0.1,0.3,1.5,6.4,2.9,8.8l-12.2,0.1c-0.1,0-5.3,0.2-12.1,0.4
		C1235.7,498,1235.7,497.9,1235.6,497.8z M1266.1,499.4c2.9-0.1,7.6-0.2,10.3-0.5c3-0.3,15.8-0.7,20.3-0.8l15.1-0.2l0.1,11
		l-44.6,0.4c0.6-1.4,1-2.7,0.9-3.5C1268.1,504.2,1267.1,501.6,1266.1,499.4z M1266.8,510.2l45.1-0.4l0.1,13.3l-50.6-1.3
		c0.5-2.4,1.7-5,2.9-6.9C1264.9,513.8,1266,512,1266.8,510.2z M1264.6,552.5l-15.9,0.3l2.9-27.9c0-0.5-0.4-4.8-4.3-8.4l-1-0.9
		c-3.5-3.2-8.5-8-10.3-15.6c6.7-0.3,11.8-0.4,11.9-0.4l13.1-0.1c1.1,2.3,2.1,5,2.1,6.4c0.1,1.4-1.4,4.6-3.9,8.7
		c-1.6,2.5-3.3,6.3-3.3,9.3c0,2.9,2.9,8.4,3,8.5c0.2,0.6,4.9,15.8,5.7,17.6C1264.9,550.8,1264.8,551.7,1264.6,552.5z M1264.2,532.1
		c0-0.1-3-5.6-3-8.3c0-0.1,0-0.2,0-0.2l50.8,1.3l0,11.2l-24.5-0.5l-22.2,0C1264.6,533.6,1264.2,532.2,1264.2,532.1z M1265.6,536.5
		l21.8,0l24.6,0.4l0.1,14.6l-13,0.3l-28.9,0.5c0.2-0.8,0.3-1.8-0.2-2.7C1269.5,548.6,1267.2,541.3,1265.6,536.5z M1275.5,560.6
		c-2.8-2.6-5.7-5.7-5.7-6.3c0-0.1,0-0.1,0-0.2l29.8-0.5l12.6-0.3l2.5,48.1L1275.5,560.6z M1312.3,429l31.3-0.4l2.7,25.7
		c-1-0.1-2.1-0.3-3.1-0.4c-5.4-0.8-15.7-1.5-27.1-2.1l0-14.3L1312.3,429z M1497.5,470.1c6.1,0.5,12.2,0.8,19.5,0.6l14.4,28.3
		l-22.1-0.6L1497.5,470.1z M1513.5,520.9l-41,0.1l-9.1-22.2c5,0.2,24.8,0.9,27.8,1c2.4,0,9.8,0.2,13.7,0.3L1513.5,520.9z
		 M1504.3,498.3c-4-0.1-11.3-0.3-13.8-0.3c-2.6,0-20.3-0.7-27.7-1l-9.9-30.3c12.1,0.9,25.2,1.9,32.2,2.4c2.2,0.2,4.3,0.4,6.3,0.5
		c0.4,0,0.9,0.1,1.3,0.1L1504.3,498.3z M1373.4,474.3l-2.3-14.9c2.2,0.2,4.4,0.5,6.5,0.8c4.6,0.6,6.4,1.1,8.1,1.6
		c2.6,0.7,4.7,1.2,9.7,1.6l10,34h-1.4c-0.7,0-5.1-0.2-8.9-0.4c-7.2-0.3-15.3-0.8-18.5-0.8l-15.1-0.1l-4.7-21.9L1373.4,474.3z
		 M1316,473.1l0-19c10.8,0.6,20.4,1.2,25.3,2c7.3,1.1,14.2,1.8,20.9,2.5c2.3,0.2,4.4,0.4,6.6,0.7l2.1,14.2L1316,473.1z
		 M1401.7,463.8c5.2,0.3,9.7,0.4,14.1,0.6c5.4,0.2,10.5,0.4,16.3,0.8c3.9,0.3,9.6,0.7,16,1.1l3.4,10.7l-22.9,0.1l-4.1-8.6l-21.2,0.2
		L1401.7,463.8z M1403.5,469.6l19.1-0.1l4.1,8.6l25.2-0.1l6.1,19.1c-6.5,0.1-19.2,0.3-22.2,0.4c-2.7,0-15.1,0-23.6,0L1403.5,469.6z
		 M1485.2,466.7c-11.7-0.9-40.7-3.1-52.8-3.9c-6.1-0.4-11.3-0.6-16.8-0.8c-4.6-0.2-9.3-0.3-14.7-0.6l-10.1-33l10.9,0l70.5-0.6
		l7.4,21.5c0.1,0.1,9.2,14.9,9.7,16c0.1,0.2,0.4,1.2,0.6,1.8C1488.4,467,1486.9,466.8,1485.2,466.7z M1394.7,460.9
		c-3.1-0.3-4.4-0.6-5.9-1.1c-1.9-0.5-4.3-1.1-9.7-1.9c-2.8-0.4-5.6-0.7-8.4-1l-4.4-28.5l18.8-0.1L1394.7,460.9z M1368.4,456.7
		c-1.7-0.2-3.4-0.4-5.2-0.5c-4.8-0.5-9.7-1-14.7-1.6l-2.9-26l18.6-0.1L1368.4,456.7z M1316,488.5l0-14.5l36.2,0.2l4.5,21.9h-0.1
		l-36.5,0l-3.9,0L1316,488.5z M1316.1,497.9l4.1,0l36.6,0h0.3l0.1,0.5l2.7,24.2c-1.8,0.1-3.4,0.2-4.7,0.3c-4.6,0.3-11,0.3-16,0.4
		c-3,0-5.5,0-7.4,0.1c-3.6,0.1-11.6,0-15.1-0.1L1316.1,497.9z M1335.3,551.1l-18.3,0.4l-0.4-26.5c3.8,0.1,11.8,0.2,15.8,0.1
		c1.6-0.1,4.1-0.1,6.9-0.1c5.3,0,12,0,17.2-0.4c1-0.1,2.2-0.1,3.5-0.2l2.7,26.3L1335.3,551.1z M1362.1,498.4l-0.1-0.5l15,0.1
		c2.8,0,11.6,0.4,17.9,0.8c5.6,0.3,8.5,0.4,9.5,0.4c2.5,0,27.9,0.1,32.1,0c3-0.1,15.3-0.3,22-0.4l8.8,22.2l-52.8,0.3
		c-0.2,0-24.7,0.5-29.3,0.6c-4.4,0.1-12.8,0.2-20.2,0.5L1362.1,498.4z M1365.2,524.2c7.8-0.3,17.2-0.4,20.7-0.5
		c4.7-0.1,28.5-0.6,29.4-0.6l52.8-0.3l2.9,7.3l-73.3,2.3l-1.6,4l-29.5,0.4L1365.2,524.2z M1461.4,549.6H1419l-49.5,0.9l-1.3,0
		l-1.5-12.9l31.8-0.4l1.6-4l71.2-2.3l7.5,18.8L1461.4,549.6z M1473.3,522.8l40.9-0.1l6.3,15.2l-41.1-0.1L1473.3,522.8z
		 M1484.4,549.8l-4.6-11.1l41.1,0.2l4.7,11.3L1484.4,549.8z M1573.2,549.5c-2.1,0.1-10.1,0.4-13.1,0.5c-4.1,0.1-11.1,0.3-12.5,0.3
		c-1.6,0-11.6,0-16.4,0l-6.9-16.3l43.2-0.7l10.4,15.7C1576,549.2,1574.2,549.4,1573.2,549.5z M1600.1,550l-16.3-1.7l-0.8,0.1
		c-0.6,0.1-1.5,0.2-2.6,0.3l-10.3-15.5l20.3-0.3L1600.1,550z M1579.3,513.5l10.5,18.5l-65.9,1.1l-4.4-10.3h1.7
		c0.1,0,9.1,0.2,14.9,0.4c4.3,0.2,16.9,1,27,1.6c3.7,0.2,7.2,0.5,10.1,0.6l-0.2-1.8c-2.8-0.2-6.3-0.4-10-0.6
		c-10.7-0.7-22.8-1.5-27.3-1.7c-6-0.2-14.9-0.4-15.4-0.4h-1.6l-4.3-10.3l63.6,0.7L1579.3,513.5z M1577.5,510.5l-63.5-0.7l-4-9.5
		l62.4,1.6L1577.5,510.5z M1571.4,500l-37.5-1l-14.6-28.4c2.5-0.1,5.1-0.2,7.9-0.3c8.5-0.3,17.9-0.6,26.3-0.9L1571.4,500z
		 M1552.1,467c-8.6,0.2-18.1,0.6-26.8,0.9c-3.2,0.1-6.2,0.2-9,0.3c-3.5,0.1-6.6,0.1-9.6,0c-0.6-2.5-1.6-6.2-1.2-7.1
		c0.2-0.4,0.9-1.1,1.7-1.9c0.4-0.4,0.9-0.9,1.3-1.3l39.3,1.8L1552.1,467z M1536.3,375.7c0.8,1.8,2.3,5.3,2.8,6.8
		c0.3,1.1,0.3,1.9,0.3,2.8l-26.4,1.5l-0.8-1.4l-6.3-9.4L1536.3,375.7z M1507.1,384.7l0.1,0.2l-119.2,2.4l0.8,2.4l119.7-2.4l20,38.2
		l5.4,10.3l13.5,23l-38.1-1.8c1-1.2,1.6-2.4,1.2-3.3c-0.9-1.9-7.4-16.5-7.4-16.6l-2.2,0c0.1,0.2,6.4,14.7,7.3,16.7
		c0.6,1.2-1.6,3.4-3.2,5c-0.9,0.9-1.6,1.6-1.8,2c-0.6,1.2,0.7,5.5,1.1,7.3c-4-0.2-7.8-0.5-12.1-0.9c-0.2-0.7-0.6-1.8-0.7-2
		c-0.5-1.1-9.5-15.4-9.8-16l-13.7-39.4l12.1,0.2l-0.3-0.9l-13.2-0.2l-18.6-2.7l-28.7-3l-29.3-3.6l-0.3,0.9l29.4,3.6l28.7,3l18.3,2.7
		l5.8,17.1l-70.5,0.6l-56.2,0.2l-33.4,0.4l-1.6-3.6c0-0.2-0.2-0.6-0.4-1.2c-0.3-0.8-0.8-2.2-1.2-3.6c26.8-0.1,54.3-0.1,71.8-0.2
		c0.6,1,1.8,2.3,4.3,3.1c3.4,1,8.8,1.6,11.7,1.8l0.3-2.4c-3.1-0.2-7.2-0.7-9.2-1.3c-1.2-0.4-2-1.6-2.2-2.4l-0.3-1.2l-2.8,0
		c-1.7,0-13.6,0-30.1,0.1l-1.9-11.4l-7.3,0l-38.8,1.3c-0.4-5.2-0.8-12.4-1-21.5c2.2-0.3,4.5-0.5,6-0.5c2.7,0,10-0.1,14.1-0.5
		c1.9-0.2,4.8-0.2,7.6-0.3c2.5,0,4.9-0.1,6.3-0.2c1.9-0.2,3.1-1.6,3.8-2.9l37.9,0.3l-0.5-2.4l-33.3-0.3l-2.9-15.2l34.3,0l-0.5-2.4
		l-34,0l-0.8-10.6l26.8-0.5l-0.5-1.8l-29.9,0.6l0.8,12.4h-1.4l1.5,8.5l-35.6,0.4c-0.1-3.3-0.1-6.5-0.2-9.7c3.3-1.1,8.4-2.8,10.4-2.9
		c3.2-0.2,20.8-0.6,21-0.6l0.8,0l-1.1-10.9l32.3-0.3l-0.4-1.8l-63.3,0.5c0-2.4-0.1-4.8-0.1-7.1l42.1-0.8l-0.2-4.6l17.8-0.1l65.5-0.5
		l12.7-0.2l5.1,10.8l-79.1,0.6l0.6,2.4l64.8-0.5l3.4,7.1l-61.1,1l0.5,1.8l72.7-1.2l39.5-0.6l4.9,8.4L1507.1,384.7z"/>
</g>
<g id="ripple">
		<circle fill="none" stroke="#AFDD48" stroke-width="2" stroke-linecap="round" stroke-miterlimit="10" cx="1254.4" cy="370.4" r="198.5"/>
	
		<circle fill="none" stroke="#AFDD48" stroke-width="2.5" stroke-linecap="round" stroke-miterlimit="10" cx="1254.4" cy="370.4" r="131.1"/>
	<circle fill="none" stroke="#AFDD48" stroke-linecap="round" stroke-miterlimit="10" cx="1254.4" cy="370.4" r="274.4"/>
	
		<circle fill="none" stroke="#AFDD48" stroke-width="0.5" stroke-linecap="round" stroke-miterlimit="10" cx="1254.4" cy="370.4" r="357.6"/>
</g>
<g id="phone">
	<g>
		<g opacity="0.65">
			<path fill="#C4C4C3" d="M1259.5,349.6c0.3-0.2,0.3-0.6-0.1-0.8l-1.9-1c-0.3-0.2-0.9-0.2-1.2,0.1l-1.7,1.3
				c-0.3,0.2-0.3,0.6,0.1,0.8l1.9,1c0.3,0.2,0.9,0.2,1.2-0.1L1259.5,349.6z"/>
			<path fill="#C4C4C3" d="M1273,353l6.5-4.8c0.3-0.2,0.3-0.6-0.1-0.8l-7.1-3.9c-1.5-0.8-3.8-0.6-5.1,0.4l-6.5,4.8
				c-0.3,0.2-0.3,0.6,0.1,0.8l7.1,3.9C1269.3,354.2,1271.6,354,1273,353z"/>
		</g>
		<g>
			<path fill="#B2D935" d="M1257.7,347c-0.3-0.3-0.9-0.3-1.2,0l-1.8,1.8c-0.3,0.3-0.3,0.9,0,1.2l1.8,1.8c0.3,0.3,0.9,0.3,1.2,0
				l1.8-1.8c0.3-0.3,0.3-0.9,0-1.2L1257.7,347z"/>
			<path fill="#B2D935" d="M1264.5,333.8l-6.8-6.8c-0.3-0.3-0.9-0.3-1.2,0l-6.8,6.8c-1.4,1.4-1.4,3.7,0,5.1l6.8,6.8
				c0.3,0.3,0.9,0.3,1.2,0l6.8-6.8C1265.9,337.5,1265.9,335.2,1264.5,333.8z"/>
		</g>
	</g>
	<rect x="1149.8" y="180.9" fill="#9CC34C" width="208" height="370.2"/>
	
		
	<g>
		<path fill="#3E3E3D" d="M1340,623.5h-172.2c-20.2,0-36.6-16.4-36.6-36.6V144.3c0-20.2,16.4-36.6,36.6-36.6H1340
			c20.2,0,36.6,16.4,36.6,36.6V587C1376.6,607.2,1360.3,623.5,1340,623.5z"/>
		<g>
			<g>
				<path fill="#FFFFFF" d="M1221.2,155.4c-1.8,0-3.3-1.5-3.3-3.3c0-1.8,1.5-3.3,3.3-3.3s3.3,1.5,3.3,3.3
					C1224.4,154,1223,155.4,1221.2,155.4z M1221.2,149.9c-1.3,0-2.3,1-2.3,2.3c0,1.3,1,2.3,2.3,2.3c1.3,0,2.3-1,2.3-2.3
					C1223.4,150.9,1222.4,149.9,1221.2,149.9z"/>
				<path fill="#FFFFFF" d="M1254.1,137.5c-2.8,0-5.1-2.3-5.1-5.1c0-2.8,2.3-5.1,5.1-5.1c2.8,0,5.1,2.3,5.1,5.1
					C1259.2,135.2,1256.9,137.5,1254.1,137.5z M1254.1,128.3c-2.2,0-4.1,1.8-4.1,4.1c0,2.2,1.8,4.1,4.1,4.1c2.2,0,4.1-1.8,4.1-4.1
					C1258.2,130.2,1256.4,128.3,1254.1,128.3z"/>
				<path fill="#FFFFFF" d="M1273.1,154.7h-38.7c-1.4,0-2.5-1.2-2.5-2.7c0-1.5,1.1-2.7,2.5-2.7h38.7c1.4,0,2.5,1.2,2.5,2.7
					C1275.5,153.5,1274.4,154.7,1273.1,154.7z M1234.3,150.2c-0.8,0-1.5,0.8-1.5,1.7c0,1,0.7,1.7,1.5,1.7h38.7
					c0.8,0,1.5-0.8,1.5-1.7c0-1-0.7-1.7-1.5-1.7H1234.3z"/>
			</g>
			<g>
				<path fill="#FFFFFF" d="M1254.4,605.3c-10.4,0-18.9-8.5-18.9-18.9c0-10.4,8.5-18.9,18.9-18.9c10.4,0,18.9,8.5,18.9,18.9
					C1273.4,596.8,1264.9,605.3,1254.4,605.3z M1254.4,568.5c-9.9,0-17.9,8-17.9,17.9c0,9.9,8,17.9,17.9,17.9
					c9.9,0,17.9-8,17.9-17.9C1272.4,576.5,1264.3,568.5,1254.4,568.5z"/>
				<path fill="#FFFFFF" d="M1254.4,609c-12.5,0-22.6-10.2-22.6-22.6c0-12.5,10.2-22.6,22.6-22.6c12.5,0,22.6,10.2,22.6,22.6
					C1277.1,598.9,1266.9,609,1254.4,609z M1254.4,564.8c-11.9,0-21.6,9.7-21.6,21.6c0,11.9,9.7,21.6,21.6,21.6
					c11.9,0,21.6-9.7,21.6-21.6C1276.1,574.5,1266.4,564.8,1254.4,564.8z"/>
			</g>
			<path fill="#FFFFFF" d="M1337.4,107.7h-41.9v-3.3h41.9V107.7z M1296.4,106.7h39.9v-1.3h-39.9V106.7z"/>
			<g>
				<path fill="#FFFFFF" d="M1376.6,155.9h-6.1V151h6.1V155.9z M1371.1,155.4h5.1v-3.8h-5.1V155.4z"/>
				<path fill="#FFFFFF" d="M1138,155.9h-6.8V151h6.8V155.9z M1131.8,155.4h5.8v-3.8h-5.8V155.4z"/>
				<path fill="#FFFFFF" d="M1376.6,580.4h-6.1v-4.8h6.1V580.4z M1371.1,579.9h5.1V576h-5.1V579.9z"/>
				<path fill="#FFFFFF" d="M1138.1,580.4h-6.8v-4.8h6.8V580.4z M1131.8,579.9h5.8V576h-5.8V579.9z"/>
			</g>
			<g>
				<path fill="#FFFFFF" d="M1132,202.3h-3.3V178h3.3V202.3z M1129.7,201.3h1.3V179h-1.3V201.3z"/>
				<path fill="#FFFFFF" d="M1132,246.4h-3.3v-19.7h3.3V246.4z M1129.7,245.4h1.3v-17.7h-1.3V245.4z"/>
				<path fill="#FFFFFF" d="M1132,289.1h-3.3v-20h3.3V289.1z M1129.7,288.1h1.3v-18h-1.3V288.1z"/>
			</g>
			<path fill="#FFFFFF" d="M1358.8,551.2h-209V179.9h209V551.2z M1150.8,550.2h207V180.9h-207V550.2z"/>
			<path fill="#FFFFFF" d="M1339.3,617.7h-170c-17.6,0-32-14.3-32-32V144.5c0-17.6,14.3-32,32-32h170c17.6,0,32,14.3,32,32v441.3
				C1371.3,603.4,1356.9,617.7,1339.3,617.7z M1169.3,113.5c-17.1,0-31,13.9-31,31v441.3c0,17.1,13.9,31,31,31h170
				c17.1,0,31-13.9,31-31V144.5c0-17.1-13.9-31-31-31H1169.3z"/>
			<path fill="#FFFFFF" d="M1338.6,625.2h-169.3c-21.4,0-38.8-17.4-38.8-38.8V289.6h-2.3v-21h2.3v-21.7h-2.3v-20.7h2.3v-23.5h-2.3
				v-25.3h2.3V145c0-21.4,17.4-38.8,38.8-38.8h125.7v-2.3h42.9v2.3h0.7c21.4,0,38.8,17.4,38.8,38.8v441.5
				C1377.4,607.8,1360,625.2,1338.6,625.2z M1130.2,287.6h2.3v298.9c0,20.3,16.5,36.8,36.8,36.8h169.3c20.3,0,36.8-16.5,36.8-36.8
				V145c0-20.3-16.5-36.8-36.8-36.8h-2.8v-2.3h-38.9v2.3h-127.7c-20.3,0-36.8,16.5-36.8,36.8v34.5h-2.3v21.3h2.3v27.5h-2.3v16.7h2.3
				v25.7h-2.3V287.6z"/>
		</g>
	</g>
	<g>
		<g>
			<defs>
				<rect id="SVGID_3_" x="1149.8" y="180.9" width="208.2" height="370.3"/>
			</defs>
			<clipPath id="SVGID_4_">
				<use xlink:href="#SVGID_3_"  overflow="visible"/>
			</clipPath>
			<g clip-path="url(#SVGID_4_)">
				<rect x="1149.8" y="180.9" fill="#F7F9FB" width="208.2" height="370.3"/>
				<g>
					<g>
						<rect x="1149.6" y="213.4" fill="#CCF139" width="865.8" height="175.9"/>
						<polygon fill="#AEDC48" points="1247.4,316.1 1247.4,389.1 1149.6,389.1 1149.6,356.2 1181,333.5 1236.3,333.5 1236.3,316.1 
													"/>
						<rect x="1247.4" y="278" fill="#AEDC48" width="31.7" height="111"/>
						<rect x="1279" y="317.8" fill="#AEDC48" width="46.3" height="71.2"/>
						<rect x="1325.3" y="333.5" fill="#AEDC48" width="46.3" height="55.5"/>
						<rect x="1359.3" y="307.3" fill="#AEDC48" width="46.3" height="81.8"/>
						<rect x="1388.6" y="293.2" fill="#AEDC48" width="9.7" height="71"/>
						<polygon fill="#AEDC48" points="1503.4,316.1 1503.4,389.1 1405.6,389.1 1405.6,356.2 1437,333.5 1492.4,333.5 1492.4,316.1 
													"/>
						<rect x="1503.4" y="278" fill="#AEDC48" width="31.7" height="111"/>
						<rect x="1535" y="317.8" fill="#AEDC48" width="46.3" height="71.2"/>
						<rect x="1581.3" y="333.5" fill="#AEDC48" width="46.3" height="55.5"/>
						<rect x="1615.3" y="307.3" fill="#AEDC48" width="46.3" height="81.8"/>
						<rect x="1644.6" y="293.2" fill="#AEDC48" width="9.7" height="71"/>
						<polygon fill="#AEDC48" points="1759.4,316.1 1759.4,389.1 1661.6,389.1 1661.6,356.2 1693,333.5 1748.4,333.5 1748.4,316.1 
													"/>
						<rect x="1759.4" y="278" fill="#AEDC48" width="31.7" height="111"/>
						<rect x="1791" y="317.8" fill="#AEDC48" width="46.3" height="71.2"/>
						<rect x="1837.3" y="333.5" fill="#AEDC48" width="46.3" height="55.5"/>
						<rect x="1871.3" y="307.3" fill="#AEDC48" width="46.3" height="81.8"/>
						<rect x="1900.6" y="293.2" fill="#AEDC48" width="9.7" height="71"/>
						<polygon fill="#AEDC48" points="2015.4,316.1 2015.4,389.1 1917.6,389.1 1917.6,356.2 1949,333.5 2004.4,333.5 2004.4,316.1 
													"/>
					</g>
					<g>
						<g>
							<path fill="#CCF139" stroke="#FFFFFF" stroke-width="2" stroke-linecap="round" stroke-miterlimit="10" d="M1183.6,370.7
								L1183.6,370.7c-7,0-12.6-5.6-12.6-12.6v-42.4c0-7,5.6-12.6,12.6-12.6h0c7,0,12.6,5.6,12.6,12.6v42.4
								C1196.2,365,1190.6,370.7,1183.6,370.7z"/>
							
								<line fill="none" stroke="#FFFFFF" stroke-width="2" stroke-linecap="round" stroke-miterlimit="10" x1="1183.6" y1="389.1" x2="1183.6" y2="327.3"/>
							<path fill="none" stroke="#FFFFFF" stroke-width="2" stroke-linecap="round" stroke-miterlimit="10" d="M1190,355.9
								c0,3.5-2.9,6.4-6.4,6.4c-3.5,0-6.4-2.9-6.4-6.4"/>
							<path fill="none" stroke="#FFFFFF" stroke-width="2" stroke-linecap="round" stroke-miterlimit="10" d="M1190,344.2
								c0,3.5-2.9,6.4-6.4,6.4c-3.5,0-6.4-2.9-6.4-6.4"/>
							<path fill="none" stroke="#FFFFFF" stroke-width="2" stroke-linecap="round" stroke-miterlimit="10" d="M1190,332.5
								c0,3.5-2.9,6.4-6.4,6.4c-3.5,0-6.4-2.9-6.4-6.4"/>
						</g>
						<g>
							<path fill="#CCF139" stroke="#FFFFFF" stroke-width="2" stroke-linecap="round" stroke-miterlimit="10" d="M1222.3,370.7
								L1222.3,370.7c-7,0-12.6-5.6-12.6-12.6v0c0-7,5.6-12.6,12.6-12.6l0,0c7,0,12.6,5.6,12.6,12.6v0
								C1234.9,365,1229.2,370.7,1222.3,370.7z"/>
							
								<line fill="none" stroke="#FFFFFF" stroke-width="2" stroke-linecap="round" stroke-miterlimit="10" x1="1222.3" y1="389.1" x2="1222.3" y2="355.5"/>
							<path fill="none" stroke="#FFFFFF" stroke-width="2" stroke-linecap="round" stroke-miterlimit="10" d="M1227.2,358.2
								c0,2.7-2.2,4.9-4.9,4.9c-2.7,0-4.9-2.2-4.9-4.9"/>
						</g>
					</g>
					<g>
						<g>
							<path fill="#CCF139" stroke="#FFFFFF" stroke-width="2" stroke-linecap="round" stroke-miterlimit="10" d="M1415.3,370.7h6.4
								c5.2,0,9.4-4.2,9.4-9.4v-48.8c0-5.2-4.2-9.4-9.4-9.4h-6.4c-5.2,0-9.4,4.2-9.4,9.4v48.8
								C1405.9,366.5,1410.1,370.7,1415.3,370.7z"/>
							
								<line fill="none" stroke="#FFFFFF" stroke-width="2" stroke-linecap="round" stroke-miterlimit="10" x1="1418.5" y1="389.1" x2="1418.5" y2="327.3"/>
							<path fill="none" stroke="#FFFFFF" stroke-width="2" stroke-linecap="round" stroke-miterlimit="10" d="M1412.1,355.9
								c0,3.5,2.9,6.4,6.4,6.4c3.5,0,6.4-2.9,6.4-6.4"/>
							<path fill="none" stroke="#FFFFFF" stroke-width="2" stroke-linecap="round" stroke-miterlimit="10" d="M1412.1,344.2
								c0,3.5,2.9,6.4,6.4,6.4c3.5,0,6.4-2.9,6.4-6.4"/>
							<path fill="none" stroke="#FFFFFF" stroke-width="2" stroke-linecap="round" stroke-miterlimit="10" d="M1412.1,332.5
								c0,3.5,2.9,6.4,6.4,6.4c3.5,0,6.4-2.9,6.4-6.4"/>
						</g>
						<g>
							<path fill="#CCF139" stroke="#FFFFFF" stroke-width="2" stroke-linecap="round" stroke-miterlimit="10" d="M1376.6,370.7h6.4
								c5.2,0,9.4-4.2,9.4-9.4v-6.4c0-5.2-4.2-9.4-9.4-9.4h-6.4c-5.2,0-9.4,4.2-9.4,9.4v6.4C1367.2,366.5,1371.4,370.7,1376.6,370.7
								z"/>
							
								<line fill="none" stroke="#FFFFFF" stroke-width="2" stroke-linecap="round" stroke-miterlimit="10" x1="1379.8" y1="389.1" x2="1379.8" y2="355.5"/>
							<path fill="none" stroke="#FFFFFF" stroke-width="2" stroke-linecap="round" stroke-miterlimit="10" d="M1374.9,358.2
								c0,2.7,2.2,4.9,4.9,4.9s4.9-2.2,4.9-4.9"/>
						</g>
					</g>
					<g>
						<rect x="1265.5" y="339" fill="#AEDC48" width="85.3" height="6.4"/>
						<rect x="1265.5" y="345.5" fill="#CCF139" width="85.3" height="44.1"/>
						
							<rect x="1265.5" y="339" fill="none" stroke="#FFFFFF" stroke-width="2" stroke-linecap="round" stroke-miterlimit="10" width="85.3" height="50.6"/>
						<polygon fill="#CCF139" stroke="#FFFFFF" stroke-width="2" stroke-linecap="round" stroke-miterlimit="10" points="
							1361.6,339 1254.8,339 1269.1,316.7 1347.3,316.7 						"/>
						
							<rect x="1318.6" y="359.4" fill="#AEDC48" stroke="#FFFFFF" stroke-width="2" stroke-linecap="round" stroke-miterlimit="10" width="17.9" height="30.2"/>
						<g>
							<g>
								
									<rect x="1276.1" y="361.2" fill="#CCF139" stroke="#FFFFFF" stroke-width="2" stroke-linecap="round" stroke-miterlimit="10" width="10.3" height="10.6"/>
								
									<rect x="1286.3" y="361.2" fill="#CCF139" stroke="#FFFFFF" stroke-width="2" stroke-linecap="round" stroke-miterlimit="10" width="10.3" height="10.6"/>
								
									<rect x="1296.6" y="361.2" fill="#CCF139" stroke="#FFFFFF" stroke-width="2" stroke-linecap="round" stroke-miterlimit="10" width="10.3" height="10.6"/>
							</g>
							<g>
								
									<rect x="1276.1" y="350.6" fill="#CCF139" stroke="#FFFFFF" stroke-width="2" stroke-linecap="round" stroke-miterlimit="10" width="10.3" height="10.6"/>
								
									<rect x="1286.3" y="350.6" fill="#CCF139" stroke="#FFFFFF" stroke-width="2" stroke-linecap="round" stroke-miterlimit="10" width="10.3" height="10.6"/>
								
									<rect x="1296.6" y="350.6" fill="#CCF139" stroke="#FFFFFF" stroke-width="2" stroke-linecap="round" stroke-miterlimit="10" width="10.3" height="10.6"/>
							</g>
						</g>
						
							<rect x="1325.2" y="310.6" fill="#AEDC48" stroke="#FFFFFF" stroke-width="2" stroke-linecap="round" stroke-miterlimit="10" width="12.6" height="6.1"/>
						
							<rect x="1322.3" y="305.3" fill="#CCF139" stroke="#FFFFFF" stroke-width="2" stroke-linecap="round" stroke-miterlimit="10" width="18.5" height="5.3"/>
						<circle fill="#FFFFFF" cx="1332.3" cy="376" r="1.2"/>
					</g>
					<g>
						
							<rect x="1481" y="278" fill="#CCF139" stroke="#FFFFFF" stroke-width="2" stroke-linecap="round" stroke-miterlimit="10" width="64.2" height="111.3"/>
						
							<rect x="1454.2" y="327.3" fill="#CCF139" stroke="#FFFFFF" stroke-width="2" stroke-linecap="round" stroke-miterlimit="10" width="26.7" height="62"/>
						
							<rect x="1545.2" y="327.3" fill="#CCF139" stroke="#FFFFFF" stroke-width="2" stroke-linecap="round" stroke-miterlimit="10" width="26.7" height="62"/>
						<g>
							<g>
								
									<rect x="1460.6" y="334.3" fill="#AEDC48" stroke="#FFFFFF" stroke-width="2" stroke-linecap="round" stroke-miterlimit="10" width="7" height="7"/>
								
									<rect x="1467.6" y="334.3" fill="#AEDC48" stroke="#FFFFFF" stroke-width="2" stroke-linecap="round" stroke-miterlimit="10" width="7" height="7"/>
								
									<rect x="1460.6" y="341.3" fill="#AEDC48" stroke="#FFFFFF" stroke-width="2" stroke-linecap="round" stroke-miterlimit="10" width="7" height="7"/>
								
									<rect x="1467.6" y="341.3" fill="#AEDC48" stroke="#FFFFFF" stroke-width="2" stroke-linecap="round" stroke-miterlimit="10" width="7" height="7"/>
							</g>
							<g>
								
									<rect x="1460.6" y="355.5" fill="#AEDC48" stroke="#FFFFFF" stroke-width="2" stroke-linecap="round" stroke-miterlimit="10" width="7" height="7"/>
								
									<rect x="1467.6" y="355.5" fill="#AEDC48" stroke="#FFFFFF" stroke-width="2" stroke-linecap="round" stroke-miterlimit="10" width="7" height="7"/>
								
									<rect x="1460.6" y="362.5" fill="#AEDC48" stroke="#FFFFFF" stroke-width="2" stroke-linecap="round" stroke-miterlimit="10" width="7" height="7"/>
								
									<rect x="1467.6" y="362.5" fill="#AEDC48" stroke="#FFFFFF" stroke-width="2" stroke-linecap="round" stroke-miterlimit="10" width="7" height="7"/>
							</g>
						</g>
						<g>
							<g>
								<g>
									
										<rect x="1490.8" y="289.7" fill="#AEDC48" stroke="#FFFFFF" stroke-width="2" stroke-linecap="round" stroke-miterlimit="10" width="7" height="7"/>
									
										<rect x="1497.7" y="289.7" fill="#AEDC48" stroke="#FFFFFF" stroke-width="2" stroke-linecap="round" stroke-miterlimit="10" width="7" height="7"/>
									
										<rect x="1490.8" y="296.6" fill="#AEDC48" stroke="#FFFFFF" stroke-width="2" stroke-linecap="round" stroke-miterlimit="10" width="7" height="7"/>
									
										<rect x="1497.7" y="296.6" fill="#AEDC48" stroke="#FFFFFF" stroke-width="2" stroke-linecap="round" stroke-miterlimit="10" width="7" height="7"/>
								</g>
								<g>
									
										<rect x="1490.8" y="310.9" fill="#AEDC48" stroke="#FFFFFF" stroke-width="2" stroke-linecap="round" stroke-miterlimit="10" width="7" height="7"/>
									
										<rect x="1497.7" y="310.9" fill="#AEDC48" stroke="#FFFFFF" stroke-width="2" stroke-linecap="round" stroke-miterlimit="10" width="7" height="7"/>
									
										<rect x="1490.8" y="317.9" fill="#AEDC48" stroke="#FFFFFF" stroke-width="2" stroke-linecap="round" stroke-miterlimit="10" width="7" height="7"/>
									
										<rect x="1497.7" y="317.9" fill="#AEDC48" stroke="#FFFFFF" stroke-width="2" stroke-linecap="round" stroke-miterlimit="10" width="7" height="7"/>
								</g>
							</g>
							<g>
								<g>
									
										<rect x="1521.5" y="289.7" fill="#AEDC48" stroke="#FFFFFF" stroke-width="2" stroke-linecap="round" stroke-miterlimit="10" width="7" height="7"/>
									
										<rect x="1528.5" y="289.7" fill="#AEDC48" stroke="#FFFFFF" stroke-width="2" stroke-linecap="round" stroke-miterlimit="10" width="7" height="7"/>
									
										<rect x="1521.5" y="296.6" fill="#AEDC48" stroke="#FFFFFF" stroke-width="2" stroke-linecap="round" stroke-miterlimit="10" width="7" height="7"/>
									
										<rect x="1528.5" y="296.6" fill="#AEDC48" stroke="#FFFFFF" stroke-width="2" stroke-linecap="round" stroke-miterlimit="10" width="7" height="7"/>
								</g>
								<g>
									
										<rect x="1521.5" y="310.9" fill="#AEDC48" stroke="#FFFFFF" stroke-width="2" stroke-linecap="round" stroke-miterlimit="10" width="7" height="7"/>
									
										<rect x="1528.5" y="310.9" fill="#AEDC48" stroke="#FFFFFF" stroke-width="2" stroke-linecap="round" stroke-miterlimit="10" width="7" height="7"/>
									
										<rect x="1521.5" y="317.9" fill="#AEDC48" stroke="#FFFFFF" stroke-width="2" stroke-linecap="round" stroke-miterlimit="10" width="7" height="7"/>
									
										<rect x="1528.5" y="317.9" fill="#AEDC48" stroke="#FFFFFF" stroke-width="2" stroke-linecap="round" stroke-miterlimit="10" width="7" height="7"/>
								</g>
							</g>
						</g>
						<g>
							<g>
								<g>
									
										<rect x="1490.8" y="332.4" fill="#AEDC48" stroke="#FFFFFF" stroke-width="2" stroke-linecap="round" stroke-miterlimit="10" width="7" height="7"/>
									
										<rect x="1497.7" y="332.4" fill="#AEDC48" stroke="#FFFFFF" stroke-width="2" stroke-linecap="round" stroke-miterlimit="10" width="7" height="7"/>
									
										<rect x="1490.8" y="339.3" fill="#AEDC48" stroke="#FFFFFF" stroke-width="2" stroke-linecap="round" stroke-miterlimit="10" width="7" height="7"/>
									
										<rect x="1497.7" y="339.3" fill="#AEDC48" stroke="#FFFFFF" stroke-width="2" stroke-linecap="round" stroke-miterlimit="10" width="7" height="7"/>
								</g>
							</g>
							<g>
								<g>
									
										<rect x="1521.5" y="332.4" fill="#AEDC48" stroke="#FFFFFF" stroke-width="2" stroke-linecap="round" stroke-miterlimit="10" width="7" height="7"/>
									
										<rect x="1528.5" y="332.4" fill="#AEDC48" stroke="#FFFFFF" stroke-width="2" stroke-linecap="round" stroke-miterlimit="10" width="7" height="7"/>
									
										<rect x="1521.5" y="339.3" fill="#AEDC48" stroke="#FFFFFF" stroke-width="2" stroke-linecap="round" stroke-miterlimit="10" width="7" height="7"/>
									
										<rect x="1528.5" y="339.3" fill="#AEDC48" stroke="#FFFFFF" stroke-width="2" stroke-linecap="round" stroke-miterlimit="10" width="7" height="7"/>
								</g>
							</g>
						</g>
						<g>
							<g>
								
									<rect x="1551.6" y="334.3" fill="#AEDC48" stroke="#FFFFFF" stroke-width="2" stroke-linecap="round" stroke-miterlimit="10" width="7" height="7"/>
								
									<rect x="1558.6" y="334.3" fill="#AEDC48" stroke="#FFFFFF" stroke-width="2" stroke-linecap="round" stroke-miterlimit="10" width="7" height="7"/>
								
									<rect x="1551.6" y="341.3" fill="#AEDC48" stroke="#FFFFFF" stroke-width="2" stroke-linecap="round" stroke-miterlimit="10" width="7" height="7"/>
								
									<rect x="1558.6" y="341.3" fill="#AEDC48" stroke="#FFFFFF" stroke-width="2" stroke-linecap="round" stroke-miterlimit="10" width="7" height="7"/>
							</g>
							<g>
								
									<rect x="1551.6" y="355.5" fill="#AEDC48" stroke="#FFFFFF" stroke-width="2" stroke-linecap="round" stroke-miterlimit="10" width="7" height="7"/>
								
									<rect x="1558.6" y="355.5" fill="#AEDC48" stroke="#FFFFFF" stroke-width="2" stroke-linecap="round" stroke-miterlimit="10" width="7" height="7"/>
								
									<rect x="1551.6" y="362.5" fill="#AEDC48" stroke="#FFFFFF" stroke-width="2" stroke-linecap="round" stroke-miterlimit="10" width="7" height="7"/>
								
									<rect x="1558.6" y="362.5" fill="#AEDC48" stroke="#FFFFFF" stroke-width="2" stroke-linecap="round" stroke-miterlimit="10" width="7" height="7"/>
							</g>
						</g>
					</g>
					<g>
						<g>
							<path fill="#CCF139" stroke="#FFFFFF" stroke-width="2" stroke-linecap="round" stroke-miterlimit="10" d="M1608.7,370.7
								h-6.4c-5.2,0-9.4-4.2-9.4-9.4v-48.8c0-5.2,4.2-9.4,9.4-9.4h6.4c5.2,0,9.4,4.2,9.4,9.4v48.8
								C1618.2,366.5,1614,370.7,1608.7,370.7z"/>
							
								<line fill="none" stroke="#FFFFFF" stroke-width="2" stroke-linecap="round" stroke-miterlimit="10" x1="1605.6" y1="389.1" x2="1605.6" y2="327.3"/>
							<path fill="none" stroke="#FFFFFF" stroke-width="2" stroke-linecap="round" stroke-miterlimit="10" d="M1612,355.9
								c0,3.5-2.9,6.4-6.4,6.4c-3.5,0-6.4-2.9-6.4-6.4"/>
							<path fill="none" stroke="#FFFFFF" stroke-width="2" stroke-linecap="round" stroke-miterlimit="10" d="M1612,344.2
								c0,3.5-2.9,6.4-6.4,6.4c-3.5,0-6.4-2.9-6.4-6.4"/>
							<path fill="none" stroke="#FFFFFF" stroke-width="2" stroke-linecap="round" stroke-miterlimit="10" d="M1612,332.5
								c0,3.5-2.9,6.4-6.4,6.4c-3.5,0-6.4-2.9-6.4-6.4"/>
						</g>
						<g>
							<path fill="#CCF139" stroke="#FFFFFF" stroke-width="2" stroke-linecap="round" stroke-miterlimit="10" d="M1647.4,370.7
								h-6.4c-5.2,0-9.4-4.2-9.4-9.4v-6.4c0-5.2,4.2-9.4,9.4-9.4h6.4c5.2,0,9.4,4.2,9.4,9.4v6.4
								C1656.8,366.5,1652.6,370.7,1647.4,370.7z"/>
							
								<line fill="none" stroke="#FFFFFF" stroke-width="2" stroke-linecap="round" stroke-miterlimit="10" x1="1644.2" y1="389.1" x2="1644.2" y2="355.5"/>
							<path fill="none" stroke="#FFFFFF" stroke-width="2" stroke-linecap="round" stroke-miterlimit="10" d="M1649.1,358.2
								c0,2.7-2.2,4.9-4.9,4.9s-4.9-2.2-4.9-4.9"/>
						</g>
					</g>
					<g>
						<g>
							<path fill="#CCF139" stroke="#FFFFFF" stroke-width="2" stroke-linecap="round" stroke-miterlimit="10" d="M1837.2,370.7h6.4
								c5.2,0,9.4-4.2,9.4-9.4v-48.8c0-5.2-4.2-9.4-9.4-9.4h-6.4c-5.2,0-9.4,4.2-9.4,9.4v48.8C1827.8,366.5,1832,370.7,1837.2,370.7
								z"/>
							
								<line fill="none" stroke="#FFFFFF" stroke-width="2" stroke-linecap="round" stroke-miterlimit="10" x1="1840.4" y1="389.1" x2="1840.4" y2="327.3"/>
							<path fill="none" stroke="#FFFFFF" stroke-width="2" stroke-linecap="round" stroke-miterlimit="10" d="M1834,355.9
								c0,3.5,2.9,6.4,6.4,6.4c3.5,0,6.4-2.9,6.4-6.4"/>
							<path fill="none" stroke="#FFFFFF" stroke-width="2" stroke-linecap="round" stroke-miterlimit="10" d="M1834,344.2
								c0,3.5,2.9,6.4,6.4,6.4c3.5,0,6.4-2.9,6.4-6.4"/>
							<path fill="none" stroke="#FFFFFF" stroke-width="2" stroke-linecap="round" stroke-miterlimit="10" d="M1834,332.5
								c0,3.5,2.9,6.4,6.4,6.4c3.5,0,6.4-2.9,6.4-6.4"/>
						</g>
						<g>
							<path fill="#CCF139" stroke="#FFFFFF" stroke-width="2" stroke-linecap="round" stroke-miterlimit="10" d="M1798.6,370.7h6.4
								c5.2,0,9.4-4.2,9.4-9.4v-6.4c0-5.2-4.2-9.4-9.4-9.4h-6.4c-5.2,0-9.4,4.2-9.4,9.4v6.4C1789.1,366.5,1793.4,370.7,1798.6,370.7
								z"/>
							
								<line fill="none" stroke="#FFFFFF" stroke-width="2" stroke-linecap="round" stroke-miterlimit="10" x1="1801.8" y1="389.1" x2="1801.8" y2="355.5"/>
							<path fill="none" stroke="#FFFFFF" stroke-width="2" stroke-linecap="round" stroke-miterlimit="10" d="M1796.8,358.2
								c0,2.7,2.2,4.9,4.9,4.9s4.9-2.2,4.9-4.9"/>
						</g>
					</g>
					<g>
						<rect x="1687.5" y="339" fill="#AEDC48" width="85.3" height="6.4"/>
						<rect x="1687.5" y="345.5" fill="#CCF139" width="85.3" height="44.1"/>
						
							<rect x="1687.5" y="339" fill="none" stroke="#FFFFFF" stroke-width="2" stroke-linecap="round" stroke-miterlimit="10" width="85.3" height="50.6"/>
						<polygon fill="#CCF139" stroke="#FFFFFF" stroke-width="2" stroke-linecap="round" stroke-miterlimit="10" points="
							1783.5,339 1676.7,339 1691.1,316.7 1769.2,316.7 						"/>
						
							<rect x="1740.5" y="359.4" fill="#AEDC48" stroke="#FFFFFF" stroke-width="2" stroke-linecap="round" stroke-miterlimit="10" width="17.9" height="30.2"/>
						<g>
							<g>
								
									<rect x="1698" y="361.2" fill="#CCF139" stroke="#FFFFFF" stroke-width="2" stroke-linecap="round" stroke-miterlimit="10" width="10.3" height="10.6"/>
								
									<rect x="1708.3" y="361.2" fill="#CCF139" stroke="#FFFFFF" stroke-width="2" stroke-linecap="round" stroke-miterlimit="10" width="10.3" height="10.6"/>
								
									<rect x="1718.5" y="361.2" fill="#CCF139" stroke="#FFFFFF" stroke-width="2" stroke-linecap="round" stroke-miterlimit="10" width="10.3" height="10.6"/>
							</g>
							<g>
								
									<rect x="1698" y="350.6" fill="#CCF139" stroke="#FFFFFF" stroke-width="2" stroke-linecap="round" stroke-miterlimit="10" width="10.3" height="10.6"/>
								
									<rect x="1708.3" y="350.6" fill="#CCF139" stroke="#FFFFFF" stroke-width="2" stroke-linecap="round" stroke-miterlimit="10" width="10.3" height="10.6"/>
								
									<rect x="1718.5" y="350.6" fill="#CCF139" stroke="#FFFFFF" stroke-width="2" stroke-linecap="round" stroke-miterlimit="10" width="10.3" height="10.6"/>
							</g>
						</g>
						
							<rect x="1747.2" y="310.6" fill="#AEDC48" stroke="#FFFFFF" stroke-width="2" stroke-linecap="round" stroke-miterlimit="10" width="12.6" height="6.1"/>
						
							<rect x="1744.2" y="305.3" fill="#CCF139" stroke="#FFFFFF" stroke-width="2" stroke-linecap="round" stroke-miterlimit="10" width="18.5" height="5.3"/>
						<circle fill="#FFFFFF" cx="1754.3" cy="376" r="1.2"/>
					</g>
					<g>
						
							<rect x="1902.9" y="278" fill="#CCF139" stroke="#FFFFFF" stroke-width="2" stroke-linecap="round" stroke-miterlimit="10" width="64.2" height="111.3"/>
						
							<rect x="1876.2" y="327.3" fill="#CCF139" stroke="#FFFFFF" stroke-width="2" stroke-linecap="round" stroke-miterlimit="10" width="26.7" height="62"/>
						<g>
							<g>
								
									<rect x="1882.5" y="334.3" fill="#AEDC48" stroke="#FFFFFF" stroke-width="2" stroke-linecap="round" stroke-miterlimit="10" width="7" height="7"/>
								
									<rect x="1889.5" y="334.3" fill="#AEDC48" stroke="#FFFFFF" stroke-width="2" stroke-linecap="round" stroke-miterlimit="10" width="7" height="7"/>
								
									<rect x="1882.5" y="341.3" fill="#AEDC48" stroke="#FFFFFF" stroke-width="2" stroke-linecap="round" stroke-miterlimit="10" width="7" height="7"/>
								
									<rect x="1889.5" y="341.3" fill="#AEDC48" stroke="#FFFFFF" stroke-width="2" stroke-linecap="round" stroke-miterlimit="10" width="7" height="7"/>
							</g>
							<g>
								
									<rect x="1882.5" y="355.5" fill="#AEDC48" stroke="#FFFFFF" stroke-width="2" stroke-linecap="round" stroke-miterlimit="10" width="7" height="7"/>
								
									<rect x="1889.5" y="355.5" fill="#AEDC48" stroke="#FFFFFF" stroke-width="2" stroke-linecap="round" stroke-miterlimit="10" width="7" height="7"/>
								
									<rect x="1882.5" y="362.5" fill="#AEDC48" stroke="#FFFFFF" stroke-width="2" stroke-linecap="round" stroke-miterlimit="10" width="7" height="7"/>
								
									<rect x="1889.5" y="362.5" fill="#AEDC48" stroke="#FFFFFF" stroke-width="2" stroke-linecap="round" stroke-miterlimit="10" width="7" height="7"/>
							</g>
						</g>
						<g>
							<g>
								<g>
									
										<rect x="1912.7" y="289.7" fill="#AEDC48" stroke="#FFFFFF" stroke-width="2" stroke-linecap="round" stroke-miterlimit="10" width="7" height="7"/>
									
										<rect x="1919.7" y="289.7" fill="#AEDC48" stroke="#FFFFFF" stroke-width="2" stroke-linecap="round" stroke-miterlimit="10" width="7" height="7"/>
									
										<rect x="1912.7" y="296.6" fill="#AEDC48" stroke="#FFFFFF" stroke-width="2" stroke-linecap="round" stroke-miterlimit="10" width="7" height="7"/>
									
										<rect x="1919.7" y="296.6" fill="#AEDC48" stroke="#FFFFFF" stroke-width="2" stroke-linecap="round" stroke-miterlimit="10" width="7" height="7"/>
								</g>
								<g>
									
										<rect x="1912.7" y="310.9" fill="#AEDC48" stroke="#FFFFFF" stroke-width="2" stroke-linecap="round" stroke-miterlimit="10" width="7" height="7"/>
									
										<rect x="1919.7" y="310.9" fill="#AEDC48" stroke="#FFFFFF" stroke-width="2" stroke-linecap="round" stroke-miterlimit="10" width="7" height="7"/>
									
										<rect x="1912.7" y="317.9" fill="#AEDC48" stroke="#FFFFFF" stroke-width="2" stroke-linecap="round" stroke-miterlimit="10" width="7" height="7"/>
									
										<rect x="1919.7" y="317.9" fill="#AEDC48" stroke="#FFFFFF" stroke-width="2" stroke-linecap="round" stroke-miterlimit="10" width="7" height="7"/>
								</g>
							</g>
						</g>
						<g>
							<g>
								<g>
									
										<rect x="1912.7" y="332.4" fill="#AEDC48" stroke="#FFFFFF" stroke-width="2" stroke-linecap="round" stroke-miterlimit="10" width="7" height="7"/>
									
										<rect x="1919.7" y="332.4" fill="#AEDC48" stroke="#FFFFFF" stroke-width="2" stroke-linecap="round" stroke-miterlimit="10" width="7" height="7"/>
									
										<rect x="1912.7" y="339.3" fill="#AEDC48" stroke="#FFFFFF" stroke-width="2" stroke-linecap="round" stroke-miterlimit="10" width="7" height="7"/>
									
										<rect x="1919.7" y="339.3" fill="#AEDC48" stroke="#FFFFFF" stroke-width="2" stroke-linecap="round" stroke-miterlimit="10" width="7" height="7"/>
								</g>
							</g>
						</g>
					</g>
					
						<rect x="1513.1" y="362.4" fill="#AEDC48" stroke="#FFFFFF" stroke-width="2" stroke-linecap="round" stroke-miterlimit="10" width="13.5" height="25.4"/>
					
						<rect x="1499.6" y="362.4" fill="#AEDC48" stroke="#FFFFFF" stroke-width="2" stroke-linecap="round" stroke-miterlimit="10" width="13.5" height="25.4"/>
					<circle fill="#FFFFFF" cx="1509.4" cy="376" r="1.2"/>
					<circle fill="#FFFFFF" cx="1517" cy="376" r="1.2"/>
				</g>
				<rect x="1149.8" y="180.9" fill="#FFFFFF" width="208.2" height="33"/>
				<g>
					<g>
						
							<line fill="#E9EDF1" stroke="#5D5D5D" stroke-linecap="round" stroke-linejoin="round" stroke-miterlimit="10" x1="1161.4" y1="201.1" x2="1170.4" y2="201.1"/>
					</g>
					<g>
						
							<line fill="#E9EDF1" stroke="#5D5D5D" stroke-linecap="round" stroke-linejoin="round" stroke-miterlimit="10" x1="1161.4" y1="197.4" x2="1170.4" y2="197.4"/>
					</g>
					<g>
						
							<line fill="#E9EDF1" stroke="#5D5D5D" stroke-linecap="round" stroke-linejoin="round" stroke-miterlimit="10" x1="1161.4" y1="193.7" x2="1170.4" y2="193.7"/>
					</g>
				</g>
				<g>
					<path fill="#5D5D5D" d="M1195.3,199.2h2.1v0.8h-3.1v-4.9h1V199.2z"/>
					<path fill="#5D5D5D" d="M1199.2,200h-1v-4.9h1V200z"/>
					<path fill="#5D5D5D" d="M1200.3,200v-4.9h1.7c0.6,0,1,0.1,1.3,0.3c0.3,0.2,0.5,0.6,0.5,1c0,0.2-0.1,0.4-0.2,0.6
						c-0.1,0.2-0.3,0.3-0.5,0.4c0.2,0.1,0.4,0.2,0.6,0.4c0.1,0.2,0.2,0.4,0.2,0.7c0,0.5-0.1,0.8-0.4,1.1c-0.3,0.2-0.7,0.4-1.3,0.4
						H1200.3z M1201.3,197.2h0.7c0.5,0,0.8-0.2,0.8-0.6c0-0.2-0.1-0.4-0.2-0.5c-0.1-0.1-0.3-0.1-0.6-0.1h-0.7V197.2z M1201.3,197.9
						v1.3h0.9c0.2,0,0.4-0.1,0.6-0.2c0.1-0.1,0.2-0.3,0.2-0.5c0-0.4-0.2-0.7-0.7-0.7H1201.3z"/>
					<path fill="#5D5D5D" d="M1207.8,197.9h-1.9v1.3h2.3v0.8h-3.3v-4.9h3.2v0.8h-2.2v1.2h1.9V197.9z"/>
					<path fill="#5D5D5D" d="M1210.8,198.2h-0.8v1.8h-1v-4.9h1.8c0.6,0,1,0.1,1.3,0.4c0.3,0.3,0.5,0.6,0.5,1.1
						c0,0.3-0.1,0.6-0.2,0.8s-0.4,0.4-0.7,0.5l1,2v0h-1.1L1210.8,198.2z M1210,197.4h0.8c0.3,0,0.4-0.1,0.6-0.2s0.2-0.3,0.2-0.5
						c0-0.2-0.1-0.4-0.2-0.5c-0.1-0.1-0.3-0.2-0.6-0.2h-0.8V197.4z"/>
					<path fill="#5D5D5D" d="M1216.4,199h-1.8l-0.3,1h-1.1l1.8-4.9h0.9l1.8,4.9h-1.1L1216.4,199z M1214.9,198.2h1.2l-0.6-1.8
						L1214.9,198.2z"/>
					<path fill="#5D5D5D" d="M1220.3,198.2h-0.8v1.8h-1v-4.9h1.8c0.6,0,1,0.1,1.3,0.4c0.3,0.3,0.5,0.6,0.5,1.1
						c0,0.3-0.1,0.6-0.2,0.8s-0.4,0.4-0.7,0.5l1,2v0h-1.1L1220.3,198.2z M1219.5,197.4h0.8c0.3,0,0.4-0.1,0.6-0.2s0.2-0.3,0.2-0.5
						c0-0.2-0.1-0.4-0.2-0.5c-0.1-0.1-0.3-0.2-0.6-0.2h-0.8V197.4z"/>
					<path fill="#5D5D5D" d="M1226.3,198.8l1.1-3.6h1.1l-1.7,4.9h-1l-1.7-4.9h1.1L1226.3,198.8z"/>
					<path fill="#5D5D5D" d="M1232.1,197.9h-1.9v1.3h2.3v0.8h-3.3v-4.9h3.2v0.8h-2.2v1.2h1.9V197.9z"/>
					<path fill="#5D5D5D" d="M1234.3,200h-1v-4.9h1V200z M1234,193.8h1l-0.9,1h-0.8L1234,193.8z"/>
					<path fill="#5D5D5D" d="M1239.2,198.4c0,0.5-0.2,0.9-0.6,1.2s-0.8,0.4-1.4,0.4c-0.6,0-1.1-0.2-1.5-0.6c-0.4-0.4-0.5-1-0.5-1.7
						v-0.3c0-0.5,0.1-0.9,0.2-1.2c0.2-0.4,0.4-0.6,0.7-0.8c0.3-0.2,0.7-0.3,1.1-0.3c0.6,0,1,0.2,1.4,0.5s0.5,0.7,0.6,1.3h-1
						c0-0.3-0.1-0.5-0.3-0.7c-0.1-0.1-0.4-0.2-0.7-0.2c-0.3,0-0.6,0.1-0.7,0.4c-0.2,0.2-0.3,0.6-0.3,1.1v0.4c0,0.5,0.1,0.9,0.2,1.1
						c0.2,0.2,0.4,0.4,0.8,0.4c0.3,0,0.5-0.1,0.7-0.2c0.2-0.1,0.2-0.4,0.3-0.7H1239.2z"/>
					<path fill="#5D5D5D" d="M1243.7,195.1v3.2c0,0.5-0.2,1-0.5,1.3s-0.8,0.5-1.4,0.5c-0.6,0-1-0.1-1.3-0.4
						c-0.3-0.3-0.5-0.7-0.5-1.2v-3.2h1v3.2c0,0.3,0.1,0.5,0.2,0.7c0.2,0.1,0.4,0.2,0.6,0.2c0.6,0,0.8-0.3,0.9-0.9v-3.2H1243.7z"/>
					<path fill="#5D5D5D" d="M1245.8,199.2h2.1v0.8h-3.1v-4.9h1V199.2z"/>
					<path fill="#5D5D5D" d="M1252.5,197.7c0,0.5-0.1,0.9-0.3,1.3c-0.2,0.4-0.4,0.6-0.7,0.8s-0.7,0.3-1.1,0.3
						c-0.4,0-0.8-0.1-1.1-0.3c-0.3-0.2-0.6-0.5-0.7-0.8c-0.2-0.4-0.3-0.8-0.3-1.2v-0.2c0-0.5,0.1-0.9,0.3-1.3
						c0.2-0.4,0.4-0.6,0.7-0.8s0.7-0.3,1.1-0.3s0.8,0.1,1.1,0.3s0.6,0.5,0.7,0.8s0.3,0.8,0.3,1.3V197.7z M1251.5,197.5
						c0-0.5-0.1-0.9-0.3-1.2c-0.2-0.3-0.4-0.4-0.8-0.4c-0.3,0-0.6,0.1-0.8,0.4c-0.2,0.3-0.3,0.6-0.3,1.1v0.2c0,0.5,0.1,0.9,0.3,1.2
						c0.2,0.3,0.4,0.4,0.8,0.4c0.3,0,0.6-0.1,0.8-0.4c0.2-0.3,0.3-0.6,0.3-1.2V197.5z"/>
				</g>
				<g>
					<path fill="#5D5D5D" d="M1292.8,200h-1v-2.1h-1.9v2.1h-1v-4.9h1v2h1.9v-2h1V200z"/>
					<path fill="#5D5D5D" d="M1294.9,200h-1v-4.9h1V200z"/>
					<path fill="#5D5D5D" d="M1298.5,198.7c0-0.2-0.1-0.3-0.2-0.4c-0.1-0.1-0.4-0.2-0.7-0.3c-0.3-0.1-0.6-0.2-0.8-0.3
						c-0.6-0.3-0.8-0.7-0.8-1.2c0-0.3,0.1-0.5,0.2-0.7c0.1-0.2,0.4-0.4,0.6-0.5c0.3-0.1,0.6-0.2,0.9-0.2c0.3,0,0.7,0.1,0.9,0.2
						c0.3,0.1,0.5,0.3,0.6,0.5c0.2,0.2,0.2,0.5,0.2,0.8h-1c0-0.2-0.1-0.4-0.2-0.5c-0.1-0.1-0.3-0.2-0.6-0.2c-0.2,0-0.4,0.1-0.6,0.2
						c-0.1,0.1-0.2,0.2-0.2,0.4c0,0.2,0.1,0.3,0.2,0.4c0.2,0.1,0.4,0.2,0.7,0.3c0.6,0.2,1,0.4,1.2,0.6c0.3,0.3,0.4,0.6,0.4,0.9
						c0,0.4-0.2,0.7-0.5,1c-0.3,0.2-0.7,0.4-1.3,0.4c-0.4,0-0.7-0.1-1-0.2c-0.3-0.1-0.5-0.3-0.7-0.6c-0.2-0.2-0.2-0.5-0.2-0.8h1
						c0,0.5,0.3,0.8,1,0.8c0.2,0,0.4,0,0.6-0.1C1298.5,199,1298.5,198.9,1298.5,198.7z"/>
					<path fill="#5D5D5D" d="M1304.1,196h-1.5v4h-1v-4h-1.5v-0.8h4V196z"/>
					<path fill="#5D5D5D" d="M1308.7,197.7c0,0.5-0.1,0.9-0.3,1.3c-0.2,0.4-0.4,0.6-0.7,0.8s-0.7,0.3-1.1,0.3
						c-0.4,0-0.8-0.1-1.1-0.3c-0.3-0.2-0.6-0.5-0.7-0.8c-0.2-0.4-0.3-0.8-0.3-1.2v-0.2c0-0.5,0.1-0.9,0.3-1.3
						c0.2-0.4,0.4-0.6,0.7-0.8s0.7-0.3,1.1-0.3s0.8,0.1,1.1,0.3s0.6,0.5,0.7,0.8s0.3,0.8,0.3,1.3V197.7z M1307.7,197.5
						c0-0.5-0.1-0.9-0.3-1.2c-0.2-0.3-0.4-0.4-0.8-0.4c-0.3,0-0.6,0.1-0.8,0.4c-0.2,0.3-0.3,0.6-0.3,1.1v0.2c0,0.5,0.1,0.9,0.3,1.2
						c0.2,0.3,0.4,0.4,0.8,0.4c0.3,0,0.6-0.1,0.8-0.4c0.2-0.3,0.3-0.6,0.3-1.2V197.5z M1306.8,193.8h1l-0.9,1h-0.8L1306.8,193.8z"/>
					<path fill="#5D5D5D" d="M1311.4,198.2h-0.8v1.8h-1v-4.9h1.8c0.6,0,1,0.1,1.3,0.4c0.3,0.3,0.5,0.6,0.5,1.1
						c0,0.3-0.1,0.6-0.2,0.8s-0.4,0.4-0.7,0.5l1,2v0h-1.1L1311.4,198.2z M1310.6,197.4h0.8c0.3,0,0.4-0.1,0.6-0.2s0.2-0.3,0.2-0.5
						c0-0.2-0.1-0.4-0.2-0.5c-0.1-0.1-0.3-0.2-0.6-0.2h-0.8V197.4z"/>
					<path fill="#5D5D5D" d="M1315.2,200h-1v-4.9h1V200z"/>
					<path fill="#5D5D5D" d="M1320.1,198.4c0,0.5-0.2,0.9-0.6,1.2s-0.8,0.4-1.4,0.4c-0.6,0-1.1-0.2-1.5-0.6c-0.4-0.4-0.5-1-0.5-1.7
						v-0.3c0-0.5,0.1-0.9,0.2-1.2c0.2-0.4,0.4-0.6,0.7-0.8c0.3-0.2,0.7-0.3,1.1-0.3c0.6,0,1,0.2,1.4,0.5s0.5,0.7,0.6,1.3h-1
						c0-0.3-0.1-0.5-0.3-0.7c-0.1-0.1-0.4-0.2-0.7-0.2c-0.3,0-0.6,0.1-0.7,0.4c-0.2,0.2-0.3,0.6-0.3,1.1v0.4c0,0.5,0.1,0.9,0.2,1.1
						c0.2,0.2,0.4,0.4,0.8,0.4c0.3,0,0.5-0.1,0.7-0.2c0.2-0.1,0.2-0.4,0.3-0.7H1320.1z"/>
					<path fill="#5D5D5D" d="M1324.9,197.7c0,0.5-0.1,0.9-0.3,1.3c-0.2,0.4-0.4,0.6-0.7,0.8s-0.7,0.3-1.1,0.3
						c-0.4,0-0.8-0.1-1.1-0.3c-0.3-0.2-0.6-0.5-0.7-0.8c-0.2-0.4-0.3-0.8-0.3-1.2v-0.2c0-0.5,0.1-0.9,0.3-1.3
						c0.2-0.4,0.4-0.6,0.7-0.8s0.7-0.3,1.1-0.3s0.8,0.1,1.1,0.3s0.6,0.5,0.7,0.8s0.3,0.8,0.3,1.3V197.7z M1323.9,197.5
						c0-0.5-0.1-0.9-0.3-1.2c-0.2-0.3-0.4-0.4-0.8-0.4c-0.3,0-0.6,0.1-0.8,0.4c-0.2,0.3-0.3,0.6-0.3,1.1v0.2c0,0.5,0.1,0.9,0.3,1.2
						c0.2,0.3,0.4,0.4,0.8,0.4c0.3,0,0.6-0.1,0.8-0.4c0.2-0.3,0.3-0.6,0.3-1.2V197.5z"/>
				</g>
				<rect x="1183.6" y="212.1" fill="#AEDC48" width="79.6" height="1.7"/>
				
					<radialGradient id="SVGID_5_" cx="1253.8949" cy="434.8109" r="10.2384" gradientTransform="matrix(4.499940e-011 0.8153 -26.3903 9.682161e-010 12728.667 -813.2354)" gradientUnits="userSpaceOnUse">
					<stop  offset="0" style="stop-color:#000000"/>
					<stop  offset="1" style="stop-color:#FFFFFF"/>
				</radialGradient>
				<rect x="1149.8" y="213.9" opacity="0.2" fill="url(#SVGID_5_)" width="208.2" height="16.7"/>
				<g>
					<polygon fill="#4B4B4B" points="1216.2,377.4 1220.8,357.4 1221.8,370 					"/>
					<path fill="#FFFFFF" d="M1299.2,381.4c-1-3.1-8.7-23.8-38.6-44.2c-7.6-5.2-19.4-4.7-24.8-4.7c-4.9,0-17.1,0.9-19.2,1
						c-0.2,0-0.4,0.1-0.6,0.2l-1.6,1c-0.3,0.2-0.5,0.5-0.6,0.8l-0.3,1.4c-0.1,0.5,0.1,1,0.5,1.3c1.7,1.3,6.2,6,6.2,17.2
						c0,8.1,0.3,16,0.3,16s4.5,8.3,18.3,16.3c1.2,0.7,11.2,1.6,20.5,2.8c6.2,0.8,11,1.6,13.4,2c3.4,0.5,3.1-1.9,3.5-3.4
						c0.7-2.8,3.5-5,5.1-5.6c3.3-1.4,15.3-0.7,17.4-0.2c0.6,0.1,0.7-0.4,0.8-0.9C1299.4,382.2,1299.3,381.8,1299.2,381.4z
						 M1278.4,369.1l-8.5,9.4c-0.7,0.7-1.6,1.1-2.6,1l-15.1-1.9c-1.8-0.2-3.6-0.9-5.1-2l-4.3-3c-1.6-1.1-2.7-2.9-3-4.8l-3.4-20.6
						c-0.1-0.7,0.4-1.4,1.2-1.4l11.3,0.1c2.1,0,4.2,0.4,6.1,1.1c2,0.7,3.8,1.7,5.4,3c4.7,3.8,9.2,7.9,13.4,12.3l4.5,4.7
						C1278.9,367.7,1278.9,368.5,1278.4,369.1z"/>
					<path fill="#DADEE0" d="M1285.6,365.4l-5.8-6.1c-5.7-6-11.9-11.4-18.6-16.2l-1.5-1.1c-5.4-3.9-11.9-5.9-18.6-5.9h-15.5
						c-1.4,0-2.4,1.2-2.3,2.6l3,26.8c0.6,5,3.4,9.5,7.6,12.2l4.9,3.1c2,1.3,4.2,2.1,6.5,2.4l22.6,3c1.7,0.2,3.5-0.4,4.6-1.7l13.1-14
						C1286.9,369,1286.9,366.8,1285.6,365.4z M1278.4,369.1l-8.5,9.4c-0.7,0.7-1.6,1.1-2.6,1l-15.1-1.9c-1.8-0.2-3.6-0.9-5.1-2
						l-4.3-3c-1.6-1.1-2.7-2.9-3-4.8l-3.4-20.6c-0.1-0.7,0.4-1.4,1.2-1.4l11.3,0.1c2.1,0,4.2,0.4,6.1,1.1c2,0.7,3.8,1.7,5.4,3
						c4.7,3.8,9.2,7.9,13.4,12.3l4.5,4.7C1278.9,367.7,1278.9,368.5,1278.4,369.1z"/>
					<path fill="#4C5256" d="M1282.9,367l-6.2-6.5c-5.7-6-11.9-11.6-18.3-16.8c-2.2-1.8-4.8-3.2-7.4-4.1c-2.7-1-5.5-1.5-8.4-1.5
						l-15.5-0.2c-1,0-1.8,0.9-1.6,1.9l4.7,28.2c0.4,2.7,1.9,5,4.1,6.6l5.9,4.1c2.1,1.4,4.5,2.4,7,2.7l20.6,2.6
						c1.3,0.2,2.7-0.3,3.6-1.3l11.6-12.8C1283.6,369,1283.6,367.8,1282.9,367z M1278.4,369.1l-8.5,9.4c-0.7,0.7-1.6,1.1-2.6,1
						l-15.1-1.9c-1.8-0.2-3.6-0.9-5.1-2l-4.3-3c-1.6-1.1-2.7-2.9-3-4.8l-3.4-20.6c-0.1-0.7,0.4-1.4,1.2-1.4l11.3,0.1
						c2.1,0,4.2,0.4,6.1,1.1c2,0.7,3.8,1.7,5.4,3c4.7,3.8,9.2,7.9,13.4,12.3l4.5,4.7C1278.9,367.7,1278.9,368.5,1278.4,369.1z"/>
					<radialGradient id="SVGID_6_" cx="1275.9865" cy="389.0041" r="98.3352" gradientUnits="userSpaceOnUse">
						<stop  offset="0" style="stop-color:#30383D"/>
						<stop  offset="1" style="stop-color:#FFFFFF"/>
					</radialGradient>
					<path opacity="0.6" fill="url(#SVGID_6_)" d="M1225.4,339.8l4.7,28.2c0.4,2.7,1.9,5,4.2,6.6l5.9,4.1c2.1,1.4,4.5,2.4,7,2.7
						l20.6,2.6c1.3,0.2,2.7-0.3,3.6-1.3l11.6-12.8c0.7-0.8,0.7-2-0.1-2.7l-6.2-6.5c-5.7-6-11.9-11.6-18.3-16.8l0,0
						c-4.5-3.6-10.1-5.6-15.8-5.6l-15.5-0.2C1226,337.9,1225.2,338.8,1225.4,339.8z"/>
					<path fill="#353534" d="M1282.4,370.3l-8.9,9.8c-1,0.6-2.2,0.6-3.2,0l-8.5-4.6c-4.4-2.4-9-4.6-13.6-6.7l-8.1-3.6
						c-2-0.9-3.5-2.6-4-4.7l-1.3-5.2c-0.3-1,0.9-2.5,1.9-2.4l25.5,1.6c5,0.2,9.7,2.3,13.1,5.9c0.3,0.3,0.5,0.6,0.8,0.8l6.2,6.5
						C1283.1,368.3,1283.1,369.5,1282.4,370.3z"/>
					<path fill="#414141" d="M1282.9,369.8l-8.9,9.8c-1,0.6-2.2,0.6-3.2,0l-8.5-4.6c-4.4-2.4-9-4.6-13.6-6.7l-8.1-3.6
						c-2-0.9-3.5-2.6-4-4.7l-1.3-5.2c-0.3-1,0.5-2,1.6-1.9l25.8,1.1c5,0.2,9.7,2.3,13.1,5.9c0.3,0.3,0.5,0.6,0.8,0.8l6.2,6.5
						C1283.6,367.8,1283.6,369,1282.9,369.8z"/>
					<path fill="#414141" d="M1306.7,390.9v11.6c0,0.6-0.2,1.2-0.7,1.6c-0.2,0.2-0.5,0.4-0.9,0.4c-0.4,0-0.6-0.1-0.8-0.2
						c0.9-1.8,1.5-3.8,1.5-5.9c0-6.9-5.6-12.6-12.6-12.6c-6.9,0-12.6,5.6-12.6,12.6c0,1,0.1,1.9,0.3,2.8l-0.2,0.2l-0.8,3.2h-6.5
						c-0.2,0-0.4,0-0.5,0l-23.9-3c-2-0.2-4.1,0-6,0.6l-5.1,1.6l-0.7-4.8l-0.1-0.1v0c0-0.2,0-0.4,0-0.6c0-6.9-5.6-12.6-12.6-12.6
						s-12.6,5.6-12.6,12.6c0,0.7,0.1,1.4,0.2,2.1l-0.1,0c-0.5-0.3-1-0.8-1.3-1.3l-1.2-2.2c-0.2-0.5-0.4-1-0.4-1.5l-0.4-6.3
						c-0.1-1.3,0.3-2.7,1.1-3.7l10.6-13.9c0.7,1.2,5.5,8.8,18.2,16.2c1.2,0.7,11.2,1.6,20.5,2.8c6.2,0.8,11,1.6,13.4,2
						c3.4,0.5,3.1-1.9,3.5-3.4c0.7-2.8,3.5-5,5.1-5.6c3.3-1.4,15.3-0.7,17.4-0.2c0.2,0,0.3,0,0.4,0c0.2-0.1,0.4-0.1,0.6-0.1
						c0.7,0,1.8,0,2.4,0c1.1,0,2.8,2.1,3.6,2.9C1306.4,387.2,1306.7,390.9,1306.7,390.9z"/>
					<circle fill="#343434" cx="1224.5" cy="397.8" r="12.6"/>
					<circle fill="#4B4B4B" cx="1224.5" cy="398.4" r="12.6"/>
					<path fill="#F7F9FB" d="M1224.5,389.7c-4.8,0-8.8,3.9-8.8,8.8c0,4.8,3.9,8.8,8.8,8.8c4.9,0,8.8-3.9,8.8-8.8
						C1233.3,393.6,1229.4,389.7,1224.5,389.7z M1224.5,405.8c-4.1,0-7.4-3.3-7.4-7.4c0-4.1,3.3-7.4,7.4-7.4c4.1,0,7.4,3.3,7.4,7.4
						C1231.9,402.5,1228.6,405.8,1224.5,405.8z"/>
					<path fill="#4B4B4B" d="M1247.7,359.1l21.4,10.8c0.2,0.1,0.5-0.1,0.5-0.3l-0.2-9.3c0-0.2-0.2-0.4-0.4-0.4l-21.3-1.1
						C1247.6,358.8,1247.5,359.1,1247.7,359.1z"/>
					<path fill="#303030" d="M1269.9,360.1l0.5,0.1c1,0.2,1.7,1,1.7,2l0.1,8.3c0,0.3-0.3,0.6-0.7,0.4l-1.7-0.8
						c-0.2-0.1-0.3-0.2-0.3-0.4l-0.2-9.1C1269.3,360.3,1269.6,360,1269.9,360.1z"/>
					<path fill="#4B4B4B" d="M1220.9,372.3v0.8c0,0.6-0.2,1.1-0.5,1.6l-4.3,6.8c-0.7,1.1-1.5,2.1-2.5,2.9l-3.9,3.3
						c-0.2,0.2-0.6,0-0.6-0.3l0-0.5c0.2-0.5,0.4-0.9,0.7-1.3l10.6-13.9C1220.6,371.8,1220.7,372,1220.9,372.3L1220.9,372.3z"/>
					<path fill="#4B4B4B" d="M1278.4,396l-4.8,0.5c-6.4,0.7-12.6-0.5-18.9-1.8l-12.2-2.4c-6.8-1.2-15.7-7.2-18.1-15.7l0,0
						c2.8,3.1,7.4,7.2,14.3,11.2c1.2,0.7,11.2,1.6,20.5,2.8c6.2,0.8,11,1.6,13.4,2c1.5,0.2,2.3-0.1,2.8-0.7l3.3,3.3
						C1278.9,395.5,1278.8,395.9,1278.4,396z"/>
					<path fill="#3A3A3A" d="M1227.6,342C1227.6,341.9,1227.6,341.9,1227.6,342l-0.3-2c0,0,0,0,0,0l1.4,1.6c0,0,0,0,0,0.1l0.3,2
						L1227.6,342z"/>
					<path fill="#414141" d="M1228.9,343.7l-1.7,0.5c-0.1,0-0.2,0-0.2-0.1l-1.6-1.7l0,0l2.1-0.4c0,0,0,0,0,0c0,0,0,0,0,0
						L1228.9,343.7z"/>
					<path fill="#969A9A" d="M1225.4,364.7c0-0.2,0.1-0.3,0.2-0.4c0.1-0.1,0.3-0.2,0.5-0.3c0.3-0.2,1.1-0.2,1.7,0
						c0.6,0.2,1.8,0.4,1.8,0.4l0.5,3.1c0,0-3.3,0-3.5-0.1c-0.2-0.1-0.8-0.1-0.9-0.9C1225.5,365.9,1225.4,365.1,1225.4,364.7z"/>
					<path fill="#808587" d="M1230,367.5C1230,367.5,1230,367.5,1230,367.5l-0.4-2.6c0,0-1.2-0.3-1.8-0.4s-1.4-0.2-1.7,0
						c-0.2,0.1-0.3,0.2-0.5,0.3c-0.1,0.1-0.2,0.2-0.2,0.3c0-0.2,0-0.3,0-0.4c0-0.2,0.1-0.3,0.2-0.4c0.1-0.1,0.3-0.2,0.5-0.3
						c0.3-0.2,1.1-0.2,1.7,0c0.6,0.2,1.8,0.4,1.8,0.4L1230,367.5z"/>
					<path fill="#969A9A" d="M1222.6,340.8c0-0.2,0.1-0.3,0.2-0.4c0.1-0.1,0.3-0.2,0.5-0.3c0.3-0.2,2.3,0.7,2.3,0.7l0.5,2.8
						c0,0-1.9-0.2-2.1-0.2c-0.2,0-0.9-0.1-1-0.9C1222.8,341.9,1222.7,341.2,1222.6,340.8z"/>
					<path fill="#808587" d="M1226,343.6C1226,343.6,1226,343.6,1226,343.6l-0.5-2.3c0,0-2-0.9-2.3-0.7c-0.2,0.1-0.3,0.2-0.5,0.3
						c-0.1,0-0.1,0.1-0.2,0.2c0-0.1,0-0.2,0-0.3c0-0.2,0.1-0.3,0.2-0.4c0.1-0.1,0.3-0.2,0.5-0.3c0.3-0.2,2.3,0.7,2.3,0.7L1226,343.6
						z"/>
					<path fill="#CCF139" d="M1226.7,397.9v8.8c0,0.1,0,0.2,0,0.3c-0.4,0.1-0.8,0.2-1.2,0.2V398c0-0.5-0.4-0.9-0.9-0.9
						c-0.2,0-0.5,0.1-0.6,0.3c-0.2,0.2-0.3,0.4-0.3,0.6v9.2c-0.4,0-0.8-0.1-1.2-0.2c0-0.1,0-0.2,0-0.3v-8.8c0-1.2,1-2.2,2.2-2.2
						c0.6,0,1.1,0.2,1.5,0.6C1226.4,396.8,1226.7,397.3,1226.7,397.9z"/>
					<circle fill="#343434" cx="1293.2" cy="397.9" r="12.6"/>
					<circle fill="#4B4B4B" cx="1293.2" cy="398.4" r="12.6"/>
					<path fill="#F7F9FB" d="M1293.2,407.2c4.8,0,8.8-3.9,8.8-8.8c0-4.8-3.9-8.8-8.8-8.8c-4.9,0-8.8,3.9-8.8,8.8
						C1284.4,403.3,1288.3,407.2,1293.2,407.2z M1293.2,391.1c4.1,0,7.4,3.3,7.4,7.4c0,4.1-3.3,7.4-7.4,7.4c-4.1,0-7.4-3.3-7.4-7.4
						C1285.8,394.4,1289.1,391.1,1293.2,391.1z"/>
					<path fill="#CCF139" d="M1291,399v-8.8c0-0.1,0-0.2,0-0.3c0.4-0.1,0.8-0.2,1.2-0.2v9.2c0,0.5,0.4,0.9,0.9,0.9
						c0.2,0,0.5-0.1,0.6-0.3c0.2-0.2,0.3-0.4,0.3-0.6v-9.2c0.4,0,0.8,0.1,1.2,0.2c0,0.1,0,0.2,0,0.3v8.8c0,1.2-1,2.2-2.2,2.2
						c-0.6,0-1.1-0.2-1.5-0.6C1291.3,400.1,1291,399.6,1291,399z"/>
					<path fill="#4B4B4B" d="M1231.3,365.9C1231.4,366,1231.3,366,1231.3,365.9c0,0.1,0,0.1,0,0.1c0,0,0,0,0,0l-2.1,0.4l0,0
						l-1.6,0.3c-0.1,0-0.1,0-0.1-0.1l-0.2-1.8c0-0.1,0-0.1,0.1-0.1l3.6-0.9c0,0,0.1,0,0.1,0v0c0,0,0,0,0,0L1231.3,365.9z"/>
					<path fill="#3A3A3A" d="M1231.3,366C1231.3,366,1231.4,366,1231.3,366l-0.3-2c0,0,0,0,0,0l1.4,1.6c0,0,0,0,0,0.1l0.2,1.7
						L1231.3,366z"/>
					<path fill="#414141" d="M1232.6,367.5l-2.1,0.3c-0.1,0-0.2,0-0.2-0.1l-1.1-1.2l0,0l2.1-0.4c0,0,0,0,0,0c0,0,0,0,0,0
						L1232.6,367.5z"/>
					<path fill="#4B4B4B" d="M1227.6,341.9C1227.6,341.9,1227.6,341.9,1227.6,341.9c0,0.1,0,0.1,0,0.1c0,0,0,0,0,0l-2.1,0.4l0,0
						l-1.6,0.3c-0.1,0-0.1,0-0.1-0.1l-0.2-1.8c0-0.1,0-0.1,0.1-0.1l3.6-0.9c0,0,0.1,0,0.1,0v0c0,0,0,0,0,0L1227.6,341.9z"/>
					<g>
						<path fill="#FFFFFF" d="M1266.4,350.7l4.1,0c0.4,0,0.8,0.4,0.8,0.8v5.6c0,0.3-0.2,0.5-0.5,0.5h-4.9L1266.4,350.7z"/>
						<path fill="#CCF139" d="M1271.3,351.5v2.8c-1-1-3.3-1.5-4.8-1.5h-0.3l0.1-2.1h4.1C1271,350.7,1271.3,351,1271.3,351.5z"/>
						<path fill="#DADEE0" d="M1265.9,357.6l-0.1-5.8c0-0.2,0-0.3,0.1-0.5l0.3-0.6c0-0.1,0.1,0,0.1,0l0.1,2.1c0,0.2,0,0.4,0,0.7
							L1265.9,357.6z"/>
					</g>
					<path fill="#222222" d="M1272.1,362.6l0,0.4c0,0,0,0,0,0l0-0.9c0-1-0.7-1.8-1.7-2l-0.5-0.1c-0.3,0-0.5,0.2-0.5,0.5l0,0.4
						c0-0.2,0.3-0.4,0.5-0.4l0.5,0.1C1271.4,360.8,1272.1,361.7,1272.1,362.6z"/>
					<path fill="#353534" d="M1269.6,369.6c0,0.2-0.3,0.4-0.5,0.3l-21.4-10.8c-0.2-0.1-0.1-0.3,0.1-0.3l0.1,0l21.2,10.7
						c0.2,0.1,0.4,0,0.5-0.2L1269.6,369.6z"/>
				</g>
				<g>
					<path fill="#3F676A" d="M1312.3,478.7h-116.9c-10.6,0-19.1,8.6-19.1,19.1v0c0,10.6,8.6,19.1,19.1,19.1h116.9
						c10.6,0,19.1-8.6,19.1-19.1v0C1331.5,487.2,1322.9,478.7,1312.3,478.7z"/>
					<g>
						<path fill="#BDCE55" d="M1217,495.5h-2.1v5.7h-1.4v-5.7h-2.1v-1.1h5.6V495.5z"/>
						<path fill="#BDCE55" d="M1220.3,498.8h-1.1v2.5h-1.4v-6.9h2.6c0.8,0,1.4,0.2,1.9,0.5c0.4,0.4,0.7,0.9,0.7,1.5
							c0,0.5-0.1,0.9-0.3,1.2s-0.5,0.6-0.9,0.7l1.5,2.8v0.1h-1.5L1220.3,498.8z M1219.2,497.6h1.1c0.4,0,0.6-0.1,0.8-0.3
							s0.3-0.4,0.3-0.7c0-0.3-0.1-0.6-0.3-0.8c-0.2-0.2-0.5-0.3-0.8-0.3h-1.1V497.6z"/>
						<path fill="#BDCE55" d="M1227.8,499.9h-2.5l-0.5,1.4h-1.5l2.6-6.9h1.3l2.6,6.9h-1.5L1227.8,499.9z M1225.7,498.7h1.7l-0.9-2.6
							L1225.7,498.7z"/>
						<path fill="#BDCE55" d="M1236,501.3h-1.4l-2.8-4.5v4.5h-1.4v-6.9h1.4l2.8,4.5v-4.5h1.4V501.3z"/>
						<path fill="#BDCE55" d="M1242.6,499c-0.1,0.7-0.3,1.3-0.8,1.7c-0.5,0.4-1.1,0.6-1.9,0.6c-0.9,0-1.6-0.3-2.1-0.9
							c-0.5-0.6-0.8-1.4-0.8-2.4v-0.4c0-0.7,0.1-1.2,0.3-1.7c0.2-0.5,0.6-0.9,1-1.2c0.4-0.3,0.9-0.4,1.5-0.4c0.8,0,1.4,0.2,1.9,0.6
							c0.5,0.4,0.8,1,0.8,1.8h-1.4c0-0.4-0.2-0.8-0.4-1c-0.2-0.2-0.5-0.3-1-0.3c-0.5,0-0.8,0.2-1.1,0.5c-0.2,0.3-0.4,0.9-0.4,1.6
							v0.5c0,0.7,0.1,1.3,0.3,1.6c0.2,0.3,0.6,0.5,1.1,0.5c0.4,0,0.8-0.1,1-0.3c0.2-0.2,0.3-0.5,0.4-0.9H1242.6z"/>
						<path fill="#BDCE55" d="M1247.4,499.9h-2.5l-0.5,1.4h-1.5l2.6-6.9h1.3l2.6,6.9h-1.5L1247.4,499.9z M1245.3,498.7h1.7l-0.9-2.6
							L1245.3,498.7z"/>
						<path fill="#BDCE55" d="M1252.5,498.8h-1.1v2.5h-1.4v-6.9h2.6c0.8,0,1.4,0.2,1.9,0.5c0.4,0.4,0.7,0.9,0.7,1.5
							c0,0.5-0.1,0.9-0.3,1.2s-0.5,0.6-0.9,0.7l1.5,2.8v0.1h-1.5L1252.5,498.8z M1251.4,497.6h1.1c0.4,0,0.6-0.1,0.8-0.3
							s0.3-0.4,0.3-0.7c0-0.3-0.1-0.6-0.3-0.8c-0.2-0.2-0.5-0.3-0.8-0.3h-1.1V497.6z"/>
						<path fill="#BDCE55" d="M1261,499.6l1.6-5.2h1.6l-2.4,6.9h-1.5l-2.4-6.9h1.6L1261,499.6z"/>
						<path fill="#BDCE55" d="M1268.9,498.3h-2.7v1.8h3.2v1.1h-4.6v-6.9h4.6v1.1h-3.2v1.6h2.7V498.3z"/>
						<path fill="#BDCE55" d="M1271.7,501.3h-1.4v-6.9h1.4V501.3z M1271.3,492.5h1.5l-1.3,1.5h-1.1L1271.3,492.5z"/>
						<path fill="#BDCE55" d="M1278.4,499c-0.1,0.7-0.3,1.3-0.8,1.7c-0.5,0.4-1.1,0.6-1.9,0.6c-0.9,0-1.6-0.3-2.1-0.9
							c-0.5-0.6-0.8-1.4-0.8-2.4v-0.4c0-0.7,0.1-1.2,0.3-1.7c0.2-0.5,0.6-0.9,1-1.2c0.4-0.3,0.9-0.4,1.5-0.4c0.8,0,1.4,0.2,1.9,0.6
							c0.5,0.4,0.8,1,0.8,1.8h-1.4c0-0.4-0.2-0.8-0.4-1c-0.2-0.2-0.5-0.3-1-0.3c-0.5,0-0.8,0.2-1.1,0.5c-0.2,0.3-0.4,0.9-0.4,1.6
							v0.5c0,0.7,0.1,1.3,0.3,1.6c0.2,0.3,0.6,0.5,1.1,0.5c0.4,0,0.8-0.1,1-0.3c0.2-0.2,0.3-0.5,0.4-0.9H1278.4z"/>
						<path fill="#BDCE55" d="M1284.5,494.4v4.5c0,0.8-0.2,1.3-0.7,1.8c-0.5,0.4-1.1,0.7-1.9,0.7c-0.8,0-1.4-0.2-1.9-0.6
							s-0.7-1-0.7-1.8v-4.6h1.4v4.5c0,0.5,0.1,0.8,0.3,1c0.2,0.2,0.5,0.3,0.9,0.3c0.8,0,1.2-0.4,1.2-1.3v-4.6H1284.5z"/>
						<path fill="#BDCE55" d="M1287,500.1h3v1.1h-4.4v-6.9h1.4V500.1z"/>
						<path fill="#BDCE55" d="M1296.2,498c0,0.7-0.1,1.3-0.4,1.8s-0.6,0.9-1,1.2c-0.4,0.3-1,0.4-1.5,0.4c-0.6,0-1.1-0.1-1.5-0.4
							c-0.4-0.3-0.8-0.7-1-1.2c-0.2-0.5-0.4-1.1-0.4-1.8v-0.3c0-0.7,0.1-1.3,0.4-1.8s0.6-0.9,1-1.2c0.4-0.3,1-0.4,1.5-0.4
							c0.6,0,1.1,0.1,1.5,0.4s0.8,0.7,1,1.2c0.2,0.5,0.4,1.1,0.4,1.8V498z M1294.7,497.7c0-0.7-0.1-1.3-0.4-1.6
							c-0.3-0.4-0.6-0.6-1.1-0.6c-0.5,0-0.8,0.2-1.1,0.6c-0.3,0.4-0.4,0.9-0.4,1.6v0.3c0,0.7,0.1,1.2,0.4,1.6
							c0.3,0.4,0.6,0.6,1.1,0.6c0.5,0,0.8-0.2,1.1-0.6s0.4-0.9,0.4-1.6V497.7z"/>
					</g>
				</g>
				<g>
					<path fill="#5D5D5D" d="M1228.2,452c0,3.9-0.6,6.8-1.8,8.7c-1.2,1.9-3,2.8-5.4,2.8c-2.3,0-4.1-1-5.3-2.9
						c-1.2-1.9-1.8-4.8-1.8-8.6c0-3.9,0.6-6.8,1.8-8.6s3-2.8,5.4-2.8c2.4,0,4.1,1,5.4,2.9C1227.6,445.4,1228.2,448.3,1228.2,452z
						 M1215.5,452c0,3.5,0.5,6,1.4,7.7s2.3,2.5,4.1,2.5c1.9,0,3.3-0.9,4.2-2.6c0.9-1.7,1.3-4.2,1.3-7.6c0-3.3-0.4-5.8-1.3-7.5
						c-0.9-1.7-2.3-2.6-4.2-2.6s-3.3,0.9-4.2,2.6C1215.9,446.2,1215.5,448.7,1215.5,452z"/>
					<path fill="#5D5D5D" d="M1246.4,452c0,3.9-0.6,6.8-1.8,8.7c-1.2,1.9-3,2.8-5.4,2.8c-2.3,0-4.1-1-5.3-2.9
						c-1.2-1.9-1.8-4.8-1.8-8.6c0-3.9,0.6-6.8,1.8-8.6s3-2.8,5.4-2.8c2.4,0,4.1,1,5.4,2.9C1245.8,445.4,1246.4,448.3,1246.4,452z
						 M1233.7,452c0,3.5,0.5,6,1.4,7.7s2.3,2.5,4.1,2.5c1.9,0,3.3-0.9,4.2-2.6c0.9-1.7,1.3-4.2,1.3-7.6c0-3.3-0.4-5.8-1.3-7.5
						c-0.9-1.7-2.3-2.6-4.2-2.6s-3.3,0.9-4.2,2.6C1234.1,446.2,1233.7,448.7,1233.7,452z"/>
					<path fill="#5D5D5D" d="M1250.2,448.4c0-1,0.4-1.5,1.2-1.5c0.8,0,1.3,0.5,1.3,1.5c0,0.5-0.1,0.9-0.4,1.2s-0.5,0.4-0.9,0.4
						c-0.3,0-0.6-0.1-0.9-0.4C1250.3,449.4,1250.2,449,1250.2,448.4z M1250.2,462.1c0-1,0.4-1.5,1.2-1.5c0.8,0,1.3,0.5,1.3,1.5
						c0,1-0.4,1.5-1.3,1.5C1250.6,463.6,1250.2,463.1,1250.2,462.1z"/>
					<path fill="#5D5D5D" d="M1263.7,463.3h-1.5V447c0-1.5,0.1-3,0.2-4.6c-0.2,0.2-0.3,0.3-0.5,0.4c-0.2,0.1-1.7,1.4-4.7,3.7
						l-0.9-1.1l6.1-4.5h1.3V463.3z"/>
					<path fill="#5D5D5D" d="M1285,452c0,3.9-0.6,6.8-1.8,8.7c-1.2,1.9-3,2.8-5.4,2.8c-2.3,0-4.1-1-5.3-2.9
						c-1.2-1.9-1.8-4.8-1.8-8.6c0-3.9,0.6-6.8,1.8-8.6s3-2.8,5.4-2.8c2.4,0,4.1,1,5.4,2.9C1284.4,445.4,1285,448.3,1285,452z
						 M1272.3,452c0,3.5,0.5,6,1.4,7.7s2.3,2.5,4.1,2.5c1.9,0,3.3-0.9,4.2-2.6c0.9-1.7,1.3-4.2,1.3-7.6c0-3.3-0.4-5.8-1.3-7.5
						c-0.9-1.7-2.3-2.6-4.2-2.6s-3.3,0.9-4.2,2.6C1272.7,446.2,1272.3,448.7,1272.3,452z"/>
					<path fill="#5D5D5D" d="M1294.5,463.3h-0.6v-4h-4.7v4h-0.6v-8.1h0.6v3.6h4.7v-3.6h0.6V463.3z"/>
				</g>
				<g>
					<g>
						<path fill="#3F676A" d="M1183.2,253.4h-1v-10.7l-3.2,1.2V243l4-1.5h0.2V253.4z"/>
						<path fill="#3F676A" d="M1194.1,253.4h-7.4v-0.8l4.1-4.6c0.7-0.8,1.1-1.4,1.4-1.9c0.3-0.5,0.4-1,0.4-1.5
							c0-0.8-0.2-1.3-0.7-1.8s-1-0.7-1.8-0.7c-0.8,0-1.4,0.3-1.9,0.8c-0.5,0.5-0.7,1.2-0.7,2h-1c0-0.7,0.2-1.3,0.5-1.8
							c0.3-0.5,0.7-1,1.3-1.3c0.6-0.3,1.2-0.5,1.9-0.5c1.1,0,1.9,0.3,2.5,0.9c0.6,0.6,0.9,1.3,0.9,2.3c0,0.6-0.2,1.2-0.5,1.8
							c-0.3,0.7-1,1.5-1.8,2.5l-3.3,3.7h6.2V253.4z"/>
						<path fill="#3F676A" d="M1196,252.8c0-0.2,0.1-0.4,0.2-0.5c0.1-0.1,0.3-0.2,0.5-0.2s0.4,0.1,0.5,0.2c0.1,0.1,0.2,0.3,0.2,0.5
							s-0.1,0.3-0.2,0.5s-0.3,0.2-0.5,0.2s-0.4-0.1-0.5-0.2S1196,253,1196,252.8z M1196,245.3c0-0.2,0.1-0.4,0.2-0.5
							c0.1-0.1,0.3-0.2,0.5-0.2c0.2,0,0.4,0.1,0.5,0.2c0.1,0.1,0.2,0.3,0.2,0.5c0,0.2-0.1,0.3-0.2,0.5s-0.3,0.2-0.5,0.2
							c-0.2,0-0.4-0.1-0.5-0.2C1196,245.7,1196,245.5,1196,245.3z"/>
						<path fill="#3F676A" d="M1206.7,248.5c0,1.7-0.3,2.9-0.9,3.8c-0.6,0.9-1.5,1.3-2.7,1.3c-1.2,0-2.1-0.4-2.7-1.3
							c-0.6-0.9-0.9-2.1-1-3.7v-2.1c0-1.7,0.3-2.9,0.9-3.8c0.6-0.9,1.5-1.3,2.7-1.3c1.2,0,2.1,0.4,2.7,1.2c0.6,0.8,0.9,2.1,1,3.7
							V248.5z M1205.7,246.3c0-1.4-0.2-2.4-0.7-3.1s-1.1-1-2-1c-0.9,0-1.5,0.3-2,1s-0.7,1.7-0.7,3v2.3c0,1.4,0.2,2.4,0.7,3.1
							c0.5,0.7,1.1,1.1,2,1.1c0.9,0,1.5-0.4,2-1.1c0.4-0.7,0.7-1.7,0.7-3.1V246.3z"/>
						<path fill="#3F676A" d="M1216.1,248.5c0,1.7-0.3,2.9-0.9,3.8c-0.6,0.9-1.5,1.3-2.7,1.3c-1.2,0-2.1-0.4-2.7-1.3
							c-0.6-0.9-0.9-2.1-1-3.7v-2.1c0-1.7,0.3-2.9,0.9-3.8c0.6-0.9,1.5-1.3,2.7-1.3c1.2,0,2.1,0.4,2.7,1.2c0.6,0.8,0.9,2.1,1,3.7
							V248.5z M1215.1,246.3c0-1.4-0.2-2.4-0.7-3.1s-1.1-1-2-1c-0.9,0-1.5,0.3-2,1s-0.7,1.7-0.7,3v2.3c0,1.4,0.2,2.4,0.7,3.1
							c0.5,0.7,1.1,1.1,2,1.1c0.9,0,1.5-0.4,2-1.1c0.4-0.7,0.7-1.7,0.7-3.1V246.3z"/>
						<path fill="#3F676A" d="M1231.5,253.4h-1v-5.7h-6.8v5.7h-1v-11.9h1v5.3h6.8v-5.3h1V253.4z"/>
					</g>
					<g>
						<path fill="#5D5D5D" d="M1167.8,235.6v2.3h-0.5v-5.7h1.9c0.6,0,1.1,0.1,1.4,0.5c0.3,0.3,0.5,0.7,0.5,1.2
							c0,0.5-0.2,0.9-0.5,1.2c-0.3,0.3-0.8,0.4-1.4,0.4H1167.8z M1167.8,235.2h1.4c0.5,0,0.8-0.1,1.1-0.3c0.2-0.2,0.4-0.5,0.4-0.9
							c0-0.4-0.1-0.7-0.4-0.9c-0.2-0.2-0.6-0.4-1-0.4h-1.5V235.2z"/>
						<path fill="#5D5D5D" d="M1175.5,235.2h-2.6v2.3h3v0.4h-3.5v-5.7h3.5v0.4h-3v2.1h2.6V235.2z"/>
						<path fill="#5D5D5D" d="M1181,237.3c-0.2,0.2-0.4,0.4-0.8,0.6c-0.4,0.1-0.7,0.2-1.2,0.2c-0.4,0-0.8-0.1-1.2-0.3
							c-0.3-0.2-0.6-0.5-0.8-0.9c-0.2-0.4-0.3-0.8-0.3-1.3v-0.7c0-0.8,0.2-1.4,0.6-1.9c0.4-0.5,0.9-0.7,1.6-0.7c0.6,0,1,0.1,1.4,0.4
							c0.4,0.3,0.6,0.7,0.6,1.2h-0.5c-0.1-0.4-0.2-0.7-0.5-0.9c-0.3-0.2-0.6-0.3-1-0.3c-0.5,0-0.9,0.2-1.3,0.6
							c-0.3,0.4-0.5,0.9-0.5,1.6v0.7c0,0.4,0.1,0.8,0.2,1.1c0.1,0.3,0.4,0.6,0.6,0.8c0.3,0.2,0.6,0.3,0.9,0.3c0.4,0,0.8-0.1,1.1-0.2
							c0.2-0.1,0.3-0.2,0.4-0.3v-1.5h-1.5v-0.4h2V237.3z"/>
						<path fill="#5D5D5D" d="M1186.7,235.4c0,0.5-0.1,1-0.3,1.4c-0.2,0.4-0.4,0.7-0.8,0.9c-0.3,0.2-0.7,0.3-1.2,0.3
							c-0.7,0-1.2-0.2-1.6-0.7c-0.4-0.5-0.6-1.1-0.6-1.9v-0.6c0-0.5,0.1-1,0.3-1.4s0.4-0.7,0.8-0.9s0.7-0.3,1.2-0.3s0.8,0.1,1.2,0.3
							c0.3,0.2,0.6,0.5,0.8,0.9c0.2,0.4,0.3,0.8,0.3,1.3V235.4z M1186.2,234.8c0-0.7-0.2-1.2-0.5-1.6c-0.3-0.4-0.7-0.6-1.3-0.6
							c-0.5,0-0.9,0.2-1.3,0.6c-0.3,0.4-0.5,0.9-0.5,1.6v0.6c0,0.7,0.2,1.2,0.5,1.6c0.3,0.4,0.7,0.6,1.3,0.6c0.5,0,1-0.2,1.3-0.6
							s0.5-0.9,0.5-1.6V234.8z"/>
						<path fill="#5D5D5D" d="M1194,237.9h-0.5l-3.2-4.8v4.8h-0.5v-5.7h0.5l3.3,4.8v-4.8h0.5V237.9z"/>
						<path fill="#5D5D5D" d="M1199.8,235.4c0,0.5-0.1,1-0.3,1.4c-0.2,0.4-0.4,0.7-0.8,0.9c-0.3,0.2-0.7,0.3-1.2,0.3
							c-0.7,0-1.2-0.2-1.6-0.7c-0.4-0.5-0.6-1.1-0.6-1.9v-0.6c0-0.5,0.1-1,0.3-1.4s0.4-0.7,0.8-0.9s0.7-0.3,1.2-0.3s0.8,0.1,1.2,0.3
							c0.3,0.2,0.6,0.5,0.8,0.9c0.2,0.4,0.3,0.8,0.3,1.3V235.4z M1199.3,234.8c0-0.7-0.2-1.2-0.5-1.6c-0.3-0.4-0.7-0.6-1.3-0.6
							c-0.5,0-0.9,0.2-1.3,0.6c-0.3,0.4-0.5,0.9-0.5,1.6v0.6c0,0.7,0.2,1.2,0.5,1.6c0.3,0.4,0.7,0.6,1.3,0.6c0.5,0,1-0.2,1.3-0.6
							s0.5-0.9,0.5-1.6V234.8z"/>
						<path fill="#5D5D5D" d="M1202.9,237.9v-5.7h1.6c0.5,0,0.9,0.1,1.2,0.3c0.4,0.2,0.7,0.5,0.9,0.9c0.2,0.4,0.3,0.8,0.3,1.3v0.5
							c0,0.5-0.1,1-0.3,1.3c-0.2,0.4-0.5,0.7-0.9,0.9c-0.4,0.2-0.8,0.3-1.3,0.3H1202.9z M1203.4,232.7v4.8h1.1
							c0.6,0,1.1-0.2,1.4-0.6c0.4-0.4,0.5-0.9,0.5-1.6v-0.5c0-0.6-0.2-1.2-0.5-1.6c-0.4-0.4-0.8-0.6-1.4-0.6H1203.4z"/>
						<path fill="#5D5D5D" d="M1208.8,237.9h-0.5v-5.7h0.5V237.9z"/>
						<path fill="#5D5D5D" d="M1213.5,236.3h-2.6l-0.6,1.6h-0.5l2.1-5.7h0.5l2.1,5.7h-0.5L1213.5,236.3z M1211.1,235.9h2.3l-1.1-3.1
							L1211.1,235.9z"/>
						<path fill="#3F676A" d="M1219.8,237.9h-1.3v-4.1l-1.3,0.4v-1l2.4-0.8h0.1V237.9z"/>
						<path fill="#3F676A" d="M1225.1,237.9h-3.9v-0.8l1.8-1.9c0.4-0.5,0.7-0.9,0.7-1.2c0-0.2-0.1-0.4-0.2-0.5
							c-0.1-0.1-0.3-0.2-0.5-0.2c-0.2,0-0.4,0.1-0.5,0.3c-0.1,0.2-0.2,0.4-0.2,0.6h-1.3c0-0.3,0.1-0.7,0.3-0.9
							c0.2-0.3,0.4-0.5,0.7-0.7c0.3-0.2,0.6-0.2,1-0.2c0.6,0,1.1,0.1,1.4,0.4c0.3,0.3,0.5,0.7,0.5,1.2c0,0.2,0,0.4-0.1,0.6
							c-0.1,0.2-0.2,0.4-0.4,0.7c-0.2,0.2-0.4,0.5-0.8,0.9l-0.7,0.8h2.2V237.9z"/>
						<path fill="#3F676A" d="M1230.9,236.9h-1.8l-0.3,1h-1.4l2-5.5h1.3l2,5.5h-1.4L1230.9,236.9z M1229.4,235.9h1.2l-0.6-1.9
							L1229.4,235.9z"/>
						<path fill="#3F676A" d="M1237.6,237.2c-0.2,0.2-0.5,0.4-0.9,0.6s-0.8,0.2-1.3,0.2c-0.7,0-1.3-0.2-1.7-0.7
							c-0.4-0.4-0.7-1.1-0.7-1.9l0-0.5c0-0.5,0.1-1,0.3-1.4c0.2-0.4,0.5-0.7,0.8-0.9s0.8-0.3,1.2-0.3c0.7,0,1.2,0.2,1.6,0.5
							c0.4,0.3,0.6,0.8,0.7,1.4h-1.3c0-0.3-0.1-0.5-0.3-0.7s-0.4-0.2-0.6-0.2c-0.3,0-0.6,0.1-0.8,0.4c-0.2,0.3-0.3,0.7-0.3,1.2v0.3
							c0,0.6,0.1,1,0.3,1.2c0.2,0.3,0.5,0.4,0.9,0.4c0.3,0,0.6-0.1,0.8-0.2v-0.9h-0.9V235h2.3V237.2z"/>
						<path fill="#3F676A" d="M1243.2,235.3c0,0.5-0.1,1-0.3,1.4c-0.2,0.4-0.5,0.7-0.9,1c-0.4,0.2-0.8,0.3-1.3,0.3s-0.9-0.1-1.3-0.3
							c-0.4-0.2-0.7-0.5-0.9-0.9c-0.2-0.4-0.3-0.9-0.3-1.4V235c0-0.5,0.1-1,0.3-1.4c0.2-0.4,0.5-0.7,0.9-1c0.4-0.2,0.8-0.3,1.3-0.3
							c0.5,0,0.9,0.1,1.3,0.3s0.7,0.5,0.9,1c0.2,0.4,0.3,0.9,0.3,1.4V235.3z M1241.8,235c0-0.6-0.1-1-0.3-1.3
							c-0.2-0.3-0.4-0.4-0.8-0.4c-0.7,0-1,0.5-1.1,1.5l0,0.4c0,0.5,0.1,1,0.3,1.3c0.2,0.3,0.4,0.4,0.8,0.4c0.3,0,0.6-0.1,0.8-0.4
							s0.3-0.7,0.3-1.2V235z"/>
						<path fill="#3F676A" d="M1246.9,236.4c0-0.2-0.1-0.3-0.2-0.5c-0.1-0.1-0.4-0.2-0.7-0.3c-0.3-0.1-0.6-0.2-0.9-0.3
							c-0.7-0.4-1.1-0.8-1.1-1.5c0-0.3,0.1-0.6,0.3-0.8c0.2-0.2,0.4-0.4,0.8-0.5c0.3-0.1,0.7-0.2,1.1-0.2c0.4,0,0.8,0.1,1.1,0.2
							c0.3,0.1,0.6,0.3,0.7,0.6c0.2,0.3,0.3,0.6,0.3,0.9h-1.3c0-0.2-0.1-0.4-0.2-0.5c-0.1-0.1-0.3-0.2-0.6-0.2
							c-0.2,0-0.4,0.1-0.6,0.2c-0.1,0.1-0.2,0.2-0.2,0.4c0,0.1,0.1,0.3,0.2,0.4s0.4,0.2,0.8,0.4s0.7,0.3,0.9,0.4
							c0.6,0.3,0.9,0.8,0.9,1.4c0,0.5-0.2,0.9-0.5,1.1c-0.4,0.3-0.9,0.4-1.5,0.4c-0.5,0-0.9-0.1-1.2-0.2s-0.6-0.4-0.8-0.7
							c-0.2-0.3-0.3-0.6-0.3-1h1.3c0,0.3,0.1,0.5,0.2,0.7c0.2,0.1,0.4,0.2,0.7,0.2c0.2,0,0.4,0,0.5-0.1
							C1246.8,236.8,1246.9,236.6,1246.9,236.4z"/>
						<path fill="#3F676A" d="M1253.4,233.4h-1.7v4.5h-1.3v-4.5h-1.6v-1h4.6V233.4z"/>
						<path fill="#3F676A" d="M1258.7,235.3c0,0.5-0.1,1-0.3,1.4c-0.2,0.4-0.5,0.7-0.9,1c-0.4,0.2-0.8,0.3-1.3,0.3s-0.9-0.1-1.3-0.3
							c-0.4-0.2-0.7-0.5-0.9-0.9c-0.2-0.4-0.3-0.9-0.3-1.4V235c0-0.5,0.1-1,0.3-1.4c0.2-0.4,0.5-0.7,0.9-1c0.4-0.2,0.8-0.3,1.3-0.3
							c0.5,0,0.9,0.1,1.3,0.3s0.7,0.5,0.9,1c0.2,0.4,0.3,0.9,0.3,1.4V235.3z M1257.4,235c0-0.6-0.1-1-0.3-1.3
							c-0.2-0.3-0.4-0.4-0.8-0.4c-0.7,0-1,0.5-1.1,1.5l0,0.4c0,0.5,0.1,1,0.3,1.3c0.2,0.3,0.4,0.4,0.8,0.4c0.3,0,0.6-0.1,0.8-0.4
							s0.3-0.7,0.3-1.2V235z"/>
						<path fill="#3F676A" d="M1170.2,246.3h-1.8l-0.3,1h-1.4l2-5.5h1.3l2,5.5h-1.4L1170.2,246.3z M1168.7,245.2h1.2l-0.6-1.9
							L1168.7,245.2z"/>
						<path fill="#3F676A" d="M1175.3,245.8c0-0.2-0.1-0.3-0.2-0.5c-0.1-0.1-0.4-0.2-0.7-0.3c-0.3-0.1-0.6-0.2-0.9-0.3
							c-0.7-0.4-1.1-0.8-1.1-1.5c0-0.3,0.1-0.6,0.3-0.8c0.2-0.2,0.4-0.4,0.8-0.5c0.3-0.1,0.7-0.2,1.1-0.2c0.4,0,0.8,0.1,1.1,0.2
							c0.3,0.1,0.6,0.3,0.7,0.6c0.2,0.3,0.3,0.6,0.3,0.9h-1.3c0-0.2-0.1-0.4-0.2-0.5c-0.1-0.1-0.3-0.2-0.6-0.2
							c-0.2,0-0.4,0.1-0.6,0.2c-0.1,0.1-0.2,0.2-0.2,0.4c0,0.1,0.1,0.3,0.2,0.4s0.4,0.2,0.8,0.4s0.7,0.3,0.9,0.4
							c0.6,0.3,0.9,0.8,0.9,1.4c0,0.5-0.2,0.9-0.5,1.1c-0.4,0.3-0.9,0.4-1.5,0.4c-0.5,0-0.9-0.1-1.2-0.2s-0.6-0.4-0.8-0.7
							c-0.2-0.3-0.3-0.6-0.3-1h1.3c0,0.3,0.1,0.5,0.2,0.7c0.2,0.1,0.4,0.2,0.7,0.2c0.2,0,0.4,0,0.5-0.1
							C1175.2,246.1,1175.3,246,1175.3,245.8z"/>
					</g>
				</g>
			</g>
		</g>
	</g>
</g>
</svg>
