<svg baseProfile="basic" xmlns="http://www.w3.org/2000/svg" width="150.4" height="37.1" viewBox="0 0 150.4 37.1" overflow="scroll"><path fill="#99DE33" d="M117.4 28.5h-12.1c-1.1 0-2-.9-2-2V9c0-1.1.9-2 2-2s2 .9 2 2v15.5h10.1c.9 0 1.6-.7 1.6-1.6V9c0-1.1.9-2 2-2s2 .9 2 2v13.9c0 3.1-2.5 5.6-5.6 5.6zM95.4 28.5h-8.3c-5.2 0-9.4-4.2-9.4-9.4v-6.5c0-3.1 2.5-5.6 5.6-5.6h12.1c1.1 0 2 .9 2 2s-.9 2-2 2H83.3c-.9 0-1.6.7-1.6 1.6v6.5c0 3 2.5 5.5 5.5 5.5h8.3c1.1 0 2 .9 2 2-.1 1-1 1.9-2.1 1.9z"/><path fill="#1B676B" d="M62 28.5h-.4c-5.2 0-9.4-4.2-9.4-9.4v-6.5c0-3.1 2.5-5.6 5.6-5.6h12.1c1.1 0 2 .9 2 2v8.8c0 1.1-.9 2-2 2H56.2c.3 2.7 2.6 4.8 5.4 4.8h.4c1.1 0 2 .9 2 2 0 1-.9 1.9-2 1.9zm-5.9-12.7h11.8V11H57.7c-.9 0-1.6.7-1.6 1.6v3.2z"/><circle fill="#1B676B" cx="71.8" cy="26.5" r="2"/><path fill="#99DE33" d="M148.4 7h-12.6c-1.1 0-2.1.2-3 .7V2c0-1.1-.9-2-2-2s-2 .9-2 2v24.5c0 1.1.9 2 2 2h12.6c3.8 0 7-3.1 7-7V9c0-1.1-.9-2-2-2zm-2 14.5c0 1.6-1.3 3-3 3h-10.6V13.9c0-1.6 1.3-3 3-3h10.6v10.6z"/><g fill="#A2DB07"><path d="M8.6 30.2v5.2c0 1-.8 1.7-1.7 1.7H1.7c-1 0-1.7-.8-1.7-1.7v-5.2c0-1 .8-1.7 1.7-1.7h5.2c.9 0 1.7.8 1.7 1.7zM35.4 0H15.9c-4 0-7.3 3.3-7.3 7.3v19.5c0 1 .8 1.7 1.7 1.7h19.5c4 0 7.3-3.3 7.3-7.3V1.7c0-.9-.8-1.7-1.7-1.7zM19.9 23.6l1.4-8H16l9.9-10.7-1.4 8h5.3l-9.9 10.7z"/></g></svg>