<svg xmlns="http://www.w3.org/2000/svg" width="195.5" height="74.1" viewBox="0 0 195.5 74.1"><g fill="#6F6F6E"><path fill-rule="evenodd" clip-rule="evenodd" d="M0 .9h10.5v1.3H0V.9zm0 8.4h10.5v1.3H0V9.3zm0 8.6h10.5v1.3H0v-1.3zm0 8.7h10.5v1.3H0v-1.3zM0 35h10.5v1.3H0V35zM185 .9h10.5v1.3H185V.9zm0 8.4h10.5v1.3H185V9.3zm0 8.6h10.5v1.3H185v-1.3zm0 8.7h10.5v1.3H185v-1.3zm0 8.4h10.5v1.3H185V35zM173.8 36.3L181.4.7h-9.9l-7.6 35.6h9.9zm-36.1-13.8l8-14.8h.1l1.4 14.8h-9.5zm-7.8 13.8l3.8-6.9h14.4l.9 6.9h11.1L153.6.7h-12L120 36.3h9.9zm-48.2 0h8.9L96.4 9h.1l6.3 27.3h13.7L124 .7h-8.9l-5.6 26.4-.1.1L103.1.7H89.3l-7.6 35.6zm-5.6 0l1.5-6.9H60.4l1.6-7.5h15.9l1.5-6.9h-16L65 7.6h17.2L83.7.7H56.6L49 36.3h27.1zM47.6 11.2C50 2.6 43.1 0 35.7 0S20.4 2.3 18.2 10.7c-.8 3.8.3 7.1 3.5 8.7 7 3.4 14.5 2.4 13.5 7.2-.5 2.4-3.7 3.5-5.9 3.5-3.5 0-5.6-1.8-4.9-5.2h-9.9C12.6 34.6 19.4 37 27.7 37c8.2 0 16.4-3.6 18-11 2-9.6-6.5-10.2-12.1-11.7-2.5-.7-5.4-1.5-4.9-4.1.4-1.8 2.7-3.3 4.9-3.3 1.7 0 2.9.4 3.6 1.1.7.7 1 1.8.6 3.2h9.8z"/><path d="M18.8 71l1.3-1.5c1.9 1.8 3.8 2.6 6.4 2.6 2.5 0 4.1-1.3 4.1-3.2v-.1c0-1.7-.9-2.7-4.8-3.5-4.3-.9-6.2-2.3-6.2-5.4v.1c0-2.9 2.6-5.1 6.1-5.1 2.7 0 4.6.8 6.5 2.3L31 58.8c-1.7-1.4-3.5-2-5.4-2-2.4 0-4 1.3-4 3v.1c0 1.8 1 2.7 5 3.6 4.1.9 6.1 2.4 6.1 5.3v.1c0 3.2-2.7 5.3-6.3 5.3-3-.2-5.4-1.2-7.6-3.2zM43.5 55h2L54 73.7h-2.3l-2.2-4.9H39.3l-2.2 4.9H35L43.5 55zm-3.4-1.9c.5-1.8 1.2-2.7 2.5-2.7 1.2 0 2.7 1 3.6 1 .7 0 1-.4 1.4-1.2l1.3.4c-.5 1.8-1.2 2.7-2.5 2.7-1.2 0-2.7-1-3.6-1-.7 0-1 .4-1.4 1.3l-1.3-.5zm8.5 13.8l-4.2-9.5-4.2 9.5h8.4zM55.6 64.5c0-5.2 3.8-9.7 9.5-9.7s9.5 4.4 9.5 9.6v.1c0 5.1-3.8 9.6-9.5 9.6s-9.5-4.5-9.5-9.6zm16.8 0c0-4.3-3.1-7.7-7.3-7.7s-7.3 3.4-7.3 7.6v.1c0 4.2 3.1 7.7 7.3 7.7s7.3-3.5 7.3-7.7zM87 55.2h7c4.2 0 7 2.2 7 5.9v.1c0 4-3.3 6.1-7.3 6.1h-4.5v6.6H87V55.2zm6.7 10.1c3.1 0 5.1-1.6 5.1-4.1v-.1c0-2.7-2-4-5-4h-4.7v8.2h4.6zM109.7 55h2l8.5 18.7h-2.3l-2.2-4.9h-10.1l-2.2 4.9h-2.2l8.5-18.7zm5.2 11.9l-4.2-9.5-4.2 9.5h8.4zM122.9 66V55.2h2.1v10.7c0 4 2.1 6.3 5.7 6.3 3.4 0 5.6-2.1 5.6-6.1V55.2h2.1v10.6c0 5.4-3.1 8.2-7.8 8.2-4.6 0-7.7-2.8-7.7-8zM143.3 55.2h2.1v16.6h10.5v1.9h-12.6V55.2zM157.9 64.5c0-5.2 3.8-9.7 9.5-9.7s9.5 4.4 9.5 9.6v.1c0 5.1-3.8 9.6-9.5 9.6s-9.5-4.5-9.5-9.6zm16.7 0c0-4.3-3.1-7.7-7.3-7.7s-7.3 3.4-7.3 7.6v.1c0 4.2 3.1 7.7 7.3 7.7s7.3-3.5 7.3-7.7z"/></g></svg>