<svg baseProfile="basic" xmlns="http://www.w3.org/2000/svg" width="184.8" height="166.4" viewBox="0 0 184.8 166.4" overflow="scroll"><path fill="#99DE33" d="M122.8 166.4H100c-2.1 0-3.7-1.7-3.7-3.7v-33c0-2.1 1.7-3.7 3.7-3.7 2.1 0 3.7 1.7 3.7 3.7v29.2h19.1c1.7 0 3-1.4 3-3v-26.2c0-2.1 1.7-3.7 3.7-3.7 2.1 0 3.7 1.7 3.7 3.7v26.2c.1 5.8-4.6 10.5-10.4 10.5M81.4 166.4H65.9c-9.8 0-17.8-8-17.8-17.8v-12.2c0-5.8 4.7-10.5 10.5-10.5h22.8c2.1 0 3.7 1.7 3.7 3.7 0 2.1-1.7 3.7-3.7 3.7H58.6c-1.7 0-3 1.4-3 3v12.2c0 5.7 4.6 10.3 10.3 10.3h15.6c2.1 0 3.7 1.7 3.7 3.7 0 2.2-1.7 3.9-3.8 3.9"/><path fill="#1B676B" d="M18.5 166.4h-.8c-9.8 0-17.8-8-17.8-17.8v-12.2c0-5.8 4.7-10.5 10.5-10.5h22.8c2.1 0 3.7 1.7 3.7 3.7v16.5c0 2.1-1.7 3.7-3.7 3.7H7.6c.6 5.1 5 9 10.2 9h.8c2.1 0 3.7 1.7 3.7 3.7 0 2.2-1.7 3.9-3.8 3.9m-11-23.9h22.1v-9H10.5c-1.7 0-3 1.4-3 3v6zM40.8 162.7c0 2.1-1.7 3.8-3.8 3.8-2.1 0-3.8-1.7-3.8-3.8 0-2.1 1.7-3.8 3.8-3.8 2.1 0 3.8 1.7 3.8 3.8"/><path fill="#99DE33" d="M181.1 126h-23.6c-2 0-3.9.5-5.6 1.3v-10.7c0-2.1-1.7-3.7-3.7-3.7s-3.7 1.7-3.7 3.7v46.1c0 2.1 1.7 3.7 3.7 3.7h23.6c7.2 0 13.1-5.9 13.1-13.1v-23.6c-.1-2.1-1.8-3.7-3.8-3.7m-3.8 27.3c0 3.1-2.5 5.6-5.6 5.6h-19.9V139c0-3.1 2.5-5.6 5.6-5.6h19.9v19.9z"/><path fill="#A2DB07" d="M65.4 81.9v14c0 2.6-2.1 4.7-4.7 4.7h-14c-2.6 0-4.7-2.1-4.7-4.7v-14c0-2.6 2.1-4.7 4.7-4.7h14c2.6.1 4.7 2.1 4.7 4.7M138 0H85.3c-11 0-19.8 8.9-19.8 19.8v52.8c0 2.6 2.1 4.7 4.7 4.7H123c11 0 19.8-8.9 19.8-19.8V4.7c-.1-2.6-2.2-4.7-4.8-4.7M96 64l3.8-21.8H85.3l26.8-29-3.8 21.8h14.5L96 64z"/></svg>